<svg width="76" height="108" viewBox="0 0 76 108" fill="none" xmlns="http://www.w3.org/2000/svg">
<g clip-path="url(#clip0_4017_1611)">
<path d="M33.0479 97.1976C32.6809 96.4506 32.4203 95.6586 32.2509 94.7762C32.1191 94.088 32.0449 93.3496 32.0173 92.4518C32.0001 91.888 31.9997 91.149 31.9999 90.191V89.8476V24.1538V23.7858C31.9997 22.8516 31.9999 22.1124 32.0173 21.5476C32.0451 20.651 32.1193 19.9128 32.2511 19.2242C32.4201 18.3422 32.6807 17.5502 33.0479 16.803C33.4379 16.0092 33.9409 15.2904 34.5427 14.667C35.1485 14.039 35.8477 13.5136 36.6199 13.106C37.3537 12.7184 38.1319 12.4432 38.9985 12.2648C39.6735 12.1258 40.3965 12.0476 41.2743 12.0186C41.8089 12.0012 42.5071 12.0002 43.4727 12.0002H43.7929H43.8373H45.8375C45.8181 11.873 45.8053 11.735 45.7819 11.6134C45.6451 10.908 45.4371 10.28 45.1465 9.69324C44.8443 9.08484 44.4563 8.53524 43.9933 8.06024C43.5297 7.58444 42.9947 7.18604 42.4027 6.87644C42.2449 6.79384 42.0749 6.73304 41.9103 6.66344C41.4787 6.48064 41.0299 6.32564 40.5323 6.22404C39.9645 6.10824 39.3417 6.04244 38.5719 6.01704C38.0319 5.99964 37.3223 6.00004 36.4233 6.00004H36.0861H34.5765H9.5769C9.2701 5.99984 9.0151 6.00044 8.7515 6.00104C8.6089 6.00144 8.4565 6.00144 8.3263 6.00244C7.9885 6.00484 7.6861 6.00864 7.4283 6.01704C6.6585 6.04244 6.0355 6.10824 5.4675 6.22404C4.7803 6.36424 4.1687 6.57764 3.5977 6.87644C3.0055 7.18604 2.4703 7.58424 2.0067 8.06024C1.5437 8.53564 1.1557 9.08504 0.853699 9.69324C0.562499 10.2798 0.354699 10.908 0.218299 11.6132C0.105499 12.1964 0.0414989 12.836 0.0170989 13.6262C-0.000301147 14.1796 -0.000301147 14.9064 9.88525e-05 15.8266V16.179V89.8218V90.1742C-0.000301147 91.0944 -0.000301147 91.8212 0.0168989 92.374C0.0414989 93.164 0.105499 93.8036 0.218099 94.387C0.354499 95.0924 0.562299 95.7204 0.853499 96.307C1.1551 96.9148 1.5429 97.4642 2.0065 97.9402C2.4703 98.4162 3.0055 98.8144 3.5975 99.124C4.1687 99.423 4.7805 99.6364 5.4675 99.7764C6.0353 99.8922 6.6585 99.958 7.4283 99.9832C7.9067 99.9988 8.5189 100.001 9.2785 100.001C9.3763 100.001 9.4767 100 9.5793 100H34.8069C34.9837 100 35.1341 99.9994 35.2945 99.999C35.0345 99.7884 34.7757 99.5758 34.5425 99.334C33.9395 98.7092 33.4367 97.99 33.0479 97.1976ZM24.8471 15.5004V25.5004C24.8471 28.2574 22.6041 30.5004 19.8471 30.5004H9.8471C7.0901 30.5004 4.8471 28.2574 4.8471 25.5004V15.5004C4.8471 12.7434 7.0901 10.5004 9.8471 10.5004H19.8471C22.6041 10.5004 24.8471 12.7434 24.8471 15.5004ZM68.9997 54.0004V90.0004C68.9997 91.6546 67.6539 93.0004 65.9997 93.0004H45.9463C45.9577 92.8114 45.9755 92.64 45.9819 92.4358C45.9823 92.4196 45.9823 92.3958 45.9827 92.3792C45.9827 92.3772 45.9831 92.3758 45.9831 92.3738C46.0003 91.8192 46.0003 91.0892 45.9999 90.1652V51.0002H65.9997C67.6539 51.0002 68.9997 52.3462 68.9997 54.0004ZM45.9999 90.1652C46.0003 91.0884 45.9987 91.815 45.9827 92.3792C45.9757 92.6052 45.9579 92.7966 45.9441 93.0002H43.9997C43.9807 93.0002 43.9633 92.995 43.9443 92.9946C42.3163 92.964 40.9997 91.6354 40.9997 90.0002V54.0002C40.9997 52.346 42.3455 51.0002 43.9995 51.0002H45.9999V90.1652ZM75.9831 21.6096C75.9589 20.8212 75.8959 20.183 75.7845 19.6006C75.6493 18.8964 75.4439 18.2696 75.1569 17.6848C74.8585 17.0778 74.4751 16.5296 74.0177 16.0554C73.5599 15.5806 73.0311 15.1834 72.4459 14.8744C71.8813 14.5764 71.2769 14.3634 70.5981 14.2236C70.0367 14.1082 69.4209 14.0426 68.6599 14.0174C68.1817 14.0018 67.5685 14.0002 66.8085 14.0002H66.2067H45.9891H43.4725C43.4429 14.0002 43.4137 14.0002 43.3845 14.0002C42.5345 14.0002 41.8577 14.0006 41.3399 14.0174C40.5789 14.0426 39.9631 14.108 39.4019 14.2236C38.7229 14.3634 38.1185 14.5762 37.5539 14.8744C36.9689 15.1832 36.4403 15.5804 35.9821 16.0554C35.5243 16.5298 35.1411 17.078 34.8429 17.685C34.5555 18.2698 34.3503 18.8966 34.2153 19.6008C34.1041 20.182 34.0407 20.8204 34.0163 21.6098C33.9995 22.163 33.9997 22.8894 33.9999 23.809V24.1534V89.8478V90.192C33.9997 91.1116 33.9995 91.8382 34.0163 92.391C34.0405 93.179 34.1037 93.8174 34.2153 94.4002C34.3505 95.1046 34.5557 95.7312 34.8429 96.3158C35.1407 96.9222 35.5239 97.4704 35.9821 97.9454C36.4399 98.4202 36.9687 98.8174 37.5539 99.1264C37.9917 99.3578 38.4657 99.5234 38.9677 99.6576C39.1129 99.6964 39.2493 99.7456 39.4017 99.777C39.5775 99.8132 39.7727 99.836 39.9621 99.8628C40.2641 99.9052 40.5947 99.937 40.9495 99.9574C41.0823 99.965 41.1975 99.9786 41.3399 99.9832C41.6967 99.995 42.1561 99.9978 42.6683 99.999C42.8445 99.9994 43.0031 100 43.1985 100H66.8011C67.5647 100 68.1803 99.999 68.6599 99.9832C69.4211 99.958 70.0369 99.8924 70.5981 99.777C71.2769 99.6374 71.8813 99.4246 72.4459 99.1264C73.0315 98.817 73.5603 98.4198 74.0177 97.9454C74.4755 97.4708 74.8587 96.9226 75.1569 96.3158C75.4443 95.7304 75.6495 95.1038 75.7845 94.4002C75.8959 93.818 75.9589 93.1794 75.9831 92.3912C76.0001 91.841 75.9999 91.1198 75.9995 90.2068V23.7942C75.9999 22.881 76.0001 22.1596 75.9831 21.6096ZM70.9997 90.0004C70.9997 92.7618 68.7611 95.0004 65.9997 95.0004H43.9997C43.8739 95.0004 43.7559 94.9726 43.6323 94.9634C41.0457 94.7722 38.9997 92.6358 38.9997 90.0004V54.0004C38.9997 51.239 41.2381 49.0004 43.9995 49.0004H45.9995H65.9997C68.7611 49.0004 70.9997 51.239 70.9997 54.0004V90.0004ZM42.9997 38.0004C40.2427 38.0004 37.9997 35.7574 37.9997 33.0004V23.0004C37.9997 20.2434 40.2427 18.0004 42.9997 18.0004H52.9997C55.7567 18.0004 57.9997 20.2434 57.9997 23.0004V33.0004C57.9997 35.7574 55.7567 38.0004 52.9997 38.0004H42.9997ZM45.9999 16.179V17.0004L45.9995 15.9806L45.9999 16.179Z" fill="#1D1D1F"/>
</g>
<defs>
<clipPath id="clip0_4017_1611">
<rect width="38" height="54" fill="white" transform="scale(2)"/>
</clipPath>
</defs>
</svg>
