<svg width="76" height="112" viewBox="0 0 76 112" fill="none" xmlns="http://www.w3.org/2000/svg">
<g clip-path="url(#clip0_4017_1595)">
<path d="M28.5916 79.191C28.7396 79.065 28.8876 78.907 29.0356 78.763V100.019C29.0356 101.899 27.6756 103.943 25.4116 103.943C24.9836 103.943 25.1016 103.965 24.6516 103.979C23.1036 104.019 22.4016 103.985 21.4996 103.985C19.5896 103.985 18.0356 101.969 18.0356 100.029V85.441C18.1296 85.411 18.2236 85.401 18.3176 85.373C23.3076 83.773 26.4436 81.053 28.3176 79.429L28.5936 79.191H28.5916ZM29.0356 60.949C30.8156 63.259 31.9516 65.537 31.6356 69.195C31.3336 72.695 29.0076 76.189 27.2856 77.677C25.4556 79.257 22.5456 81.917 17.7076 83.467C16.3505 83.9133 14.9321 84.1454 13.5036 84.155C9.20358 84.155 6.51359 81.875 5.79959 81.073C3.71959 78.741 2.19358 73.747 2.01158 70.757C1.69158 65.445 8.08359 60.831 10.9416 58.949C13.7914 57.1041 17.1147 56.1246 20.5096 56.129C22.0656 56.161 25.5636 56.441 29.0356 60.949ZM8.03758 73.523C6.80758 69.863 5.36759 68.459 4.77359 69.595C3.98359 71.109 4.93958 77.595 7.72558 79.539C8.65558 80.187 9.53558 77.975 8.03758 73.523ZM19.0116 68.451L18.9216 68.327C18.6555 67.9654 18.2571 67.7238 17.8135 67.6548C17.3698 67.5859 16.9169 67.6953 16.5536 67.959L14.8336 69.047C14.4714 69.3132 14.2294 69.712 14.1604 70.1561C14.0914 70.6002 14.2012 71.0536 14.4656 71.417L14.5556 71.539C14.8217 71.9012 15.2205 72.1433 15.6646 72.2122C16.1088 72.2812 16.5621 72.1715 16.9256 71.907L18.6456 70.821C19.0075 70.5546 19.2491 70.1557 19.3177 69.7116C19.3863 69.2675 19.2762 68.8143 19.0116 68.451ZM57.6916 85.371C52.7036 83.773 49.5676 81.053 47.6916 79.429L47.4176 79.189C47.2716 79.063 47.1236 78.907 46.9756 78.763V100.019C46.9756 101.899 48.3356 103.943 50.5996 103.943C51.0276 103.943 50.9096 103.965 51.3596 103.977C52.9096 104.021 53.6096 103.985 54.5116 103.985C56.4236 103.985 57.9756 101.969 57.9756 100.029V85.441C57.8796 85.417 57.7916 85.399 57.6916 85.371ZM73.9996 70.755C74.0196 73.751 72.2916 78.741 70.2136 81.073C69.2876 82.111 66.9936 83.773 64.0936 83.983C63.7696 84.007 63.2796 84.119 62.4476 84.119C61.5456 84.119 60.2396 83.987 58.3036 83.467C53.4696 81.917 50.5556 79.255 48.7276 77.677C47.0036 76.189 44.6796 72.695 44.3776 69.195C44.0596 65.537 45.1976 63.259 46.9776 60.949C50.4476 56.441 53.9476 56.161 55.5036 56.129C55.6636 56.125 55.8296 56.123 56.0036 56.123C57.9756 56.123 60.8916 56.409 64.6636 58.697C67.8596 60.635 72.0176 64.855 72.4476 65.485C73.9996 67.761 73.9976 70.257 73.9996 70.757V70.755ZM61.1796 69.047L59.4596 67.959C59.0961 67.6946 58.6428 67.5849 58.1986 67.6539C57.7545 67.7228 57.3557 67.9649 57.0896 68.327L57.0016 68.451C56.7372 68.8145 56.6274 69.2679 56.6964 69.712C56.7654 70.1561 57.0074 70.5549 57.3696 70.821L59.0876 71.907C59.451 72.1715 59.9044 72.2812 60.3485 72.2122C60.7927 72.1433 61.1914 71.9012 61.4576 71.539L61.5476 71.417C61.812 71.0536 61.9217 70.6002 61.8528 70.1561C61.7838 69.712 61.5418 69.3132 61.1796 69.047ZM71.2396 69.595C70.6456 68.459 69.2056 69.865 67.9756 73.523C66.4756 77.975 67.3576 80.187 68.2876 79.539C71.0736 77.593 72.0296 71.109 71.2396 69.595Z" fill="black"/>
</g>
<defs>
<clipPath id="clip0_4017_1595">
<rect width="38" height="56" fill="white" transform="scale(2)"/>
</clipPath>
</defs>
</svg>
