<svg width="58" height="108" viewBox="0 0 58 108" fill="none" xmlns="http://www.w3.org/2000/svg">
<g clip-path="url(#clip0_4017_1603)">
<path d="M29 45C23.561 45 18.2442 46.6128 13.7218 49.6346C9.19948 52.6563 5.67474 56.9512 3.59333 61.9762C1.51192 67.0012 0.967324 72.5305 2.02842 77.865C3.08951 83.1995 5.70863 88.0995 9.55458 91.9454C13.4005 95.7914 18.3006 98.4105 23.635 99.4716C28.9695 100.533 34.4988 99.9881 39.5238 97.9067C44.5488 95.8253 48.8437 92.3005 51.8654 87.7782C54.8872 83.2558 56.5 77.939 56.5 72.5C56.5 65.2065 53.6027 58.2118 48.4454 53.0546C43.2882 47.8973 36.2935 45 29 45ZM29 96.7C24.2137 96.7 19.5349 95.2807 15.5552 92.6216C11.5755 89.9624 8.47377 86.1829 6.64213 81.7609C4.81049 77.339 4.33125 72.4732 5.26501 67.7788C6.19877 63.0845 8.5036 58.7724 11.888 55.388C15.2725 52.0036 19.5845 49.6988 24.2788 48.765C28.9732 47.8312 33.839 48.3105 38.261 50.1421C42.6829 51.9738 46.4624 55.0755 49.1216 59.0552C51.7807 63.0349 53.2 67.7137 53.2 72.5C53.1926 78.916 50.6406 85.067 46.1038 89.6038C41.567 94.1406 35.416 96.6926 29 96.7ZM29 50.5C24.6488 50.5 20.3953 51.7903 16.7775 54.2077C13.1596 56.6251 10.3398 60.061 8.67466 64.081C7.00953 68.1009 6.57386 72.5244 7.42274 76.792C8.27161 81.0596 10.3669 84.9796 13.4437 88.0564C16.5204 91.1331 20.4404 93.2284 24.708 94.0773C28.9756 94.9262 33.3991 94.4905 37.419 92.8253C41.439 91.1602 44.875 88.3404 47.2923 84.7225C49.7097 81.1047 51 76.8512 51 72.5C51 69.6109 50.431 66.7501 49.3254 64.081C48.2198 61.4118 46.5993 58.9865 44.5564 56.9436C42.5135 54.9008 40.0882 53.2803 37.419 52.1747C34.7499 51.069 31.8891 50.5 29 50.5ZM29.948 63.012C30.2793 62.6073 30.6923 62.2772 31.16 62.0431C31.6277 61.8091 32.1395 61.6765 32.662 61.654C32.7045 62.1792 32.6407 62.7076 32.4744 63.2076C32.3081 63.7076 32.0427 64.1689 31.694 64.564C31.3908 64.9986 30.9836 65.3504 30.5095 65.5873C30.0355 65.8241 29.5096 65.9385 28.98 65.92C28.9306 65.3946 28.9912 64.8647 29.1578 64.3641C29.3245 63.8634 29.5936 63.4029 29.948 63.012ZM35.256 77.968C34.504 79.116 33.642 80.272 32.372 80.272C31.172 80.272 30.756 79.496 29.362 79.496C27.864 79.496 27.41 80.272 26.264 80.272C24.994 80.272 24.126 79.054 23.332 77.918C22.1401 76.1157 21.4764 74.0159 21.416 71.856C21.3625 70.6906 21.631 69.5329 22.192 68.51C22.5842 67.8159 23.1452 67.232 23.8231 66.8125C24.501 66.3929 25.2739 66.1513 26.07 66.11C27.288 66.068 28.332 66.982 29.07 66.982C30.2408 66.5983 31.4398 66.3068 32.656 66.11C33.3317 66.1076 33.9971 66.275 34.5912 66.5968C35.1853 66.9187 35.689 67.3847 36.056 67.952C35.4438 68.3386 34.9383 68.8725 34.5858 69.5049C34.2332 70.1373 34.0449 70.848 34.038 71.572C34.0591 72.3694 34.3055 73.1445 34.7486 73.8077C35.1917 74.471 35.8135 74.9953 36.542 75.32C36.2529 76.2639 35.819 77.1572 35.256 77.968Z" fill="#1D1D1F"/>
</g>
<defs>
<clipPath id="clip0_4017_1603">
<rect width="29" height="54" fill="white" transform="scale(2)"/>
</clipPath>
</defs>
</svg>
