<svg width="6" height="108" viewBox="0 0 6 108" fill="none" xmlns="http://www.w3.org/2000/svg">
<g clip-path="url(#clip0_4017_4997)">
<path d="M3.042 4.11133H2.958C2.3064 4.11344 1.68212 4.37336 1.22156 4.8343C0.760994 5.29524 0.501582 5.91973 0.5 6.57133V89.1233C0.579384 90.1256 0.719643 91.1221 0.92 92.1073C1.156 93.2713 1.662 95.6713 1.662 95.6713L2.512 99.5993C2.53588 99.7113 2.59747 99.8117 2.68648 99.8837C2.77548 99.9557 2.88651 99.995 3.001 99.995C3.11549 99.995 3.22652 99.9557 3.31552 99.8837C3.40453 99.8117 3.46612 99.7113 3.49 99.5993L4.328 95.6813C4.328 95.6813 4.834 93.2813 5.07 92.1173C5.26936 91.1266 5.40895 90.1248 5.488 89.1173V6.57133C5.48644 5.92179 5.22868 5.2991 4.7707 4.8385C4.31272 4.37791 3.69151 4.11659 3.042 4.11133Z" fill="#1D1D1F"/>
</g>
<defs>
<clipPath id="clip0_4017_4997">
<rect width="3" height="54" fill="white" transform="scale(2)"/>
</clipPath>
</defs>
</svg>
