<svg width="28" height="88" viewBox="0 0 28 88" fill="none" xmlns="http://www.w3.org/2000/svg">
<path d="M26.1461 35.3656C25.1043 36.0034 24.2414 36.8951 23.6381 37.9572C23.0348 39.0193 22.7108 40.2171 22.6965 41.4386C22.7006 42.8133 23.1079 44.1566 23.8679 45.3021C24.628 46.4476 25.7073 47.345 26.9723 47.8832C26.4736 49.4923 25.7354 51.0173 24.7827 52.4068C23.4195 54.3692 21.9941 56.3314 19.8253 56.3314C17.6565 56.3314 17.0987 55.0714 14.5993 55.0714C12.1619 55.0714 11.2943 56.3728 9.31132 56.3728C7.32832 56.3728 5.94452 54.555 4.35392 52.3242C2.25286 49.199 1.09814 45.534 1.02832 41.769C1.02832 35.5722 5.05632 32.288 9.02212 32.288C11.1291 32.288 12.8849 33.6718 14.2069 33.6718C15.4669 33.6718 17.4293 32.2052 19.8253 32.2052C21.0573 32.1734 22.2781 32.445 23.3803 32.9961C24.4826 33.5472 25.4324 34.3609 26.1461 35.3656ZM18.6893 29.582C19.7455 28.3395 20.3434 26.7722 20.3831 25.142C20.3849 24.927 20.3641 24.7125 20.3211 24.502C18.5068 24.6792 16.8291 25.5439 15.6321 26.9188C14.5657 28.1117 13.9453 29.6371 13.8763 31.2358C13.8771 31.4302 13.8979 31.624 13.9383 31.8142C14.0814 31.8412 14.2266 31.855 14.3721 31.8556C15.2083 31.789 16.0222 31.5532 16.7643 31.1623C17.5065 30.7715 18.1614 30.2338 18.6893 29.582Z" fill="white" fill-opacity="0.8"/>
</svg>
