<svg width="144" height="108" viewBox="0 0 144 108" fill="none" xmlns="http://www.w3.org/2000/svg">
<g clip-path="url(#clip0_4017_3357)">
<path d="M95.9993 100V85.0002H101.762C101.949 85.4393 102.26 85.814 102.658 86.0773C103.056 86.3407 103.522 86.4811 103.999 86.4811C104.476 86.4811 104.943 86.3407 105.341 86.0773C105.738 85.814 106.05 85.4393 106.236 85.0002H111.999V99.9602L95.9993 100ZM143.999 41.0002V81.0002C143.999 81.7958 143.683 82.5589 143.121 83.1215C142.558 83.6841 141.795 84.0002 140.999 84.0002H66.9993C66.2037 84.0002 65.4406 83.6841 64.878 83.1215C64.3154 82.5589 63.9993 81.7958 63.9993 81.0002V41.0002C63.9993 40.2045 64.3154 39.4415 64.878 38.8788C65.4406 38.3162 66.2037 38.0002 66.9993 38.0002H140.999C141.795 38.0002 142.558 38.3162 143.121 38.8788C143.683 39.4415 143.999 40.2045 143.999 41.0002ZM139.999 42.0002H67.9993V80.0002H139.999V42.0002ZM61.9993 80.3478C62.0012 80.9025 62.0557 81.4557 62.1619 82.0002H3.0571C2.9571 81.9946 2.8553 81.984 2.7553 81.9688C2.33481 81.9055 1.9309 81.76 1.56665 81.5406C1.2024 81.3212 0.88496 81.0322 0.632457 80.69C0.379953 80.3479 0.197338 79.9594 0.0950479 79.5466C-0.00724271 79.1339 -0.0272048 78.705 0.0363024 78.2846V31.4176C-0.0219331 30.9838 0.0149166 30.5426 0.144294 30.1245C0.273671 29.7065 0.492476 29.3215 0.785523 28.9965C1.07857 28.6715 1.43884 28.4141 1.84132 28.2423C2.24381 28.0704 2.67887 27.9882 3.1163 28.0014H89.1393C91.0793 28.0014 91.9993 29.5198 91.9993 31.4176V36.0002H87.9993V32.0002H3.9993V78.0002H61.9993V80.3478ZM33.9993 100H57.9993V83.0002H33.9993V100Z" fill="#1D1D1F"/>
</g>
<defs>
<clipPath id="clip0_4017_3357">
<rect width="72" height="54" fill="white" transform="scale(2)"/>
</clipPath>
</defs>
</svg>
