<svg width="64" height="108" viewBox="0 0 64 108" fill="none" xmlns="http://www.w3.org/2000/svg">
<g clip-path="url(#clip0_4017_5018)">
<path d="M27.2602 51.4607C27.2878 51.1447 27.2435 50.8266 27.1305 50.5303C27.0175 50.2339 26.8388 49.967 26.6078 49.7497C26.3768 49.5323 26.0995 49.3702 25.7968 49.2755C25.4941 49.1807 25.1739 49.1559 24.8602 49.2027H22.6602V53.6787H24.8602C25.1701 53.7238 25.4863 53.699 25.7855 53.6062C26.0846 53.5134 26.3593 53.3549 26.5893 53.1423C26.8194 52.9297 26.999 52.6684 27.1151 52.3774C27.2311 52.0865 27.2807 51.7733 27.2602 51.4607Z" fill="#1D1D1F"/>
<path d="M43.4263 57.7048C44.8403 57.7048 45.7163 56.5868 45.7163 54.7588C45.7163 52.9308 44.8343 51.8008 43.4263 51.8008C42.0183 51.8008 41.1523 52.9188 41.1523 54.7548C41.1523 56.5908 41.9983 57.7048 43.4263 57.7048Z" fill="#1D1D1F"/>
<path d="M62.7321 44.5705C61.9555 42.7305 60.7818 41.0849 59.2951 39.7513C57.8084 38.4178 56.0454 37.4293 54.1321 36.8565C51.6048 36.2253 49.0015 35.9513 46.3981 36.0425H17.5981C14.9947 35.9513 12.3914 36.2253 9.86411 36.8565C7.95084 37.4293 6.1878 38.4178 4.70108 39.7513C3.21437 41.0849 2.04073 42.7305 1.26411 44.5705C0.288557 47.4911 -0.140606 50.5664 -0.0018921 53.6425V82.4425C-0.140468 85.5186 0.28869 88.5939 1.26411 91.5145C2.04073 93.3545 3.21437 95.0001 4.70108 96.3336C6.1878 97.6672 7.95084 98.6557 9.86411 99.2285C12.3914 99.8597 14.9947 100.134 17.5981 100.042H46.3981C49.0015 100.134 51.6048 99.8597 54.1321 99.2285C56.0454 98.6557 57.8084 97.6672 59.2951 96.3336C60.7818 95.0001 61.9555 93.3545 62.7321 91.5145C63.7077 88.5939 64.1368 85.5186 63.9981 82.4425V53.6425C64.1368 50.5664 63.7077 47.4911 62.7321 44.5705ZM42.9501 50.3705C43.4799 50.3496 44.0049 50.4785 44.4648 50.7424C44.9247 51.0063 45.3008 51.3945 45.5501 51.8625H45.6741V47.1885H47.3541V59.0005H45.7541V57.6565H45.6221C45.3544 58.124 44.9639 58.5094 44.493 58.7709C44.022 59.0325 43.4885 59.1603 42.9501 59.1405C40.7861 59.1405 39.4181 57.4365 39.4181 54.7405C39.4181 52.0445 40.7981 50.3705 42.9501 50.3705ZM20.9181 47.7265H25.3321C25.8264 47.7194 26.3171 47.811 26.7755 47.9961C27.2338 48.1812 27.6506 48.456 28.0013 48.8043C28.3521 49.1527 28.6297 49.5675 28.8179 50.0246C29.0062 50.4817 29.1012 50.9718 29.0975 51.4661C29.0938 51.9604 28.9913 52.449 28.7962 52.9032C28.6011 53.3574 28.3173 53.768 27.9613 54.111C27.6054 54.454 27.1845 54.7225 26.7234 54.9007C26.2623 55.0788 25.7702 55.1631 25.2761 55.1485H22.6761V59.0005H20.9181V47.7265ZM17.4181 46.8825C17.627 46.8833 17.831 46.9459 18.0044 47.0625C18.1778 47.179 18.3127 47.3443 18.3923 47.5374C18.4719 47.7306 18.4925 47.943 18.4516 48.1479C18.4106 48.3527 18.3099 48.5409 18.1622 48.6886C18.0145 48.8363 17.8263 48.937 17.6215 48.9779C17.4166 49.0189 17.2042 48.9983 17.0111 48.9187C16.8179 48.8391 16.6526 48.7041 16.5361 48.5308C16.4195 48.3574 16.3569 48.1534 16.3561 47.9445C16.3561 47.6628 16.468 47.3927 16.6672 47.1935C16.8663 46.9944 17.1364 46.8825 17.4181 46.8825ZM18.2541 50.5165V59.0005H16.5821V50.5165H18.2541ZM21.8721 87.3165C15.2821 87.3165 11.1581 82.6925 11.1581 75.3165C11.1581 67.9405 15.2821 63.2945 21.8721 63.2945C28.4621 63.2945 32.5881 67.9345 32.5881 75.3165C32.5881 82.6985 28.4641 87.3165 21.8721 87.3165ZM30.3101 56.6005C30.3101 55.0765 31.4501 54.2005 33.4741 54.0685L35.7781 53.9285V53.2005C35.7781 52.2705 35.1781 51.7465 34.0361 51.7465C33.0981 51.7465 32.4501 52.0985 32.2621 52.7145H30.6381C30.8101 51.2845 32.1841 50.3545 34.1141 50.3545C36.2461 50.3545 37.4501 51.4165 37.4501 53.1985V58.9985H35.8321V57.7985H35.7001C35.4324 58.2294 35.0546 58.5811 34.6057 58.8174C34.1567 59.0536 33.6529 59.1659 33.1461 59.1425C32.789 59.1812 32.4277 59.1443 32.0858 59.0343C31.7439 58.9242 31.4289 58.7435 31.1614 58.5037C30.8939 58.264 30.6799 57.9706 30.5332 57.6427C30.3866 57.3148 30.3105 56.9597 30.3101 56.6005ZM43.3721 87.3065C38.2961 87.3065 34.9141 84.7065 34.6401 80.6825H37.5381C37.8781 83.1805 40.1981 84.6965 43.5381 84.6965C46.6941 84.6965 48.9841 83.0365 48.9841 80.7465C48.9841 78.7965 47.6941 77.5085 44.4721 76.7985L41.8941 76.2345C37.2381 75.2185 35.2221 73.1105 35.2221 69.8045C35.2221 65.9705 38.6061 63.2785 43.4221 63.2785C48.0621 63.2785 51.4221 66.0505 51.5441 69.9985H48.6441C48.5683 69.3794 48.3707 68.7815 48.0627 68.2392C47.7546 67.697 47.3422 67.221 46.8493 66.8389C46.3564 66.4568 45.7927 66.1761 45.1908 66.013C44.5888 65.8499 43.9605 65.8076 43.3421 65.8885C40.4441 65.8885 38.2041 67.3065 38.2041 69.6745C38.2041 71.5125 39.4441 72.7685 42.6181 73.4625L45.1961 74.0265C50.0461 75.0885 51.9641 77.0265 51.9641 80.3125C51.9601 84.6245 48.5761 87.3165 43.3721 87.3165V87.3065Z" fill="#1D1D1F"/>
<path d="M21.8707 65.9668C17.1187 65.9668 14.1367 69.5668 14.1367 75.3128C14.1367 81.0588 17.1187 84.6408 21.8707 84.6408C26.6227 84.6408 29.6047 81.0408 29.6047 75.3128C29.6047 69.5848 26.6247 65.9668 21.8707 65.9668Z" fill="#1D1D1F"/>
<path d="M35.7781 55.1328L33.7001 55.2728C32.5281 55.3508 31.9961 55.7648 31.9961 56.5388C31.9961 57.3128 32.6601 57.7888 33.5741 57.7888C33.8459 57.8125 34.1196 57.7812 34.379 57.6965C34.6383 57.6119 34.8779 57.4757 35.0833 57.2962C35.2888 57.1168 35.4559 56.8976 35.5746 56.652C35.6933 56.4064 35.7611 56.1393 35.7741 55.8668L35.7781 55.1328Z" fill="#1D1D1F"/>
</g>
<defs>
<clipPath id="clip0_4017_5018">
<rect width="32" height="54" fill="white" transform="scale(2)"/>
</clipPath>
</defs>
</svg>
