<svg width="82" height="108" viewBox="0 0 82 108" fill="none" xmlns="http://www.w3.org/2000/svg">
<g clip-path="url(#clip0_4017_4962)">
<path d="M64 12V10C64 9.46957 63.7893 8.96086 63.4142 8.58579C63.0391 8.21071 62.5304 8 62 8H6C5.46957 8 4.96086 8.21071 4.58579 8.58579C4.21071 8.96086 4 9.46957 4 10V94C4 94.5304 4.21071 95.0391 4.58579 95.4142C4.96086 95.7893 5.46957 96 6 96H20C20.0763 96.8203 20.3463 97.6107 20.7879 98.3061C21.2295 99.0016 21.83 99.5821 22.54 100H6C4.4087 100 2.88258 99.3679 1.75736 98.2426C0.632141 97.1174 0 95.5913 0 94L0 10C0 8.4087 0.632141 6.88258 1.75736 5.75736C2.88258 4.63214 4.4087 4 6 4H62C63.5913 4 65.1174 4.63214 66.2426 5.75736C67.3679 6.88258 68 8.4087 68 10V12H64ZM76 14C77.5913 14 79.1174 14.6321 80.2426 15.7574C81.3679 16.8826 82 18.4087 82 20V94C82 95.5913 81.3679 97.1174 80.2426 98.2426C79.1174 99.3679 77.5913 100 76 100H28C26.4087 100 24.8826 99.3679 23.7574 98.2426C22.6321 97.1174 22 95.5913 22 94V20C22 18.4087 22.6321 16.8826 23.7574 15.7574C24.8826 14.6321 26.4087 14 28 14H76ZM78 20C78 19.4696 77.7893 18.9609 77.4142 18.5858C77.0391 18.2107 76.5304 18 76 18H28C27.4696 18 26.9609 18.2107 26.5858 18.5858C26.2107 18.9609 26 19.4696 26 20V94C26 94.5304 26.2107 95.0391 26.5858 95.4142C26.9609 95.7893 27.4696 96 28 96H76C76.5304 96 77.0391 95.7893 77.4142 95.4142C77.7893 95.0391 78 94.5304 78 94V20Z" fill="#1D1D1F"/>
</g>
<defs>
<clipPath id="clip0_4017_4962">
<rect width="41" height="54" fill="white" transform="scale(2)"/>
</clipPath>
</defs>
</svg>
