<svg width="46" height="108" viewBox="0 0 46 108" fill="none" xmlns="http://www.w3.org/2000/svg">
<g clip-path="url(#clip0_4017_4983)">
<path fill-rule="evenodd" clip-rule="evenodd" d="M4.6 34C2.0594 34 0 36.0616 0 38.6046V95.3952C0 97.9384 2.0594 100 4.6 100H41.4C43.9406 100 46 97.9384 46 95.3954V38.6046C46 36.0616 43.9406 34 41.4 34H4.6ZM42 94.5128C42 95.3342 41.3456 96 40.5384 96H5.4616C4.6544 96 4 95.3342 4 94.5128V39.4872C4 38.6658 4.6544 38 5.4616 38H40.5386C41.3456 38 42 38.6658 42 39.4872V94.5128Z" fill="#1D1D1F"/>
</g>
<defs>
<clipPath id="clip0_4017_4983">
<rect width="23" height="54" fill="white" transform="scale(2)"/>
</clipPath>
</defs>
</svg>
