<svg width="76" height="112" viewBox="0 0 76 112" fill="none" xmlns="http://www.w3.org/2000/svg">
<g clip-path="url(#clip0_4017_1558)">
<path d="M33.4963 103.911C33.1613 103.946 32.7972 103.969 32.3844 103.982C31.889 103.998 31.2757 104 30.7052 104C30.6259 104 30.5473 104 30.4699 104H9.53065C9.45325 104 9.37445 104 9.29485 104C8.72445 104 8.11145 103.998 7.61585 103.982C6.78765 103.955 6.15385 103.89 5.56125 103.768C4.85865 103.625 4.23405 103.404 3.65125 103.094C3.05085 102.775 2.50805 102.363 2.03765 101.872C1.56725 101.381 1.17345 100.814 0.867449 100.187C0.570649 99.5786 0.359449 98.9262 0.221849 98.1922C0.106049 97.5742 0.042849 96.9126 0.017249 96.0464C-0.000351045 95.4532 4.89536e-05 94.6994 4.89536e-05 94.0344V93.8234V28.177V27.966C-0.000151046 27.301 -0.000551045 26.5476 0.017249 25.9544C0.042849 25.0878 0.106049 24.426 0.221849 23.8086C0.359249 23.075 0.570449 22.4226 0.867449 21.8138C1.17345 21.1868 1.56705 20.62 2.03765 20.1286C2.50805 19.637 3.05105 19.2258 3.65125 18.9064C4.23405 18.5964 4.85885 18.3758 5.56125 18.2324C6.15245 18.1114 6.78625 18.0454 7.61585 18.0182C8.10245 18.0026 8.70185 18.0004 9.26425 18.0004H9.53445H9.74425H30.0268C30.025 18.0508 30.0201 18.0888 30.0184 18.1404C30.0021 18.6832 30.0007 19.362 30.0007 19.9804H9.53325L9.26425 19.9802C8.72365 19.9802 8.14765 19.982 7.67985 19.997C6.96705 20.0202 6.43605 20.0742 5.95825 20.172C5.44425 20.2768 4.99425 20.4346 4.58185 20.654C4.16785 20.8744 3.79325 21.1582 3.46865 21.4974C3.13925 21.8412 2.86325 22.2394 2.64745 22.6818C2.42965 23.1286 2.27285 23.6164 2.16865 24.1728C2.07245 24.6854 2.01965 25.2528 1.99705 26.0128C1.98005 26.5842 1.98045 27.3086 1.98065 27.95V94.035C1.98045 94.6914 1.97985 95.4158 1.99705 95.987C2.01965 96.7472 2.07245 97.3146 2.16865 97.827C2.27305 98.384 2.42965 98.8718 2.64745 99.3184C2.86325 99.7604 3.13945 100.159 3.46845 100.502C3.79325 100.842 4.16785 101.125 4.58205 101.346C4.99425 101.565 5.44445 101.723 5.95865 101.828C6.43685 101.926 6.96785 101.98 7.68005 102.003C8.15765 102.019 8.74705 102.02 9.29545 102.02H9.41185L9.53105 102.02H30.5894L30.7057 102.02C31.0511 102.02 31.4029 102.018 31.7421 102.014C32.0233 102.429 32.3308 102.823 32.677 103.183C32.9312 103.448 33.2121 103.682 33.4963 103.911ZM24.1551 21.0006H15.8084C14.7992 21.0114 13.9894 21.871 14 22.9202C14.0104 23.954 14.814 24.7894 15.8084 24.8002H24.1532C25.1624 24.8112 25.9893 23.9696 25.9998 22.9202C26.0104 21.8708 25.2008 21.0114 24.1915 21.0006C24.1795 21.0004 24.1672 21.0004 24.1551 21.0006ZM58.1722 13.0004C59.1814 13.0004 59.9995 13.851 59.9995 14.9004C59.9995 15.9498 59.1814 16.8004 58.1722 16.8004H49.8259C48.8167 16.7998 47.9991 15.9488 47.9996 14.8994C48.0002 13.85 48.8186 12.9998 49.8279 13.0004H58.1722ZM66.6422 12.0004L66.2252 12.0014H41.493H41.3209L40.6465 12.005H40.6427C40.4002 12.0078 40.157 12.0108 39.947 12.0176C39.2166 12.0418 38.6722 12.0974 38.1847 12.1972C37.6445 12.307 37.1721 12.472 36.7374 12.7022C36.3007 12.934 35.9042 13.2332 35.5608 13.5904C35.2138 13.9514 34.9222 14.3702 34.6942 14.8352C34.4662 15.3006 34.3027 15.8078 34.194 16.3856C34.0948 16.9116 34.0402 17.4896 34.0168 18.2616C34 18.8188 34.0005 19.5354 34.0005 20.1564V93.7838C34.0005 94.4668 34 95.1828 34.0168 95.7408C34.0394 96.5082 34.094 97.0858 34.1936 97.6146C34.3024 98.1934 34.4662 98.7012 34.6946 99.1678C34.9218 99.6316 35.2131 100.05 35.5606 100.412C35.904 100.769 36.3004 101.068 36.7388 101.3C37.1722 101.53 37.6445 101.695 38.1819 101.804C38.674 101.905 39.2184 101.96 39.9484 101.984C40.4382 102 41.0545 102.001 41.6101 102.001H66.5708H66.6812L67.3186 101.997C67.6047 101.994 67.8428 101.991 68.0516 101.984C68.7828 101.96 69.327 101.905 69.8168 101.805C70.3567 101.695 70.8292 101.53 71.264 101.3C71.7008 101.068 72.0972 100.769 72.4406 100.412C72.7882 100.05 73.0794 99.6318 73.3064 99.1678C73.5352 98.701 73.6989 98.1938 73.8074 97.616C73.9062 97.0934 73.9608 96.5152 73.9846 95.739C73.9934 95.4396 73.9968 95.0906 73.9986 94.7352L74.0002 93.789V20.2124L73.9986 19.2686C73.9968 18.911 73.9934 18.5618 73.9844 18.2592C73.9606 17.4858 73.9062 16.908 73.8078 16.3886C73.6988 15.8078 73.535 15.3 73.3066 14.8334C73.0792 14.3698 72.7876 13.951 72.4406 13.5902C72.097 13.233 71.7008 12.9338 71.2624 12.7014C70.829 12.4716 70.3568 12.3066 69.8194 12.1974C69.329 12.097 68.7844 12.0416 68.0508 12.0172C67.6374 12.004 67.1272 12.0004 66.6422 12.0004ZM66.6422 10.0004C67.1492 10.0004 67.6822 10.0046 68.117 10.0186C68.9656 10.0468 69.6134 10.114 70.2174 10.2378C70.9454 10.3858 71.5938 10.6138 72.199 10.9346C72.8246 11.2664 73.3913 11.6936 73.882 12.2042C74.3728 12.7146 74.7836 13.304 75.1026 13.9542C75.4112 14.5846 75.6304 15.259 75.7726 16.0168C75.8914 16.6446 75.956 17.3184 75.9832 18.2012C75.9924 18.5184 75.9962 18.8842 75.9982 19.257C75.9982 19.2566 75.9982 19.2574 75.9982 19.257C75.9982 19.2574 75.9982 19.259 75.9982 19.2594C75.9998 19.582 75.9998 19.91 75.9998 20.2126V93.7888C75.9998 94.0918 75.9998 94.42 75.9982 94.7426C75.9982 94.7422 75.9982 94.743 75.9982 94.7426C75.9982 94.743 75.9982 94.7444 75.9982 94.745C75.9964 95.1174 75.9924 95.483 75.9832 95.8002C75.9562 96.6828 75.8914 97.3568 75.7726 97.9852C75.6304 98.7424 75.4112 99.4168 75.1026 100.046C74.7836 100.698 74.3728 101.287 73.882 101.798C73.3913 102.308 72.8246 102.735 72.1996 103.067C71.5936 103.388 70.9452 103.616 70.2166 103.764C69.6112 103.888 68.9634 103.955 68.1168 103.982C67.894 103.99 67.64 103.993 67.3828 103.996C67.3816 103.996 67.3808 103.997 67.3796 103.997C67.3784 103.997 67.3778 103.996 67.3766 103.996C67.0998 103.999 66.9575 104 66.6806 104H66.5428C66.493 104 66.4398 104 66.3908 104H41.6096C41.0321 104 40.3917 103.999 39.8829 103.982C39.0367 103.955 38.3888 103.888 37.7828 103.764C37.055 103.616 36.4065 103.388 35.8013 103.067C35.1757 102.735 34.609 102.308 34.1182 101.798C33.6274 101.287 33.2166 100.698 32.8976 100.047C32.589 99.4166 32.3699 98.7422 32.2276 97.985C32.1082 97.3514 32.0428 96.6782 32.017 95.8006C31.9992 95.2062 31.9998 94.4382 31.9998 93.7836V20.2182C31.9998 19.5636 31.9992 18.795 32.017 18.2012C32.0434 17.3236 32.1082 16.6492 32.2276 16.0162C32.3699 15.259 32.5892 14.5846 32.8976 13.9548C33.2166 13.304 33.6274 12.7146 34.1182 12.2042C34.609 11.6936 35.1756 11.2664 35.8006 10.9346C36.4066 10.6136 37.055 10.3856 37.7828 10.2378C38.387 10.1142 39.0349 10.0468 39.8829 10.0186C40.1053 10.0116 40.3624 10.0082 40.6189 10.0052C40.6183 10.0052 40.6194 10.0052 40.6189 10.0052C40.6194 10.0052 40.6215 10.0052 40.6221 10.0052C40.8561 10.0026 41.0864 10.0014 41.3204 10.0014H41.4571H41.4926C41.5644 10.0014 41.6376 10.001 41.7085 10.001H41.7836H66.2164C66.3542 10.0004 66.4972 10.0004 66.6422 10.0004Z" fill="black"/>
</g>
<defs>
<clipPath id="clip0_4017_1558">
<rect width="38" height="56" fill="white" transform="scale(2)"/>
</clipPath>
</defs>
</svg>
