<svg width="76" height="112" viewBox="0 0 76 112" fill="none" xmlns="http://www.w3.org/2000/svg">
<g clip-path="url(#clip0_4017_1549)">
<path d="M33.2676 103.943C33.0686 103.957 32.8816 103.976 32.6602 103.983C32.1806 103.999 31.5652 104 30.8014 104H9.19884C8.43484 104 7.81964 103.999 7.34004 103.983C6.57884 103.958 5.96304 103.892 5.40204 103.777C4.72304 103.637 4.11864 103.424 3.55424 103.126C2.96904 102.817 2.44024 102.42 1.98244 101.945C1.52424 101.47 1.14104 100.922 0.843243 100.316C0.556043 99.7308 0.350643 99.1042 0.215643 98.4C0.104043 97.8172 0.0410434 97.179 0.0166434 96.3908C-0.000356615 95.8378 4.33861e-05 95.1112 4.33861e-05 94.1916V25.8086C-0.000156614 24.889 -0.000356613 24.1624 0.0164434 23.6094C0.0410434 22.82 0.104243 22.1818 0.215443 21.6004C0.350443 20.8962 0.555843 20.2694 0.843043 19.6846C1.14124 19.0776 1.52444 18.5294 1.98224 18.055C2.44044 17.5802 2.96924 17.1828 3.55404 16.874C4.11844 16.576 4.72284 16.363 5.40184 16.2232C5.96304 16.1078 6.57884 16.0422 7.33984 16.017C7.85784 16.0002 8.53444 15.9998 9.38464 15.9998H9.79324H30.011C30.0026 16.5052 29.9998 17.0884 30 17.8264V17.9798H9.47244C9.44664 17.9798 9.42084 17.9798 9.39524 17.9798C8.52424 17.9798 7.89204 17.98 7.40464 17.996C6.75924 18.0172 6.24964 18.0702 5.80124 18.1626C5.30804 18.2642 4.87544 18.4154 4.47904 18.6248C4.07964 18.8356 3.71924 19.1062 3.40744 19.4296C3.09244 19.756 2.82764 20.1354 2.62024 20.5576C2.41184 20.9818 2.26124 21.4448 2.15984 21.9732C2.06884 22.4488 2.01644 22.9884 1.99544 23.6708C1.97904 24.2074 1.97964 24.9138 1.97984 25.8082V94.1918C1.97964 95.0864 1.97904 95.7928 1.99544 96.3304C2.01624 97.0108 2.06864 97.5502 2.16004 98.0272C2.26124 98.555 2.41184 99.0182 2.62024 99.4422C2.82724 99.864 3.09204 100.243 3.40724 100.57C3.71884 100.893 4.07944 101.164 4.47864 101.375C4.87544 101.585 5.30784 101.736 5.80084 101.837C6.24964 101.93 6.75964 101.983 7.40544 102.004C7.86764 102.019 8.46164 102.02 9.19884 102.02H30.8014C31.0782 102.02 31.3154 102.019 31.5524 102.018C31.8552 102.488 32.1858 102.937 32.5738 103.335C32.7892 103.556 33.0298 103.748 33.2676 103.943ZM24.3282 19.0004H15.6338C14.5826 19.0112 13.7392 19.8708 13.7502 20.92C13.761 21.9538 14.5982 22.7892 15.6338 22.8H24.3264C25.3778 22.811 26.2388 21.9694 26.2498 20.92C26.2608 19.8706 25.4174 19.0112 24.3662 19.0004C24.3536 19.0002 24.3408 19.0002 24.3282 19.0004ZM41.2174 10.0002H41.5762L41.9142 10.0004H66.5124H66.5834C67.38 10.0004 68.0162 10.0006 68.5058 10.0164C69.1604 10.038 69.6772 10.0912 70.1326 10.1842C70.6336 10.2864 71.0728 10.4384 71.4756 10.6492C71.8796 10.8604 72.2446 11.132 72.561 11.4566C72.8782 11.782 73.1454 12.1612 73.3542 12.5814C73.5644 13.0056 73.7162 13.4678 73.8182 13.9936C73.9102 14.4692 73.9628 15.0078 73.984 15.6884C74.0006 16.2272 74.0002 16.9364 73.9998 17.8352V94.166C74.0002 95.0638 74.0006 95.7732 73.984 96.3118C73.9628 96.9928 73.9102 97.5314 73.8184 98.006C73.7162 98.533 73.5644 98.9948 73.3552 99.4168C73.1456 99.8388 72.8783 100.218 72.5604 100.544C72.2446 100.869 71.8798 101.14 71.4748 101.352C71.0726 101.562 70.6336 101.714 70.1326 101.816C69.6776 101.909 69.1606 101.962 68.5066 101.984C68.0448 101.999 67.4538 102 66.7212 102H66.5762H66.4202H41.4236H41.2786C40.546 102 39.955 101.999 39.4942 101.984C38.8394 101.962 38.3224 101.909 37.8672 101.816C37.3662 101.714 36.9274 101.562 36.5242 101.351C36.12 101.14 35.7552 100.868 35.4396 100.544C35.1214 100.217 34.854 99.8386 34.645 99.417C34.4352 98.9942 34.2836 98.533 34.1818 98.0068C34.0898 97.531 34.037 96.9922 34.016 96.3112C33.9992 95.7742 33.9998 95.0682 34.0002 94.1742V93.8214V18.1782V17.8256C33.9998 16.9318 33.9992 16.2256 34.016 15.6884C34.0372 15.0074 34.0898 14.4688 34.1818 13.9934C34.2836 13.467 34.4354 13.0054 34.6452 12.5826C34.8544 12.161 35.1218 11.7818 35.4396 11.4556C35.7552 11.1316 36.1202 10.8602 36.525 10.6484C36.9274 10.4378 37.3666 10.2858 37.8674 10.1836C38.3228 10.0908 38.8398 10.0374 39.4932 10.0158C39.9418 10.0012 40.5126 10.0002 41.2174 10.0002ZM41.2174 8.0002C40.4862 8.0002 39.8938 8.0024 39.4284 8.0174C38.6586 8.0428 38.0356 8.1086 37.4676 8.2244C36.7804 8.3646 36.1688 8.578 35.5976 8.8768C35.0054 9.1864 34.4702 9.5846 34.0066 10.0606C33.5436 10.536 33.1556 11.0854 32.8536 11.6936C32.5624 12.2802 32.3546 12.9084 32.2182 13.6136C32.1054 14.1966 32.0414 14.8364 32.017 15.6266C31.9998 16.1794 32 16.9062 32.0002 17.8264V18.1788V93.8216V94.174C31.9998 95.0942 31.9998 95.821 32.017 96.3738C32.0416 97.1638 32.1056 97.8034 32.2182 98.3868C32.3546 99.092 32.5624 99.7202 32.8536 100.307C33.1552 100.915 33.5432 101.464 34.0066 101.94C34.4704 102.416 35.0056 102.814 35.5974 103.124C36.1686 103.423 36.7804 103.636 37.4674 103.776C38.0352 103.892 38.6584 103.958 39.4282 103.983C39.9066 103.999 40.519 104 41.2784 104H41.5794H66.42H66.721C67.4802 104 68.0928 103.999 68.5714 103.983C69.3412 103.958 69.9642 103.892 70.532 103.776C71.219 103.636 71.8308 103.423 72.4022 103.124C72.9942 102.814 73.5292 102.416 73.993 101.94C74.4562 101.464 74.844 100.915 75.1462 100.307C75.437 99.7202 75.6448 99.0922 75.7816 98.3868C75.8946 97.8032 75.9585 97.1636 75.9828 96.3738C76 95.8192 76 95.0892 75.9996 94.1652V17.8352C76 16.911 76 16.181 75.9828 15.6266C75.9585 14.8368 75.8944 14.1972 75.7816 13.6136C75.6448 12.9082 75.4369 12.2802 75.1462 11.6934C74.8438 11.085 74.456 10.5354 73.993 10.0604C73.5294 9.5846 72.9944 9.1862 72.4022 8.8766C71.831 8.5778 71.2192 8.3644 70.532 8.2242C69.9642 8.1084 69.3414 8.0426 68.5714 8.0172C68.0497 8.0004 67.3688 8.0002 66.5122 8.0002H66.0856H41.914H41.5768C41.4534 8.0002 41.3338 8.0002 41.2174 8.0002ZM58.3482 11.0002H49.6544C48.6032 10.9996 47.7506 11.8498 47.75 12.8992C47.7494 13.9486 48.6012 14.7996 49.6524 14.8002H58.3466C59.3978 14.8002 60.25 13.9496 60.25 12.9002C60.25 11.8508 59.3994 11.0002 58.3482 11.0002Z" fill="black"/>
</g>
<defs>
<clipPath id="clip0_4017_1549">
<rect width="38" height="56" fill="white" transform="scale(2)"/>
</clipPath>
</defs>
</svg>
