<svg width="90" height="108" viewBox="0 0 90 108" fill="none" xmlns="http://www.w3.org/2000/svg">
<g clip-path="url(#clip0_4017_1588)">
<path d="M29 26H11C8.08369 26.0035 5.28783 27.1635 3.22568 29.2257C1.16354 31.2878 0.00349329 34.0837 0 37L0 89C0.00365171 91.9163 1.16375 94.712 3.22586 96.7741C5.28797 98.8363 8.08374 99.9963 11 100H29C31.9163 99.9963 34.712 98.8363 36.7741 96.7741C38.8363 94.712 39.9963 91.9163 40 89V37C39.9965 34.0837 38.8365 31.2878 36.7743 29.2257C34.7122 27.1635 31.9163 26.0035 29 26ZM36 89C35.9978 90.8558 35.2596 92.635 33.9473 93.9473C32.635 95.2596 30.8558 95.9978 29 96H11C9.14417 95.9978 7.36498 95.2596 6.05271 93.9473C4.74043 92.635 4.00222 90.8558 4 89V37C4.00222 35.1442 4.74043 33.365 6.05271 32.0527C7.36498 30.7404 9.14417 30.0022 11 30H29C30.8558 30.0022 32.635 30.7404 33.9473 32.0527C35.2596 33.365 35.9978 35.1442 36 37V89ZM88 73H90V85H88V73ZM64 26H76V28H64V26ZM88 57H90V69H88V57ZM64 98H76V100H64V98ZM52 69H50V57H52V69ZM52 53H50V41H52V53ZM52 85H50V73H52V85ZM80 28.1V26.0506C82.7311 26.3025 85.2698 27.5645 87.1194 29.5897C88.969 31.6148 89.9962 34.2573 90 37H88C87.9958 34.7919 87.1774 32.663 85.7012 31.0208C84.2251 29.3786 82.1952 28.3386 80 28.1ZM88 89H90C89.9962 91.7427 88.969 94.3852 87.1194 96.4103C85.2698 98.4355 82.7311 99.6975 80 99.9494V97.9C82.1952 97.6614 84.2251 96.6214 85.7012 94.9792C87.1774 93.337 87.9958 91.2081 88 89ZM60 26.0506V28.1C57.8049 28.3386 55.7749 29.3786 54.2988 31.0208C52.8226 32.663 52.0042 34.7919 52 37H50C50.0038 34.2573 51.031 31.6148 52.8806 29.5897C54.7302 27.5645 57.2689 26.3025 60 26.0506ZM60 97.9V99.9502C57.2688 99.6983 54.7299 98.4362 52.8803 96.4109C51.0307 94.3855 50.0036 91.7428 50 89H52C52.0042 91.2081 52.8226 93.337 54.2988 94.9792C55.7749 96.6214 57.8049 97.6614 60 97.9ZM88 41H90V53H88V41Z" fill="#1D1D1F"/>
</g>
<defs>
<clipPath id="clip0_4017_1588">
<rect width="45" height="54" fill="white" transform="scale(2)"/>
</clipPath>
</defs>
</svg>
