<svg width="76" height="108" viewBox="0 0 76 108" fill="none" xmlns="http://www.w3.org/2000/svg">
<g clip-path="url(#clip0_4017_1573)">
<path d="M28.6856 98.0001H10.9698H10.314C9.43633 98.0218 8.5585 97.9636 7.6914 97.8261C7.23987 97.7425 6.80227 97.5961 6.3914 97.3911C5.62369 97.0024 5.00009 96.3788 4.6114 95.6111C4.40618 95.2003 4.25975 94.7627 4.1764 94.3111C4.09457 93.8699 4.04524 93.4233 4.0288 92.9749C4.004 92.4679 4.002 91.9193 4.001 91.3969V22.4383C4.001 21.9163 4.004 21.3675 4.0288 20.8583C4.04536 20.4113 4.09449 19.9661 4.1758 19.5263C4.2594 19.0743 4.40603 18.6363 4.6114 18.2251C4.99983 17.4572 5.6235 16.8335 6.3914 16.4451C6.80253 16.2395 7.24057 16.093 7.6926 16.0097C8.23777 15.9113 8.79009 15.8578 9.344 15.8497C9.8078 15.8353 10.3908 15.8343 10.9196 15.8343H11.7336H13.7598C13.8387 15.8342 13.9168 15.8496 13.9897 15.8797C14.0626 15.9098 14.1289 15.9539 14.1847 16.0097C14.2405 16.0654 14.2848 16.1316 14.315 16.2044C14.3452 16.2773 14.3608 16.3554 14.3608 16.4343V17.2143C14.3617 17.7453 14.5735 18.2542 14.9496 18.6291C15.3256 19.0039 15.8352 19.2141 16.3662 19.2133H27.0024V15.6707V14.8729C27.0024 14.5293 27.0152 14.3495 27.0224 14.0003H11.3336L10.9184 14.0001C10.3692 14.0001 9.7628 14.0015 9.2808 14.0165C8.6233 13.9741 7.96346 13.9844 7.3076 14.0473C6.67338 14.1662 6.05899 14.3736 5.4824 14.6633C4.33796 15.2434 3.40823 16.1732 2.8282 17.3177C2.53854 17.8942 2.33112 18.5086 2.212 19.1427C2.11242 19.6776 2.05167 20.219 2.0302 20.7627C2.004 21.2997 2.001 21.8815 2 22.4347V23.1687V90.6663V91.4007C2 91.9535 2.004 92.5353 2.0302 93.0725C2.05167 93.6162 2.11243 94.1576 2.212 94.6925C2.33109 95.3267 2.53851 95.9411 2.8282 96.5177C3.40856 97.6619 4.3382 98.5916 5.4824 99.1721C6.05906 99.4616 6.67343 99.669 7.3076 99.7881C8.29814 99.9521 9.30184 100.023 10.3056 100C10.5255 100 10.7469 100 10.9698 100H30.5698C29.8236 99.4554 29.1849 98.7773 28.6856 98.0001ZM18.7574 14.8389C18.7575 14.7684 18.7856 14.7009 18.8354 14.6511C18.8852 14.6013 18.9528 14.5733 19.0232 14.5733H25.192C25.2625 14.5733 25.3301 14.6013 25.38 14.6511C25.4299 14.7009 25.458 14.7684 25.4582 14.8389V14.8801C25.458 14.9506 25.4299 15.0182 25.38 15.068C25.3301 15.1178 25.2625 15.1458 25.192 15.1459H19.0232C18.9527 15.1458 18.8851 15.1178 18.8353 15.068C18.7855 15.0181 18.7575 14.9506 18.7574 14.8801V14.8389ZM15.6856 16.6001C15.7744 16.453 15.9023 16.3335 16.0549 16.2546C16.2076 16.1758 16.3791 16.1408 16.5504 16.1535C16.7754 16.1722 16.9851 16.2748 17.138 16.441C17.2909 16.6071 17.3758 16.8246 17.3758 17.0504C17.3758 17.2762 17.2909 17.4937 17.138 17.6598C16.9851 17.826 16.7754 17.9286 16.5504 17.9473C16.3857 17.9631 16.2199 17.9333 16.0711 17.861C15.9222 17.7887 15.7962 17.6768 15.7069 17.5376C15.6175 17.3984 15.5682 17.2372 15.5645 17.0718C15.5607 16.9064 15.6026 16.7432 15.6856 16.6001ZM73.9998 15.3761C73.9988 14.7725 73.9954 14.1375 73.967 13.5515C73.9439 12.9582 73.8776 12.3674 73.7688 11.7837C73.6392 11.0927 73.4132 10.4233 73.0974 9.79509C72.4656 8.54784 71.4524 7.53466 70.2052 6.90289C69.577 6.58719 68.9076 6.36119 68.2166 6.23149C67.1265 6.05199 66.022 5.97486 64.9176 6.00109C64.6272 6.00109 64.3342 6.00109 64.0376 6.00109H40.1702H39.717C39.119 6.00109 38.4582 6.00289 37.9334 6.01909C37.2121 6.03196 36.4931 6.10332 35.7834 6.23249C35.0924 6.36209 34.423 6.5881 33.7948 6.90389C32.5476 7.53566 31.5344 8.54884 30.9026 9.79609C30.5868 10.4243 30.3608 11.0937 30.2312 11.7847C30.1222 12.3683 30.0559 12.9592 30.033 13.5525C30.0208 13.8041 30.0238 14.0725 30.0188 14.3359C30.013 14.6857 30.0008 15.0327 30.0002 15.3771V16.1715V89.8315C30.0002 90.0999 30.0002 90.3647 30.0002 90.6259C30.0012 91.2295 30.0046 91.8645 30.033 92.4503C30.056 93.0437 30.1222 93.6347 30.2312 94.2185C30.3609 94.9094 30.5869 95.5788 30.9026 96.2069C31.2169 96.8264 31.6271 97.3923 32.118 97.8837C32.1732 97.9387 32.238 97.9817 32.2952 98.0347C32.743 98.4579 33.2479 98.8163 33.7952 99.0995C34.4234 99.4151 35.0928 99.6409 35.7838 99.7705C36.4211 99.8853 37.0662 99.9514 37.7136 99.9685C38.1676 99.9871 38.6238 99.9989 39.0828 100.001C39.2969 100.002 39.5129 100.002 39.7306 100.001H63.8306H64.2862C64.8838 100.001 65.543 99.9989 66.0674 99.9827C66.7887 99.9699 67.5077 99.8986 68.2174 99.7693C68.9084 99.6396 69.5777 99.4138 70.206 99.0983C71.453 98.466 72.4661 97.4528 73.0982 96.2057C73.4139 95.5776 73.6399 94.9082 73.7696 94.2173C73.8784 93.6335 73.9447 93.0425 73.9678 92.4491C73.9962 91.8633 73.9996 91.2291 74.0006 90.6247C74.0006 90.3631 74.0006 90.0983 74.0006 89.8303V16.1705C73.9998 15.9021 73.9998 15.6379 73.9998 15.3761ZM48.5422 7.18569C48.5423 7.11526 48.5703 7.04774 48.6201 6.99794C48.6698 6.94814 48.7374 6.92014 48.8078 6.92009H54.9768C55.0472 6.92019 55.1147 6.94821 55.1645 6.998C55.2143 7.04778 55.2423 7.11528 55.2424 7.18569V7.22729C55.2423 7.29773 55.2144 7.36528 55.1646 7.41511C55.1148 7.46494 55.0472 7.49298 54.9768 7.49309H48.8078C48.7373 7.49303 48.6698 7.46501 48.62 7.41517C48.5702 7.36532 48.5422 7.29775 48.5422 7.22729V7.18569ZM45.57 8.86109C45.6526 8.72445 45.7689 8.61132 45.9077 8.53255C46.0466 8.45379 46.2034 8.41203 46.363 8.41129L46.4352 8.41449C46.6602 8.43321 46.8699 8.53582 47.0228 8.70195C47.1757 8.86808 47.2606 9.08561 47.2606 9.31139C47.2606 9.53716 47.1757 9.75469 47.0228 9.92082C46.8699 10.087 46.6602 10.1896 46.4352 10.2083L46.3638 10.2115C46.2046 10.214 46.0475 10.1742 45.9087 10.0962C45.7699 10.0182 45.6542 9.90481 45.5735 9.76751C45.4929 9.63021 45.4501 9.47397 45.4495 9.31472C45.449 9.15548 45.4903 8.99894 45.57 8.86109ZM71.9998 89.8297V90.6209C71.9998 91.1935 71.9934 91.7959 71.9666 92.3529C71.9482 92.8495 71.8938 93.3442 71.8036 93.8329C71.7095 94.3417 71.544 94.8347 71.3122 95.2973C70.8724 96.1672 70.166 96.8736 69.2962 97.3135C68.8337 97.5449 68.341 97.7099 67.8324 97.8037C67.2289 97.9128 66.6174 97.9722 66.0042 97.9811C65.4984 97.9967 64.8616 98.0011 64.2842 98.0011H39.7302L39.0896 98.0001C38.6077 97.9982 38.1372 97.9867 37.678 97.9655C37.1712 97.9479 36.6663 97.8937 36.1672 97.8035C35.6587 97.7096 35.1659 97.5447 34.7034 97.3135C33.8335 96.8731 33.1269 96.1664 32.6868 95.2963C32.4552 94.8336 32.2899 94.3405 32.196 93.8317C32.1055 93.343 32.051 92.8484 32.033 92.3517C32.0062 91.7959 31.9998 91.1935 31.9998 90.6201V89.7429V16.1705V15.3801C31.9998 15.0349 32.0144 14.6861 32.0208 14.3357C32.0256 14.1049 32.0222 13.8691 32.033 13.6479C32.051 13.1512 32.1056 12.6565 32.1966 12.1679C32.2903 11.659 32.4555 11.1659 32.6874 10.7033C33.127 9.83332 33.8334 9.12686 34.7034 8.68729C35.1659 8.45597 35.6587 8.29088 36.1672 8.19689C36.7708 8.08808 37.3822 8.02882 37.9954 8.01969C38.5022 8.00409 39.1394 8.00269 39.717 8.00269H39.952H41.6536L43.5422 8.00389C43.6211 8.00368 43.6993 8.01904 43.7723 8.0491C43.8453 8.07916 43.9116 8.12332 43.9675 8.17906C44.0234 8.23479 44.0677 8.30101 44.098 8.37391C44.1282 8.44681 44.1438 8.52496 44.1438 8.60389V9.38389C44.144 9.64687 44.1961 9.90723 44.297 10.1501C44.3979 10.3929 44.5456 10.6135 44.7318 10.7993C44.918 10.985 45.1389 11.1322 45.382 11.2325C45.6251 11.3329 45.8856 11.3843 46.1486 11.3839H57.7486C58.2753 11.3846 58.7811 11.1778 59.1564 10.8082C59.5317 10.4387 59.7462 9.93614 59.7536 9.40949L59.7634 8.59789C59.7657 8.43993 59.8301 8.28924 59.9426 8.17838C60.0552 8.06753 60.2068 8.00542 60.3648 8.00549H62.3982V8.00249H64.0364H64.9094C65.8876 7.97815 66.8659 8.04282 67.8324 8.19569C68.341 8.28956 68.8337 8.45465 69.2962 8.68609C70.1663 9.12617 70.8729 9.83291 71.3128 10.7031C71.5443 11.1653 71.7094 11.6579 71.803 12.1663C71.8937 12.655 71.9483 13.1496 71.9666 13.6463C71.9934 14.2023 71.9994 14.8049 71.9998 15.3781V16.2553V89.8297Z" fill="#1D1D1F"/>
</g>
<defs>
<clipPath id="clip0_4017_1573">
<rect width="38" height="54" fill="white" transform="scale(2)"/>
</clipPath>
</defs>
</svg>
