<svg width="38" height="108" viewBox="0 0 38 108" fill="none" xmlns="http://www.w3.org/2000/svg">
<g clip-path="url(#clip0_4017_1580)">
<path d="M32 20H6C4.41016 20.0047 2.8868 20.6384 1.7626 21.7626C0.638414 22.8868 0.00474818 24.4102 0 26L0 94C0.00474818 95.5898 0.638414 97.1132 1.7626 98.2374C2.8868 99.3616 4.41016 99.9953 6 100H32C33.5898 99.9953 35.1132 99.3616 36.2374 98.2374C37.3616 97.1132 37.9953 95.5898 38 94V26C37.9953 24.4102 37.3616 22.8868 36.2374 21.7626C35.1132 20.6384 33.5898 20.0047 32 20ZM14.5 24.5H23.5C23.6326 24.5 23.7598 24.5527 23.8536 24.6464C23.9473 24.7402 24 24.8674 24 25C24 25.1326 23.9473 25.2598 23.8536 25.3536C23.7598 25.4473 23.6326 25.5 23.5 25.5H14.5C14.3674 25.5 14.2402 25.4473 14.1464 25.3536C14.0527 25.2598 14 25.1326 14 25C14 24.8674 14.0527 24.7402 14.1464 24.6464C14.2402 24.5527 14.3674 24.5 14.5 24.5ZM11 24.25C11.1483 24.25 11.2933 24.294 11.4167 24.3764C11.54 24.4588 11.6361 24.5759 11.6929 24.713C11.7497 24.85 11.7645 25.0008 11.7356 25.1463C11.7066 25.2918 11.6352 25.4254 11.5303 25.5303C11.4254 25.6352 11.2918 25.7066 11.1463 25.7356C11.0008 25.7645 10.85 25.7497 10.713 25.6929C10.5759 25.6361 10.4588 25.54 10.3764 25.4167C10.294 25.2933 10.25 25.1483 10.25 25C10.25 24.8011 10.329 24.6103 10.4697 24.4697C10.6103 24.329 10.8011 24.25 11 24.25ZM19 98.5C18.3078 98.5 17.6311 98.2947 17.0555 97.9101C16.4799 97.5256 16.0313 96.9789 15.7664 96.3394C15.5015 95.6999 15.4322 94.9961 15.5673 94.3172C15.7023 93.6383 16.0356 93.0146 16.5251 92.5251C17.0146 92.0356 17.6383 91.7023 18.3172 91.5673C18.9961 91.4322 19.6999 91.5015 20.3394 91.7664C20.9789 92.0313 21.5256 92.4799 21.9101 93.0555C22.2947 93.6311 22.5 94.3078 22.5 95C22.5 95.9283 22.1313 96.8185 21.4749 97.4749C20.8185 98.1313 19.9283 98.5 19 98.5ZM36 90H2V30H36V90Z" fill="#1D1D1F"/>
<path d="M19 97.25C20.2426 97.25 21.25 96.2426 21.25 95C21.25 93.7574 20.2426 92.75 19 92.75C17.7574 92.75 16.75 93.7574 16.75 95C16.75 96.2426 17.7574 97.25 19 97.25Z" fill="#1D1D1F"/>
</g>
<defs>
<clipPath id="clip0_4017_1580">
<rect width="19" height="54" fill="white" transform="scale(2)"/>
</clipPath>
</defs>
</svg>
