<svg width="76" height="108" viewBox="0 0 76 108" fill="none" xmlns="http://www.w3.org/2000/svg">
<g clip-path="url(#clip0_4017_1566)">
<path d="M24.1916 17.02C25.2008 17.0304 26.0106 17.8572 26 18.8666C25.9894 19.8758 25.1628 20.6856 24.1534 20.675H15.8082C14.8136 20.6646 14.0102 19.861 13.9998 18.8666C13.9894 17.8574 14.799 17.0306 15.8082 17.02H24.1916ZM31.7416 98.0136C31.4022 98.018 31.0504 98.02 30.7052 98.02H30.4698H9.4112H9.2948C8.7464 98.02 8.157 98.0188 7.6794 98.0032C6.9672 97.9802 6.4364 97.9264 5.958 97.8286C5.4438 97.7234 4.9936 97.5656 4.5814 97.3462C4.167 97.1256 3.7926 96.842 3.4678 96.5026C3.1388 96.159 2.8626 95.7606 2.6468 95.3186C2.429 94.872 2.2722 94.3842 2.168 93.8272C2.0718 93.3146 2.019 92.7472 1.9964 91.9872C1.9794 91.416 1.9798 90.6916 1.98 90.0352V23.9498C1.9798 23.3084 1.9792 22.584 1.9964 22.0126C2.019 21.2526 2.0718 20.6852 2.168 20.1726C2.2724 19.616 2.429 19.1282 2.6468 18.6816C2.8628 18.239 3.1388 17.841 3.468 17.4972C3.7926 17.158 4.1672 16.8742 4.5812 16.6538C4.9936 16.4344 5.4436 16.2766 5.9576 16.1718C6.4352 16.074 6.9664 16.02 7.6792 15.9968C8.147 15.9816 8.723 15.98 9.2636 15.98H9.7436L30 15.9802C30 15.362 30.0014 14.683 30.0178 14.1402C30.0194 14.0886 30.0244 14.0506 30.0262 14.0002H9.5342C9.4456 14 9.3552 14 9.264 14C8.7016 14 8.1024 14.0022 7.6156 14.0178C6.786 14.0448 6.1522 14.111 5.561 14.232C4.8586 14.3754 4.2338 14.5958 3.651 14.906C3.0508 15.2256 2.508 15.6368 2.0374 16.1282C1.5668 16.6196 1.1732 17.1864 0.867202 17.8134C0.570202 18.4222 0.359002 19.0746 0.221602 19.8082C0.105802 20.4258 0.0426024 21.0874 0.0170024 21.954C-0.000397606 22.5472 2.39334e-06 23.3006 2.39334e-06 23.9656V90.0342C2.39334e-06 90.6992 -0.000597605 91.453 0.0172024 92.0462C0.0428024 92.9124 0.106002 93.5742 0.221802 94.192C0.359402 94.926 0.570602 95.5784 0.867402 96.1868C1.1734 96.8136 1.5672 97.3804 2.0376 97.8718C2.508 98.3632 3.0508 98.7744 3.6512 99.0938C4.2338 99.4038 4.8584 99.6244 5.5612 99.7682C6.1538 99.8894 6.7876 99.9554 7.6158 99.982C8.1114 99.9982 8.7244 100 9.2948 100H9.5306H30.4698H30.7052C31.2756 100 31.889 99.9982 32.3844 99.982C32.7972 99.9686 33.1612 99.9456 33.4962 99.9108C33.212 99.6816 32.9308 99.448 32.6766 99.1834C32.3306 98.8234 32.023 98.4286 31.7416 98.0136ZM58.1726 9.1732H49.8274C48.8182 9.1726 47.9996 9.9904 47.999 10.9996C47.9986 12.0088 48.8162 12.8274 49.8254 12.828H58.1726C59.1818 12.828 60 12.0098 60 11.0006C60 9.9914 59.1818 9.1732 58.1726 9.1732ZM76 16.212V89.7882C76 90.0912 76 90.4194 75.9982 90.742C75.9982 90.7416 75.9982 90.7424 75.9982 90.742C75.9982 90.7424 75.9982 90.744 75.9982 90.7444C75.9964 91.1168 75.9926 91.4824 75.9834 91.7994C75.9564 92.682 75.8916 93.356 75.7728 93.9844C75.6304 94.7416 75.4112 95.416 75.1028 96.0456C74.7838 96.6976 74.373 97.2864 73.8822 97.797C73.3914 98.3074 72.825 98.7348 72.1998 99.0666C71.5938 99.3876 70.9454 99.6156 70.2168 99.7634C69.6114 99.887 68.9636 99.9544 68.117 99.982C67.8942 99.9894 67.6404 99.9928 67.3832 99.9954C67.382 99.9954 67.3812 99.9968 67.38 99.9968C67.379 99.9968 67.3782 99.9954 67.377 99.9954C67.1002 99.9982 66.821 99.9994 66.5442 99.9994C66.4942 99.9994 66.4402 99.9998 66.3912 99.9998H41.61C41.0322 99.9998 40.3918 99.9984 39.8832 99.9818C39.0372 99.9542 38.3894 99.887 37.7834 99.7632C37.173 99.6392 36.627 99.4442 36.1068 99.1998C36.0066 99.1528 35.8994 99.1182 35.8016 99.0662C35.1774 98.7352 34.6124 98.3086 34.1222 97.7998C34.1212 97.7986 34.1196 97.7978 34.1186 97.7966C33.6278 97.2862 33.217 96.6974 32.898 96.046C32.5896 95.4156 32.3702 94.7412 32.228 93.984C32.1086 93.3504 32.0434 92.6772 32.0174 91.7996C31.9996 91.2052 32.0002 90.4372 32.0002 89.7826V16.2178C32.0002 16.1458 32.0006 16.0654 32.0006 15.991C32.0006 15.389 32.0014 14.7292 32.0174 14.2008C32.0194 14.1306 32.026 14.079 32.0286 14.0114C32.0588 13.233 32.118 12.598 32.228 12.016C32.3704 11.2588 32.5896 10.5844 32.898 9.9546C33.217 9.3038 33.6278 8.7144 34.1186 8.204C34.6094 7.6936 35.176 7.2662 35.801 6.9344C36.407 6.6134 37.0554 6.3854 37.7832 6.2376C38.3874 6.114 39.0352 6.0466 39.883 6.0184C40.1052 6.0114 40.3626 6.008 40.619 6.005C40.6182 6.005 40.6196 6.005 40.619 6.005C40.6198 6.005 40.6216 6.005 40.6222 6.005C40.8562 6.0024 41.0866 6.0012 41.3206 6.0012H41.4572H41.493C41.5648 6.0012 41.6378 6.0008 41.7086 6.0008H66.2168C66.3546 6.0004 66.4974 6 66.6424 6C67.1494 6 67.6824 6.0042 68.1172 6.0182C68.9658 6.0464 69.6136 6.1136 70.2176 6.2374C70.9456 6.3854 71.594 6.6134 72.1992 6.9342C72.825 7.266 73.3914 7.6932 73.8822 8.2038C74.373 8.7142 74.7838 9.3036 75.1028 9.9538C75.4112 10.5842 75.6306 11.2586 75.7728 12.0164C75.8916 12.644 75.9562 13.318 75.9834 14.2008C75.9926 14.518 75.9964 14.8838 75.9982 15.2564C75.9982 15.256 75.9982 15.2568 75.9982 15.2564C75.9982 15.2568 75.9982 15.2584 75.9982 15.2588C75.9998 15.5814 76 15.9094 76 16.212ZM74 16.212L73.9982 15.2682C73.9964 14.9106 73.993 14.5614 73.9842 14.2588C73.9604 13.4854 73.906 12.9076 73.8076 12.3882C73.6984 11.8074 73.5348 11.2996 73.3062 10.833C73.0788 10.3694 72.7872 9.9506 72.4404 9.5898C72.0968 9.2326 71.7004 8.9336 71.2622 8.7012C70.8286 8.4714 70.3566 8.3064 69.819 8.1972C69.3286 8.0968 68.784 8.0414 68.0504 8.0172C67.637 8.0038 67.127 8.0002 66.642 8.0002L66.2248 8.001H41.3202L40.6458 8.0046H40.6418C40.3994 8.0074 40.1564 8.0104 39.9462 8.017C39.2158 8.0412 38.6712 8.0968 38.1836 8.1966C37.6434 8.3064 37.171 8.4714 36.7364 8.7014C36.2996 8.9334 35.9032 9.2324 35.5598 9.5898C35.2128 9.9506 34.9214 10.3694 34.6934 10.8346C34.4654 11.3 34.3016 11.8072 34.1932 12.3848C34.0982 12.8872 34.0464 13.4472 34.0214 14.1684C34.0202 14.2022 34.0172 14.2262 34.016 14.2608C33.9992 14.818 33.9996 15.5346 33.9996 16.1556V89.783C33.9996 90.4662 33.9992 91.182 34.016 91.7402C34.0386 92.5076 34.0932 93.0852 34.1928 93.614C34.3016 94.1928 34.4654 94.7006 34.6938 95.1672C34.921 95.631 35.2124 96.0496 35.5598 96.411C35.7194 96.577 35.9258 96.684 36.1072 96.824C36.3162 96.9852 36.5034 97.1754 36.738 97.2998C37.1332 97.5094 37.5742 97.6508 38.054 97.7594C38.1004 97.7698 38.1338 97.7942 38.181 97.8038C38.6732 97.9042 39.2174 97.9594 39.9476 97.9832C40.4374 97.9992 41.0536 98 41.6094 98H66.5428L67.3568 97.9956C67.604 97.993 67.8422 97.99 68.051 97.9832C68.7822 97.9594 69.3264 97.9042 69.8162 97.8042C70.3562 97.6946 70.8286 97.5296 71.2634 97.2994C71.7002 97.0676 72.0966 96.7686 72.44 96.4112C72.7876 96.0498 73.0788 95.6312 73.3058 95.1672C73.5344 94.7004 73.6982 94.1932 73.8066 93.6154C73.9054 93.0928 73.96 92.5146 73.9838 91.7384C73.9924 91.439 73.996 91.09 73.9978 90.7348L73.9996 89.7886L74 16.212Z" fill="black"/>
</g>
<defs>
<clipPath id="clip0_4017_1566">
<rect width="38" height="54" fill="white" transform="scale(2)"/>
</clipPath>
</defs>
</svg>
