<svg width="64" height="108" viewBox="0 0 64 108" fill="none" xmlns="http://www.w3.org/2000/svg">
<g clip-path="url(#clip0_4017_1627)">
<path d="M33.72 68.92C33.72 74.64 30.74 78.26 25.98 78.26C21.22 78.26 18.24 74.64 18.24 68.92C18.24 63.18 21.22 59.58 25.98 59.58C30.74 59.58 33.72 63.18 33.72 68.92ZM64 53.6V82.4C64 84.68 63.98 88.28 62.74 91.48C62.12 93.06 60.68 95.28 58.64 96.86C57.46 97.76 56.06 98.64 54.14 99.2C52.08 99.8 49.54 100 46.4 100H17.6C14.46 100 11.92 99.8 9.86 99.18C7.94 98.6 6.54 97.74 5.36 96.84C3.32 95.28 1.88 93.04 1.26 91.46C0.02 88.28 0 84.68 0 82.4V53.6C0 51.32 0.02 47.72 1.26 44.52C1.88 42.94 3.32 40.72 5.36 39.14C6.54 38.24 7.94 37.36 9.86 36.8C11.92 36.2 14.46 36 17.6 36H46.4C49.56 36 52.08 36.2 54.14 36.82C56.06 37.4 57.48 38.26 58.64 39.16C60.68 40.72 62.12 42.96 62.74 44.54C63.98 47.72 64 51.32 64 53.6ZM12.62 80.54V66.66H9.76V80.54H12.62ZM12.82 62.8C12.82 61.9 12.1 61.16 11.18 61.16C10.28 61.16 9.54 61.88 9.54 62.8C9.54 63.7 10.28 64.44 11.18 64.44C12.1 64.42 12.82 63.7 12.82 62.8ZM36.7 68.92C36.7 61.54 32.58 56.9 25.98 56.9C19.38 56.9 15.26 61.54 15.26 68.92C15.26 76.3 19.38 80.92 25.98 80.92C32.58 80.92 36.7 76.3 36.7 68.92ZM55.26 73.94C55.26 70.66 53.34 68.72 48.5 67.66L45.92 67.1C42.74 66.4 41.5 65.14 41.5 63.32C41.5 60.94 43.74 59.54 46.64 59.54C49.68 59.54 51.68 61.1 51.94 63.64H54.84C54.7 59.7 51.36 56.92 46.72 56.92C41.9 56.92 38.52 59.62 38.52 63.44C38.52 66.74 40.54 68.86 45.2 69.86L47.78 70.42C51 71.12 52.3 72.42 52.3 74.36C52.3 76.66 50 78.3 46.86 78.3C43.52 78.3 41.2 76.78 40.86 74.28H37.96C38.24 78.3 41.62 80.9 46.7 80.9C51.88 80.92 55.26 78.24 55.26 73.94Z" fill="#1D1D1F"/>
</g>
<defs>
<clipPath id="clip0_4017_1627">
<rect width="32" height="54" fill="white" transform="scale(2)"/>
</clipPath>
</defs>
</svg>
