<svg width="126" height="108" viewBox="0 0 126 108" fill="none" xmlns="http://www.w3.org/2000/svg">
<g clip-path="url(#clip0_4017_5003)">
<path d="M25.3398 99.2402C26.4444 99.2402 27.3398 98.3448 27.3398 97.2402C27.3398 96.1357 26.4444 95.2402 25.3398 95.2402C24.2353 95.2402 23.3398 96.1357 23.3398 97.2402C23.3398 98.3448 24.2353 99.2402 25.3398 99.2402Z" fill="#1D1D1F"/>
<path d="M124.339 98.7394H29.3388C29.2061 98.7394 29.079 98.7921 28.9852 98.8858C28.8914 98.9796 28.8388 99.1068 28.8388 99.2394V99.9994C26.9328 100.088 25.0513 100.466 23.2588 101.119C22.1988 101.379 21.4388 101.119 21.0588 100.659C20.8544 100.286 20.761 99.8612 20.7893 99.4361C20.8176 99.011 20.9666 98.6028 21.2188 98.2594C22.2125 96.7281 23.0884 95.1235 23.8388 93.4594L24.6188 93.7394C24.6833 93.7539 24.7502 93.7548 24.8151 93.7422C24.8801 93.7296 24.9417 93.7037 24.9962 93.6662C25.0506 93.6286 25.0967 93.5802 25.1316 93.5239C25.1665 93.4677 25.1893 93.4049 25.1988 93.3394L35.1988 65.6994L50.4988 91.9994C50.5655 92.1129 50.6744 92.1955 50.8018 92.2292C50.9291 92.2629 51.0646 92.245 51.1788 92.1794L52.9188 91.1794C53.0323 91.1126 53.1149 91.0037 53.1486 90.8764C53.1823 90.7491 53.1644 90.6136 53.0988 90.4994L4.59876 6.5194C4.53464 6.42474 4.44112 6.35385 4.33266 6.3177C4.2242 6.28155 4.10684 6.28215 3.99876 6.3194L2.25876 7.3194L1.99876 7.4594L1.39876 7.7994C1.3405 7.83046 1.28927 7.87319 1.24828 7.92494C1.20728 7.97669 1.17741 8.03634 1.16051 8.10016C1.14362 8.16398 1.14007 8.2306 1.15009 8.29586C1.16012 8.36111 1.18349 8.42359 1.21876 8.4794L32.9388 63.4194L22.4388 92.4194C22.3989 92.5443 22.4077 92.6795 22.4633 92.7982C22.5189 92.9169 22.6173 93.0102 22.7388 93.0594L23.3588 93.2794C22.6296 94.917 21.7736 96.4951 20.7988 97.9994C20.4893 98.4285 20.3096 98.9376 20.2813 99.4659C20.2529 99.9942 20.377 100.52 20.6388 100.979C20.839 101.241 21.1008 101.449 21.4009 101.585C21.701 101.721 22.03 101.781 22.3588 101.759C22.7164 101.755 23.0722 101.708 23.4188 101.619C25.1603 100.984 26.9873 100.613 28.8388 100.519V101.259C28.8388 101.392 28.8914 101.519 28.9852 101.613C29.079 101.707 29.2061 101.759 29.3388 101.759H124.339C124.471 101.759 124.599 101.707 124.692 101.613C124.786 101.519 124.839 101.392 124.839 101.259V99.2594C124.841 99.1921 124.831 99.1249 124.807 99.0619C124.783 98.9989 124.746 98.9414 124.7 98.8929C124.653 98.8443 124.597 98.8056 124.535 98.7793C124.473 98.7529 124.406 98.7393 124.339 98.7394Z" fill="#1D1D1F"/>
</g>
<defs>
<clipPath id="clip0_4017_5003">
<rect width="63" height="54" fill="white" transform="scale(2)"/>
</clipPath>
</defs>
</svg>
