<svg width="68" height="108" viewBox="0 0 68 108" fill="none" xmlns="http://www.w3.org/2000/svg">
<g clip-path="url(#clip0_4017_3364)">
<path d="M34 33.0879C53.8728 33.0879 67 47.2289 67 68.6055C67 78.4513 64.1232 89.2883 59.2956 97.7135C58.7996 98.6387 57.8406 98.9691 56.8818 98.6717C55.493 100.786 53.1122 101.579 50.3348 100.786C46.896 99.7621 45.3418 96.8545 46.3668 93.3855L51.2606 77.2951C52.2856 73.8921 55.1294 72.3391 58.6344 73.3633C60.2546 73.8589 61.445 74.7509 62.1724 75.9403C62.5362 73.4623 62.7014 71.0173 62.7014 68.6055C62.7014 49.9051 51.1944 37.3829 34 37.3829C16.7726 37.3829 5.2986 49.9049 5.2986 68.6055C5.2986 71.0173 5.464 73.4623 5.8276 75.9073C6.522 74.7509 7.7124 73.8589 9.3326 73.3633C12.8376 72.3391 15.6812 73.8919 16.7064 77.2951L21.6002 93.3855C22.6252 96.8217 21.0712 99.7621 17.6322 100.786C14.8546 101.579 12.4738 100.786 11.0852 98.6717C10.1262 98.9691 9.1674 98.6387 8.6714 97.7135C3.8438 89.2883 1 78.4513 1 68.6055C1 47.2289 14.0942 33.0879 34 33.0879Z" fill="#1D1D1F"/>
</g>
<defs>
<clipPath id="clip0_4017_3364">
<rect width="34" height="54" fill="white" transform="scale(2)"/>
</clipPath>
</defs>
</svg>
