<svg width="56" height="108" viewBox="0 0 56 108" fill="none" xmlns="http://www.w3.org/2000/svg">
<g clip-path="url(#clip0_4017_3337)">
<path d="M0 70V96.192C0 97.792 0.8 98.792 2 98.792H5.8L7.4 100H48.6L50.2 98.792H54C55.2 98.792 56 97.792 56 96.192V70H0ZM46.8 95.657C45.4892 95.6078 44.4666 94.5052 44.5156 93.1942C44.5646 91.8832 45.6672 90.8602 46.978 90.9094C48.2554 90.9574 49.2658 92.008 49.264 93.2866C49.2404 94.6194 48.141 95.6808 46.8086 95.6572M46.8086 95.6572C46.8058 95.6572 46.803 95.657 46.8 95.657L46.8086 95.6572Z" fill="#1D1D1F"/>
</g>
<defs>
<clipPath id="clip0_4017_3337">
<rect width="28" height="54" fill="white" transform="scale(2)"/>
</clipPath>
</defs>
</svg>
