<svg width="70" height="108" viewBox="0 0 70 108" fill="none" xmlns="http://www.w3.org/2000/svg">
<g clip-path="url(#clip0_4017_3344)">
<path d="M70 94V26H66V18.5C66 18.1022 65.842 17.7206 65.5607 17.4393C65.2794 17.158 64.8978 17 64.5 17C64.1022 17 63.7206 17.158 63.4393 17.4393C63.158 17.7206 63 18.1022 63 18.5V26H7V18.5C7 18.1022 6.84196 17.7206 6.56066 17.4393C6.27936 17.158 5.89782 17 5.5 17C5.10218 17 4.72064 17.158 4.43934 17.4393C4.15804 17.7206 4 18.1022 4 18.5V26H0V94H3.5V97C3.5 97.2652 3.39464 97.5196 3.20711 97.7071C3.01957 97.8946 2.76522 98 2.5 98H0V100H10V98H7.5C7.23478 98 6.98043 97.8946 6.79289 97.7071C6.60536 97.5196 6.5 97.2652 6.5 97V94H63.5V97C63.5 97.2652 63.3946 97.5196 63.2071 97.7071C63.0196 97.8946 62.7652 98 62.5 98H60V100H70V98H67.5C67.2348 98 66.9804 97.8946 66.7929 97.7071C66.6054 97.5196 66.5 97.2652 66.5 97V94H70ZM35.894 49.84C36.5608 49.0401 37.5172 48.5368 38.554 48.44C38.619 49.503 38.2837 50.5519 37.614 51.38C37.2962 51.7869 36.8894 52.1156 36.4248 52.3409C35.9603 52.5663 35.4503 52.6823 34.934 52.68C34.8973 52.1666 34.9633 51.651 35.1282 51.1634C35.293 50.6758 35.5533 50.2259 35.894 49.84ZM41.074 64.5C40.314 65.62 39.554 66.74 38.314 66.76C37.114 66.78 36.714 66.04 35.354 66.04C33.994 66.04 33.534 66.74 32.414 66.78C31.214 66.82 30.314 65.58 29.554 64.46C28.014 62.18 26.834 58.04 28.414 55.24C28.7775 54.5638 29.3127 53.9952 29.9657 53.5914C30.6188 53.1877 31.3666 52.963 32.134 52.94C33.314 52.92 34.394 53.72 35.094 53.72C35.794 53.72 37.054 52.78 38.554 52.86C39.2081 52.8839 39.8475 53.0611 40.4206 53.3772C40.9938 53.6933 41.4847 54.1395 41.854 54.68C41.2625 55.0533 40.7746 55.5696 40.4355 56.1814C40.0964 56.7932 39.9171 57.4806 39.914 58.18C39.9103 58.9686 40.1375 59.741 40.5675 60.402C40.9975 61.0631 41.6116 61.5838 42.334 61.9C42.0179 62.8133 41.595 63.686 41.074 64.5Z" fill="#1D1D1F"/>
</g>
<defs>
<clipPath id="clip0_4017_3344">
<rect width="35" height="54" fill="white" transform="scale(2)"/>
</clipPath>
</defs>
</svg>
