<svg width="70" height="108" viewBox="0 0 70 108" fill="none" xmlns="http://www.w3.org/2000/svg">
<g clip-path="url(#clip0_4017_3371)">
<path d="M32.6 73.28C32.6 79 29.62 82.6 24.86 82.6C20.1 82.6 17.12 78.98 17.12 73.28C17.12 67.54 20.1 63.94 24.86 63.94C29.62 63.94 32.6 67.54 32.6 73.28ZM39.24 53.1L37.16 53.24C35.98 53.32 35.46 53.74 35.46 54.5C35.46 55.3 36.12 55.74 37.04 55.74C38.3 55.74 39.24 54.92 39.24 53.82V53.1ZM69 66C69 84.98 53.98 100 35 100C16.02 100 1 84.98 1 66C1 47.02 16.02 32 35 32C53.98 32 69 47.02 69 66ZM42.88 52.68C42.88 55.44 44.4 57.12 46.88 57.12C48.98 57.12 50.3 55.94 50.52 54.26H48.88C48.66 55.18 47.94 55.68 46.88 55.68C45.48 55.68 44.62 54.54 44.62 52.68C44.62 50.84 45.48 49.74 46.88 49.74C48 49.74 48.7 50.38 48.88 51.2H50.52C50.3 49.56 49.02 48.32 46.88 48.32C44.4 48.3 42.88 49.98 42.88 52.68ZM20.02 48.48V56.96H21.7V51.76C21.7 50.66 22.48 49.78 23.5 49.78C24.5 49.78 25.14 50.38 25.14 51.34V56.96H26.78V51.6C26.78 50.58 27.48 49.78 28.58 49.78C29.68 49.78 30.22 50.34 30.22 51.52V56.96H31.9V51.1C31.9 49.34 30.9 48.3 29.18 48.3C28 48.3 27.02 48.9 26.6 49.82H26.46C26.08 48.9 25.28 48.3 24.12 48.3C22.98 48.3 22.12 48.86 21.76 49.82H21.64V48.46L20.02 48.48ZM35.58 73.28C35.58 65.9 31.46 61.26 24.86 61.26C18.26 61.26 14.14 65.9 14.14 73.28C14.14 80.66 18.26 85.28 24.86 85.28C31.46 85.28 35.58 80.64 35.58 73.28ZM36.62 57.1C37.74 57.1 38.66 56.62 39.18 55.76H39.32V56.96H40.94V51.16C40.94 49.38 39.74 48.32 37.6 48.32C35.66 48.32 34.3 49.26 34.12 50.68H35.74C35.92 50.06 36.58 49.72 37.52 49.72C38.66 49.72 39.26 50.24 39.26 51.18V51.92L36.96 52.06C34.94 52.18 33.8 53.06 33.8 54.6C33.78 56.12 34.98 57.1 36.62 57.1ZM54.96 78.28C54.96 74.98 53.04 73.06 48.2 72L45.62 71.44C42.44 70.74 41.2 69.48 41.2 67.66C41.2 65.3 43.44 63.88 46.34 63.88C49.38 63.88 51.38 65.44 51.64 68H54.54C54.4 64.06 51.06 61.28 46.42 61.28C41.6 61.28 38.22 63.98 38.22 67.8C38.22 71.1 40.24 73.22 44.9 74.24L47.48 74.8C50.7 75.5 52 76.8 52 78.74C52 81.02 49.7 82.68 46.56 82.68C43.22 82.68 40.9 81.16 40.56 78.66H37.66C37.94 82.68 41.32 85.28 46.4 85.28C51.58 85.28 54.96 82.58 54.96 78.28Z" fill="#1D1D1F"/>
</g>
<defs>
<clipPath id="clip0_4017_3371">
<rect width="35" height="54" fill="white" transform="scale(2)"/>
</clipPath>
</defs>
</svg>
