<svg width="216" height="112" viewBox="0 0 216 112" fill="none" xmlns="http://www.w3.org/2000/svg">
<g clip-path="url(#clip0_4017_3378)">
<path d="M3.5 56V55C3.5 53.0704 5.0704 51.5 7 51.5H52V48H5C2.2386 48 0 50.2386 0 53V59.5C1.9296 59.5 3.5 57.9296 3.5 56ZM146 35V83C146 84.6568 144.657 86 143 86H57C55.3432 86 54 84.6568 54 83V35C54 33.3432 55.3432 32 57 32H143C144.657 32 146 33.3432 146 35ZM142 36H58V82H142V36ZM88 88V104H112V87H88V88ZM82 88V99C82 101.761 79.7614 104 77 104H5C2.2386 104 0 101.761 0 99V60.5C2.4804 60.5 4.5 58.4814 4.5 56V55C4.5 53.621 5.621 52.5 7 52.5H52V83C52 85.757 54.243 88 57 88H82ZM40.9824 73.6284C40.9824 73.6928 40.9824 73.7366 40.9844 73.7614C40.9898 73.798 41.0332 73.8102 41.1192 73.8102C41.3272 73.8102 41.5322 73.7578 41.732 73.6474C41.9346 73.5392 42.1134 73.3936 42.273 73.2064C42.4356 73.0242 42.5582 72.8158 42.6544 72.5832C42.7492 72.3484 42.8 72.1138 42.8 71.8826V71.7848C42.8 71.7568 42.7966 71.727 42.7858 71.6938C42.5512 71.7078 42.3202 71.7672 42.1012 71.8844C41.8804 72.0034 41.6882 72.1576 41.529 72.3326C41.359 72.5202 41.2328 72.7284 41.1316 72.9524C41.0334 73.18 40.9824 73.4024 40.9824 73.6284ZM44.6642 78.4128C44.2824 78.245 43.9848 77.9912 43.7748 77.6566C43.5594 77.3238 43.4562 76.9582 43.4562 76.5556C43.4562 76.172 43.5332 75.8324 43.6818 75.5506C43.8378 75.2634 44.0864 75.0184 44.4262 74.8134C44.2422 74.5334 43.9882 74.313 43.6732 74.1466C43.3512 73.9766 43.0238 73.8926 42.6698 73.8926C42.5386 73.8926 42.411 73.9084 42.285 73.9364C42.1604 73.9644 41.9994 74.0152 41.7894 74.087C41.5774 74.1676 41.4078 74.2254 41.2938 74.2656C41.1854 74.3076 41.1084 74.3268 41.0648 74.3268C40.9384 74.3268 40.7216 74.2584 40.4084 74.122C40.0896 73.9904 39.813 73.9222 39.5784 73.9222C39.2612 73.9222 38.9656 73.9904 38.6978 74.122C38.4282 74.2582 38.1936 74.444 37.9888 74.6924C37.7856 74.934 37.6228 75.2284 37.5074 75.559C37.3922 75.8936 37.3358 76.2578 37.3358 76.6496C37.3358 76.9054 37.3654 77.1644 37.4112 77.4342C37.453 77.7056 37.5196 77.9698 37.5988 78.2322C37.6788 78.5018 37.7858 78.7556 37.8982 79.0062C38.0202 79.2512 38.1414 79.4788 38.2832 79.6852C38.4338 79.9094 38.5704 80.0914 38.698 80.2402C38.8206 80.3908 38.931 80.5098 39.043 80.599C39.155 80.6866 39.2616 80.7514 39.365 80.7916C39.465 80.8266 39.5664 80.8456 39.6818 80.8456C39.7536 80.8456 39.8602 80.8266 39.9776 80.7916C40.0934 80.7514 40.2262 80.7126 40.3696 80.6658C40.508 80.6202 40.6482 80.5764 40.7914 80.5378C40.9282 80.494 41.0612 80.4766 41.18 80.4766C41.2906 80.4766 41.4078 80.4942 41.5476 80.5294C41.6804 80.5732 41.8154 80.6114 41.9502 80.6552C42.0832 80.699 42.2112 80.7394 42.3406 80.7778C42.4652 80.8148 42.5738 80.8338 42.6628 80.8338C42.803 80.8338 42.9358 80.8076 43.0602 80.7396C43.193 80.6728 43.3176 80.5818 43.4436 80.4768C43.5048 80.4086 43.5978 80.3104 43.715 80.1724C43.8216 80.034 43.9372 79.8694 44.058 79.6854C44.172 79.507 44.2822 79.3022 44.3908 79.0884C44.4958 78.8714 44.5888 78.6424 44.6642 78.4128ZM206 100V51.4584C205.977 49.535 203.923 48.0228 202 48H148V51H160.242C160.315 52.0728 160.927 52.927 162 53H168C169.042 53.0628 169.937 52.0416 170 51C170.004 50.9242 170.004 51.0342 170 50.9584L202 51C202.8 51 203 51.2 203 52V100H127V88H124V100H115V101.1C114.982 102.136 115.968 102.909 117 103H121.242L122.242 104H128.242L129.242 103H200.758L201.658 104H207.658L208.758 103.1L213 103C214.056 103.024 214.861 102.348 215 101.3V100H206Z" fill="#1D1D1F"/>
</g>
<defs>
<clipPath id="clip0_4017_3378">
<rect width="108" height="56" fill="white" transform="scale(2)"/>
</clipPath>
</defs>
</svg>
