<svg width="56" height="108" viewBox="0 0 56 108" fill="none" xmlns="http://www.w3.org/2000/svg">
<g clip-path="url(#clip0_4017_3331)">
<path d="M-0.000826152 86V98C-0.0205164 98.2677 0.0177132 98.5365 0.111259 98.7881C0.204805 99.0396 0.351469 99.2681 0.541265 99.4579C0.731061 99.6477 0.95953 99.7944 1.21111 99.8879C1.4627 99.9815 1.73149 100.02 1.99917 100H53.9992C54.2669 100.02 54.5356 99.9815 54.7872 99.8879C55.0388 99.7944 55.2673 99.6477 55.4571 99.4579C55.6469 99.2681 55.7935 99.0396 55.8871 98.7881C55.9806 98.5365 56.0189 98.2677 55.9992 98V86H-0.000826152ZM46.9992 96.908C46.6328 96.8943 46.2786 96.773 45.9807 96.5594C45.6828 96.3458 45.4543 96.0493 45.3237 95.7067C45.1931 95.3642 45.1662 94.9908 45.2463 94.6331C45.3264 94.2754 45.51 93.9491 45.7743 93.695C46.0385 93.4409 46.3716 93.2701 46.7322 93.204C47.0928 93.1378 47.4648 93.1792 47.802 93.3231C48.1392 93.4669 48.4267 93.7067 48.6285 94.0128C48.8304 94.3188 48.9377 94.6774 48.9372 95.044C48.9328 95.2938 48.8791 95.5402 48.7792 95.7692C48.6793 95.9982 48.5352 96.2052 48.3552 96.3784C48.1751 96.5516 47.9627 96.6875 47.73 96.7784C47.4973 96.8693 47.2489 96.9133 46.9992 96.908Z" fill="#1D1D1F"/>
</g>
<defs>
<clipPath id="clip0_4017_3331">
<rect width="28" height="54" fill="white" transform="scale(2)"/>
</clipPath>
</defs>
</svg>
