<svg width="158" height="112" viewBox="0 0 158 112" fill="none" xmlns="http://www.w3.org/2000/svg">
<g clip-path="url(#clip0_4017_3308)">
<path d="M56.0232 101.382C56.0586 101.999 56.2326 102.584 56.5304 103.1H15.7408L14.7408 104H8.74084L7.74084 103.1H2.00024C0.968243 103.009 -0.0177573 102.136 0.000242726 101.1V100H10.0006C10.0006 100 9.99924 41.7736 10.0006 41.7006C10.0384 39.7844 11.627 37.962 13.5006 38.0006L102.5 38.0196C104.456 38.0432 105.977 39.7002 106 41.7006V44.0006H103V42.079C103 41.247 102.814 41.2006 102 41.2006C102 41.2006 64.005 41.0608 64.0002 41.1396C63.9362 42.223 63.0596 43.266 62.0002 43.2006H54.0002C52.9092 43.1246 52.0744 42.2556 52.0002 41.1396L14.0002 41.2006C13.1868 41.2006 13.0002 41.455 13.0002 42.079V100H56.0002V101.1C55.9984 101.196 56.0178 101.288 56.0232 101.382ZM158 100V101.3C157.864 102.332 156.983 103.101 155.947 103.101C155.931 103.101 155.916 103.1 155.9 103.1H152L150.9 104H144.9L144 103.1H72.0006L71.0006 104H65.0008L64.0008 103.1H59.8008C58.8676 103.018 58.1684 102.286 58.0498 101.382C58.0372 101.287 57.9988 101.199 58.0004 101.1V100H66.0046V49.5006C66.0008 49.4234 65.9996 49.3462 66.0014 49.269C66.0382 47.4496 67.5246 45.9998 69.336 46L146.5 46.0006C148.424 46.0234 149.978 47.5772 150 49.5006V100H158ZM146.9 49.992C146.9 49.192 146.7 48.992 145.9 48.992L113 49C113 49.9428 112.082 51 111 51H105C103.927 50.9272 103.074 50.0738 103 49.0014C103 49.001 103 49.0018 103 49.0014L70.0046 48.992C69.2046 48.992 69.0046 49.2952 69.0046 49.8952V100H146.9L146.9 49.992Z" fill="#1D1D1F"/>
</g>
<defs>
<clipPath id="clip0_4017_3308">
<rect width="79" height="56" fill="white" transform="scale(2)"/>
</clipPath>
</defs>
</svg>
