<svg width="170" height="108" viewBox="0 0 170 108" fill="none" xmlns="http://www.w3.org/2000/svg">
<g clip-path="url(#clip0_4017_3316)">
<path d="M95.2014 35.0008H63.5564V35.0304C63.5564 35.2922 63.5048 35.5514 63.4047 35.7932C63.3045 36.0351 63.1576 36.2548 62.9725 36.4399C62.7874 36.625 62.5677 36.7718 62.3258 36.8719C62.084 36.9721 61.8248 37.0236 61.563 37.0236H54.437C54.1752 37.0236 53.916 36.9721 53.6742 36.8719C53.4323 36.7718 53.2126 36.625 53.0275 36.4399C52.8424 36.2548 52.6955 36.0351 52.5953 35.7932C52.4952 35.5514 52.4436 35.2922 52.4436 35.0304V35.0008H20.7986L18.148 35.0032C17.1438 35.005 16.4954 35.0074 16.0054 35.0118C15.5472 35.016 15.2342 35.0216 14.982 35.0296C14.6883 35.0353 14.3952 35.0566 14.1038 35.0934C13.936 35.1097 13.7719 35.1525 13.6176 35.2204C13.5316 35.2612 13.4532 35.3164 13.3858 35.3836C13.3159 35.4532 13.2586 35.5344 13.2164 35.6236C13.1498 35.776 13.1076 35.938 13.0916 36.1036C13.0551 36.3944 13.034 36.687 13.0284 36.98C13.0208 37.2264 13.0152 37.54 13.0112 37.999C13.0074 38.4858 13.0048 39.049 13.003 40.0558C13.001 41.526 13 94.9958 13 94.9958H64V96.9598C64.0041 98.0593 64.3714 99.1266 65.0446 99.9958H14.5782L14.0752 101.001H8.0058L7.503 99.9952H3.0358C2.23065 99.9951 1.45852 99.6752 0.889212 99.1059C0.319906 98.5365 5.30295e-05 97.7643 0 96.9592L0 94.9952H10C10 94.9952 10 41.522 10.003 40.0496C10.0048 39.0346 10.0074 38.4662 10.0112 37.9718C10.0156 37.484 10.0218 37.15 10.03 36.8812C10.0388 36.4807 10.0692 36.081 10.121 35.6838C10.1796 35.2116 10.3121 34.7516 10.5136 34.3206C10.893 33.5302 11.5309 32.8931 12.3218 32.5148C12.7528 32.3135 13.2127 32.1813 13.6848 32.1228C14.0828 32.0706 14.4834 32.04 14.8848 32.0312C15.1546 32.0224 15.489 32.0162 15.9778 32.0112C16.473 32.0066 17.128 32.0042 18.1428 32.0024C18.8282 32.0014 19.644 32.0004 20.7972 32H95.2026C96.3558 32 97.1716 32.0014 97.857 32.0024C98.8718 32.0042 99.5268 32.0066 100.022 32.0112C100.511 32.0154 100.845 32.0216 101.115 32.0312C101.516 32.04 101.917 32.0706 102.315 32.1228C102.787 32.1813 103.247 32.3135 103.678 32.5148C104.469 32.8931 105.107 33.5302 105.486 34.3206C105.688 34.7516 105.82 35.2116 105.879 35.6838C105.931 36.081 105.961 36.4807 105.97 36.8812C105.978 37.15 105.984 37.484 105.989 37.9718V38.0006H102.989V37.9954C102.985 37.5404 102.979 37.2262 102.971 36.9736C102.966 36.6818 102.944 36.3905 102.908 36.101C102.892 35.9345 102.849 35.7717 102.782 35.6186C102.698 35.444 102.557 35.3035 102.382 35.2204C102.227 35.1526 102.063 35.1097 101.895 35.0934C101.603 35.0565 101.31 35.0352 101.016 35.0296C100.765 35.0216 100.452 35.016 99.9946 35.0118C99.5036 35.0074 98.8546 35.005 97.8508 35.0032L95.2014 35.0008ZM170 94.995V96.959C170 97.7642 169.68 98.5364 169.111 99.1058C168.541 99.6751 167.769 99.995 166.964 99.995H162.497L161.994 101.001H155.925L155.422 99.995H80.5782L80.0752 101.001H74.0058L73.503 99.995H69.0358C68.2307 99.9949 67.4585 99.675 66.8892 99.1056C66.3199 98.5363 66.0001 97.7641 66 96.959V94.995H76C76 94.995 76.001 49.6078 76.003 48.135C76.0048 47.12 76.0074 46.4654 76.0112 45.9712C76.0156 45.4834 76.0218 45.1492 76.03 44.8804C76.0388 44.48 76.0692 44.0803 76.121 43.6832C76.1796 43.211 76.3121 42.7509 76.5136 42.3198C76.8931 41.5296 77.531 40.8926 78.3218 40.5142C78.7528 40.3129 79.2127 40.1807 79.6848 40.1222C80.0828 40.0699 80.4834 40.0392 80.8848 40.0304C81.1546 40.0218 81.489 40.0156 81.9778 40.0114C82.473 40.0068 83.128 40.0042 84.1428 40.0026C84.8284 40.002 86.7974 40.0008 86.7974 40.0008H149.203C150.356 40.0008 151.171 40.002 151.857 40.0032C152.872 40.0048 153.527 40.0074 154.022 40.012C154.511 40.0162 154.845 40.0224 155.115 40.031C155.516 40.0398 155.917 40.0705 156.315 40.1228C156.787 40.1812 157.247 40.3135 157.678 40.5148C158.469 40.8928 159.107 41.5299 159.486 42.3204C159.687 42.7516 159.82 43.2116 159.879 43.6838C159.931 44.0809 159.961 44.4806 159.97 44.881C159.978 45.1498 159.984 45.484 159.99 45.9718C159.993 46.466 159.996 47.1206 159.998 48.1356C160 49.6078 160.001 94.9956 160.001 94.9956L170 94.995ZM157 94.995C157 94.995 157 49.6118 156.997 48.1396C156.995 47.1348 156.993 46.4856 156.989 45.9956C156.985 45.5428 156.979 45.2304 156.971 44.9794C156.966 44.6852 156.944 44.3914 156.908 44.0994C156.891 43.9332 156.849 43.7706 156.781 43.6178C156.739 43.5318 156.684 43.4533 156.616 43.3856C156.548 43.3181 156.47 43.2626 156.383 43.2214C156.229 43.1534 156.064 43.1104 155.896 43.094C155.604 43.057 155.311 43.0357 155.017 43.03C154.766 43.022 154.453 43.0164 153.996 43.0124C153.504 43.0078 152.856 43.0054 151.852 43.0038L149.201 43.0008H123.556V43.0302C123.556 43.5589 123.346 44.0659 122.973 44.4397C122.599 44.8136 122.092 45.0236 121.563 45.0236H114.437C113.908 45.0236 113.401 44.8136 113.027 44.4397C112.654 44.0659 112.444 43.5589 112.444 43.0302V43.0008H104.998H86.7978L84.1472 43.0032C83.143 43.0048 82.4946 43.0072 82.0046 43.0118C81.5464 43.0158 81.2334 43.0214 80.9808 43.0294C80.6873 43.0351 80.3944 43.0565 80.1032 43.0934C79.9353 43.1096 79.7711 43.1524 79.6168 43.2204C79.5309 43.2612 79.4525 43.3163 79.385 43.3834C79.3152 43.4531 79.2579 43.5343 79.2156 43.6234C79.149 43.7758 79.1069 43.9378 79.0908 44.1034C79.0543 44.3942 79.0332 44.6868 79.0276 44.9798C79.02 45.2264 79.0144 45.5398 79.0104 45.9988C79.0066 46.4858 79.004 47.135 79.0022 48.1416C79.0002 49.612 78.9992 94.9952 78.9992 94.9952L157 94.995Z" fill="#1D1D1F"/>
</g>
<defs>
<clipPath id="clip0_4017_3316">
<rect width="85" height="54" fill="white" transform="scale(2)"/>
</clipPath>
</defs>
</svg>
