<svg width="112" height="112" viewBox="0 0 112 112" fill="none" xmlns="http://www.w3.org/2000/svg">
<g clip-path="url(#clip0_4017_5011)">
<path d="M78 105.299V16.6988C78.0224 15.2298 76.8498 14.0208 75.381 13.9984C75.3474 13.9978 75.3136 13.998 75.28 13.9988C71.7 15.1494 68.182 16.4846 64.74 17.9988C63.166 18.6586 62.1036 20.1552 62 21.8588V100.259C62.139 101.915 63.1874 103.356 64.72 103.999C64.72 103.999 74.06 107.819 75.26 107.999C76.751 108.021 77.9776 106.83 77.9998 105.339C77.9998 105.326 78 105.312 78 105.299ZM29.16 17.9988H43.84C42.656 18.5752 41.9314 19.8038 42 21.1188V100.879C41.8524 102.212 42.6018 103.483 43.84 103.999H29.1598C27.4256 104.01 26.011 102.613 26 100.879V21.1188C26.0218 19.3892 27.4302 17.9986 29.16 17.9988ZM47.16 17.9988H61.84C60.656 18.5752 59.9314 19.8038 60 21.1188V100.879C59.8524 102.212 60.6018 103.483 61.84 103.999H47.1598C45.4256 104.01 44.011 102.613 44 100.879V21.1188C44.0218 19.3892 45.4302 17.9986 47.16 17.9988ZM88.0016 23.9992V97.9992C88.0016 101.313 85.3154 103.999 82.0016 103.999H79.9998V99.9992H82.0016C83.1062 99.9992 84.0016 99.1036 84.0016 97.9992V23.9992C84.0016 22.8946 83.1062 21.9992 82.0016 21.9992H79.9998V17.9992H82.0016C85.3154 17.9992 88.0016 20.6854 88.0016 23.9992Z" fill="#1D1D1F"/>
</g>
<defs>
<clipPath id="clip0_4017_5011">
<rect width="56" height="56" fill="white" transform="scale(2)"/>
</clipPath>
</defs>
</svg>
