<svg width="82" height="112" viewBox="0 0 82 112" fill="none" xmlns="http://www.w3.org/2000/svg">
<g clip-path="url(#clip0_4017_4968)">
<path d="M64 16V14C64 12.8954 63.1046 12 62 12H6C4.8954 12 4 12.8954 4 14V98C4 99.1046 4.8954 100 6 100H20C20.1548 101.664 21.0998 103.152 22.54 104H6C2.6862 104 0 101.314 0 98V14C0 10.6862 2.6862 8 6 8H62C65.3138 8 68 10.6862 68 14V16H64ZM82 24V98C82 101.314 79.3138 104 76 104H28C24.6862 104 22 101.314 22 98V24C22 20.6862 24.6862 18 28 18H76C79.3138 18 82 20.6862 82 24ZM78 24C78 22.8954 77.1046 22 76 22H28C26.8956 22 26 22.8954 26 24V98C26 99.1044 26.8956 100 28 100H76C77.1046 100 78 99.1044 78 98V24Z" fill="#1D1D1F"/>
</g>
<defs>
<clipPath id="clip0_4017_4968">
<rect width="41" height="56" fill="white" transform="scale(2)"/>
</clipPath>
</defs>
</svg>
