<svg width="40" height="40" viewBox="0 0 40 40" fill="none" xmlns="http://www.w3.org/2000/svg">
<path d="M13.5 6H10.5C8.84315 6 7.5 7.34315 7.5 9V31C7.5 32.6569 8.84315 34 10.5 34H13.5C15.1569 34 16.5 32.6569 16.5 31V9C16.5 7.34315 15.1569 6 13.5 6Z" fill="black" fill-opacity="0.56"/>
<path d="M29.5 6H26.5C24.8431 6 23.5 7.34315 23.5 9V31C23.5 32.6569 24.8431 34 26.5 34H29.5C31.1569 34 32.5 32.6569 32.5 31V9C32.5 7.34315 31.1569 6 29.5 6Z" fill="black" fill-opacity="0.56"/>
<path d="M9.99916 30.5003V9.54026C9.94784 9.13297 9.98417 8.71941 10.1057 8.32731C10.2273 7.93521 10.4313 7.57362 10.704 7.2668C10.9768 6.95998 11.3119 6.71501 11.6871 6.54831C12.0622 6.38161 12.4687 6.29704 12.8792 6.30026C13.6661 6.26668 14.4435 6.48377 15.0992 6.92026L32.1592 16.9203C33.6792 17.8003 34.4992 18.5203 34.4992 19.9403C34.4992 21.3603 33.6792 22.0803 32.1592 22.9603L15.0992 32.9603C14.4435 33.3968 13.6661 33.6138 12.8792 33.5803C12.4818 33.5873 12.0873 33.5108 11.7214 33.3558C11.3554 33.2008 11.026 32.9707 10.7546 32.6804C10.4831 32.3901 10.2756 32.046 10.1455 31.6705C10.0154 31.295 9.96551 30.8963 9.99916 30.5003Z" fill="black" fill-opacity="0.56"/>
</svg>
