<svg width="112" height="108" viewBox="0 0 112 108" fill="none" xmlns="http://www.w3.org/2000/svg">
<g clip-path="url(#clip0_4017_1636)">
<path d="M106 20.0004H80C79.262 20.0004 78.5634 20.1518 77.9102 20.3956C77.9442 20.7548 77.9694 21.131 77.9822 21.5474C77.9998 22.1134 78.0003 22.8556 77.9996 23.7942V30.0004H110V90.0004H77.9996V90.2058C78 91.1454 77.9996 91.8874 77.9822 92.4526C77.9548 93.349 77.8806 94.0872 77.7486 94.7774C77.5794 95.6588 77.319 96.4502 76.9518 97.198C76.7166 97.6766 76.4276 98.117 76.113 98.5372C77.1624 99.4372 78.5089 100.001 79.9998 100.001H106C109.314 100.001 112 97.3146 112 94.0008V26.0004C112 22.6866 109.314 20.0004 106 20.0004ZM85 25.7504C84.586 25.7504 84.25 25.4146 84.25 25.0004C84.25 24.5862 84.586 24.2504 85 24.2504C85.414 24.2504 85.75 24.5862 85.75 25.0004C85.75 25.4146 85.414 25.7504 85 25.7504ZM97.5 25.5004H88.5C88.225 25.5004 88 25.2754 88 25.0004C88 24.7254 88.225 24.5004 88.5 24.5004H97.5C97.775 24.5004 98 24.7254 98 25.0004C98 25.2754 97.775 25.5004 97.5 25.5004ZM93 98.5004C91.0668 98.5004 89.5 96.9334 89.5 95.0004C89.5 93.0674 91.0668 91.5004 93 91.5004C94.9332 91.5004 96.5 93.0674 96.5 95.0004C96.5 96.9334 94.9332 98.5004 93 98.5004ZM95.26 95.0004C95.26 96.2464 94.2462 97.2604 93 97.2604C91.7538 97.2604 90.74 96.2464 90.74 95.0004C90.74 93.7544 91.7538 92.7404 93 92.7404C94.2462 92.7404 95.26 93.7542 95.26 95.0004ZM36.1422 98.8472C35.9056 98.561 35.6868 98.262 35.4888 97.9448C35.336 97.6998 35.1764 97.4594 35.0478 97.1974C34.6808 96.4504 34.4202 95.6584 34.251 94.776C34.119 94.0872 34.0448 93.3488 34.0172 92.4516C33.9998 91.8832 33.9996 91.1364 33.9998 90.1912V23.8094C33.9996 22.864 33.9998 22.1172 34.0172 21.5476C34.045 20.6502 34.1194 19.9122 34.251 19.2242C34.42 18.3422 34.6808 17.5502 35.0478 16.803C35.1764 16.541 35.3358 16.3006 35.4888 16.0558C35.6866 15.7388 35.9048 15.44 36.1412 15.1544C36.2754 14.992 36.3966 14.8182 36.5426 14.6668C36.6652 14.5396 36.8078 14.4358 36.938 14.317C36.823 14.2878 36.7174 14.248 36.598 14.2234C36.0366 14.108 35.4208 14.0424 34.6598 14.0172C34.1816 14.0016 33.5684 14 32.8084 14H32.2066H9.79304H9.47244C9.44284 14 9.41344 14 9.38444 14C8.53424 14 7.85764 14.0004 7.33964 14.0172C6.57864 14.0424 5.96284 14.1078 5.40164 14.2234C4.72264 14.3632 4.11824 14.576 3.55384 14.8742C2.96884 15.183 2.44004 15.5802 1.98204 16.0552C1.52424 16.5296 1.14104 17.0778 0.842843 17.6848C0.555443 18.2696 0.350243 18.8964 0.215243 19.6006C0.104043 20.1818 0.0408434 20.8202 0.0162434 21.6096C-0.000356613 22.1628 4.33861e-05 22.8892 4.33861e-05 23.8088V90.1918C-0.000156614 91.1114 -0.000356613 91.838 0.0164434 92.3908C0.0406434 93.1788 0.103843 93.8172 0.215443 94.4C0.350643 95.1044 0.555843 95.731 0.843043 96.3156C1.14084 96.922 1.52404 97.4702 1.98224 97.9452C2.44004 98.42 2.96884 98.8172 3.55404 99.1262C4.11844 99.4244 4.72284 99.6372 5.40184 99.7768C5.96284 99.8922 6.57864 99.958 7.33984 99.983C7.81944 99.9988 8.43484 100 9.19864 100H32.8012C33.565 100 34.1804 99.9988 34.66 99.983C35.4212 99.9578 36.037 99.8922 36.5982 99.7768C36.7176 99.7522 36.8232 99.7124 36.9382 99.6832C36.808 99.5646 36.6654 99.4606 36.5428 99.3336C36.397 99.1824 36.2762 99.009 36.1422 98.8472ZM19 38.5004H9.00004C5.96724 38.5004 3.50004 36.0332 3.50004 33.0004V23.0004C3.50004 19.9676 5.96724 17.5004 9.00004 17.5004H19C22.0328 17.5004 24.5 19.9676 24.5 23.0004V33.0004C24.5 36.0332 22.0328 38.5004 19 38.5004ZM22.5 33.6114C22.5 33.8876 22.2762 34.1114 22 34.1114C21.7238 34.1114 21.5 33.8876 21.5 33.6114C21.5 33.3352 21.7238 33.1114 22 33.1114C22.2762 33.1114 22.5 33.3352 22.5 33.6114ZM19 22.8478C20.1046 22.8478 21 21.9522 21 20.8478C21 19.7434 20.1046 18.8478 19 18.8478C17.8954 18.8478 17 19.7432 17 20.8478C17 21.9524 17.8956 22.8478 19 22.8478ZM19 19.8478C19.5514 19.8478 20 20.2964 20 20.8478C20 21.3992 19.5514 21.8478 19 21.8478C18.4486 21.8478 18 21.3992 18 20.8478C18 20.2964 18.4486 19.8478 19 19.8478ZM13 23.1002C13 25.3094 11.2092 27.1002 9.00004 27.1002C6.79084 27.1002 5.00004 25.3094 5.00004 23.1002C5.00004 20.891 6.79084 19.1002 9.00004 19.1002C11.2092 19.1002 13 20.891 13 23.1002ZM13 33.0002C13 35.2094 11.2092 37.0002 9.00004 37.0002C6.79084 37.0002 5.00004 35.2094 5.00004 33.0002C5.00004 30.791 6.79084 29.0002 9.00004 29.0002C11.2092 29.0002 13 30.791 13 33.0002ZM23 28.0002C23 30.2094 21.2092 32.0002 19 32.0002C16.7908 32.0002 15 30.2094 15 28.0002C15 25.791 16.7908 24.0002 19 24.0002C21.2092 24.0002 23 25.791 23 28.0002ZM75.9812 21.573C75.956 20.803 75.8942 20.173 75.7848 19.6006C75.6496 18.8964 75.4445 18.2696 75.1572 17.6848C74.8588 17.0778 74.4754 16.5296 74.018 16.0554C73.5602 15.5806 73.0314 15.1834 72.4462 14.8744C71.8818 14.5764 71.2772 14.3634 70.5984 14.2236C70.037 14.1082 69.4212 14.0426 68.6602 14.0174C68.182 14.0018 67.5688 14.0002 66.8088 14.0002H66.207H45.7934H45.4728C45.4432 14.0002 45.4138 14.0002 45.3848 14.0002C44.5346 14.0002 43.858 14.0006 43.34 14.0174C42.579 14.0426 41.9632 14.108 41.402 14.2236C40.723 14.3634 40.1186 14.5762 39.5542 14.8744C39.3598 14.977 39.1816 15.1038 39.0002 15.2254C38.7048 15.4236 38.4266 15.6438 38.1692 15.89C38.109 15.9476 38.0404 15.9952 37.9824 16.0552C37.8124 16.2312 37.664 16.4274 37.5152 16.623C37.263 16.9544 37.0308 17.303 36.8432 17.6846C36.5558 18.2694 36.3506 18.8962 36.2156 19.6004C36.1044 20.1816 36.0412 20.82 36.0166 21.6094C35.9998 22.1626 36 22.889 36.0002 23.8086V90.1918C36 91.1114 35.9998 91.838 36.0166 92.3908C36.0408 93.1788 36.104 93.8172 36.2156 94.4C36.3508 95.1044 36.556 95.731 36.8432 96.3156C37.0306 96.6972 37.2632 97.0458 37.5154 97.3774C37.6642 97.5728 37.8124 97.7688 37.9824 97.945C38.0406 98.0054 38.1096 98.053 38.17 98.1108C38.4272 98.3566 38.705 98.5768 39.0002 98.7748C39.1818 98.8966 39.3598 99.0234 39.5542 99.126C40.1186 99.4242 40.723 99.637 41.402 99.7766C41.963 99.892 42.5788 99.9578 43.34 99.9828C43.8196 99.9986 44.435 100 45.1988 100H66.8014C67.5652 100 68.1806 99.9986 68.6602 99.9828C69.4214 99.9576 70.0372 99.892 70.5984 99.7766C71.2772 99.637 71.8818 99.4242 72.4462 99.126C73.0318 98.8166 73.5606 98.4194 74.018 97.945C74.313 97.6392 74.5642 97.2932 74.7944 96.9304C74.9214 96.73 75.051 96.5312 75.157 96.3154C75.4444 95.73 75.6496 95.1034 75.7846 94.3998C75.896 93.8176 75.959 93.179 75.9832 92.3908C76.0002 91.8406 76.0003 91.1194 75.9996 90.2064V23.7942C76 22.881 76.0002 22.1596 75.9832 21.6096C75.9828 21.5962 75.9816 21.586 75.9812 21.573ZM73.38 95.4424C73.1728 95.8642 72.9078 96.2438 72.5928 96.5706C72.2816 96.8934 71.9211 97.1642 71.521 97.3756C71.1248 97.585 70.6926 97.736 70.1992 97.8376C69.7505 97.93 69.2406 97.983 68.5954 98.0044C68.1326 98.0196 67.5386 98.0206 66.8016 98.0206H45.199C44.4618 98.0206 43.868 98.0196 43.4056 98.0044C42.7598 97.983 42.2498 97.93 41.801 97.8376C41.3102 97.7366 40.8804 97.5858 40.485 97.3776C40.4832 97.3766 40.4808 97.3764 40.4788 97.3754C40.172 97.2132 39.912 96.9864 39.6556 96.7572C39.5784 96.688 39.4796 96.6456 39.4074 96.5706C39.2444 96.4016 39.1354 96.1828 39.0002 95.987C38.8742 95.8044 38.7202 95.6464 38.6204 95.4426C38.412 95.0186 38.2614 94.5554 38.1602 94.0276C38.0688 93.5506 38.0166 93.0112 37.9956 92.3308C37.9792 91.793 37.9798 91.0866 37.98 90.1922V23.8084C37.9798 22.9142 37.9792 22.2076 37.9956 21.671C38.0168 20.9886 38.069 20.449 38.16 19.9734C38.2614 19.445 38.4118 18.982 38.6204 18.5578C38.7204 18.354 38.8744 18.1962 39.0002 18.0134C39.1354 17.8176 39.2444 17.5988 39.4074 17.43C39.4796 17.3552 39.5782 17.3126 39.6554 17.2436C39.912 17.0142 40.172 16.7872 40.4788 16.6252C40.4806 16.6242 40.483 16.6242 40.4848 16.6232C40.8796 16.4154 41.31 16.2642 41.801 16.1632C42.2494 16.071 42.759 16.018 43.4044 15.9966C43.8918 15.9806 44.524 15.9804 45.395 15.9804H45.793H66.207H66.5344H66.8084C67.5418 15.9804 68.1338 15.9814 68.5946 15.9966C69.2404 16.0178 69.7502 16.0708 70.1988 16.1632C70.6918 16.2646 71.1242 16.4158 71.5216 16.6256C71.9206 16.8362 72.2808 17.1068 72.5926 17.43C72.9074 17.7564 73.1724 18.136 73.3794 18.5572C73.5878 18.982 73.7386 19.4454 73.8398 19.9724C73.931 20.4496 73.9832 20.9888 74.004 21.6712C74.0208 22.2056 74.02 22.9062 74.0196 23.7942V90.2076C74.02 91.0946 74.0206 91.7952 74.004 92.3306C74.0032 92.356 74.0008 92.3746 73.9998 92.3996C73.9774 93.0454 73.9276 93.569 73.84 94.0268C73.7386 94.5552 73.5884 95.0182 73.38 95.4424ZM62 18.867C61.9894 19.8762 61.1628 20.686 60.1534 20.6754H51.8082C50.8136 20.665 50.0102 19.8614 49.9998 18.867C49.9894 17.8578 50.799 17.031 51.8082 17.0204H60.155H60.1914C61.2006 17.0308 62.0106 17.8576 62 18.867Z" fill="#1D1D1F"/>
</g>
<defs>
<clipPath id="clip0_4017_1636">
<rect width="56" height="54" fill="white" transform="scale(2)"/>
</clipPath>
</defs>
</svg>
