<svg width="132" height="108" viewBox="0 0 132 108" fill="none" xmlns="http://www.w3.org/2000/svg">
<g clip-path="url(#clip0_4017_5029)">
<path d="M87.4 32H72V18C72 15.7908 73.791 14 76 14H90.998C91.5502 14 91.998 14.4476 91.998 15V33.8818C90.8082 32.7214 89.1884 32 87.4 32ZM113 14H95C94.4478 14 94 14.4476 94 15V38.6046V95.3954V99C94 99.5522 94.4478 100 95 100H113C113.552 100 114 99.5522 114 99V15C114 14.4476 113.552 14 113 14ZM128 14H122H117C116.448 14 116 14.4476 116 15V99C116 99.5522 116.448 100 117 100H122H128C130.209 100 132 98.2092 132 96V18C132 15.7908 130.209 14 128 14ZM10 96H6C4.8956 96 4 95.1046 4 94V10C4 8.8954 4.8956 8 6 8H10H62C63.1044 8 64 8.8954 64 10V32H68V10C68 6.6862 65.3138 4 62 4H10H6C2.6862 4 0 6.6862 0 10V94C0 97.3138 2.6862 100 6 100H10H45.883C44.856 98.9466 44.2042 97.5474 44.061 96H10ZM91.939 37.9998C91.9656 38.1998 92 38.3974 92 38.6046V95.3954C92 97.9384 89.9404 100 87.4 100H54.212H52.2398H50.6C50.4694 100 50.3466 99.9722 50.2186 99.9616C48.0622 99.7814 46.3426 98.1282 46.0608 96C46.0344 95.8002 46 95.6026 46 95.3954V95V94V38.6046C46 36.0616 48.0596 34 50.6 34H62H63H64H68H69H70H72H87.4C89.7334 34 91.6406 35.7456 91.939 37.9998ZM88 39.4872C88 38.6658 87.3458 38 86.5386 38H51.4614C50.6542 38 50 38.6658 50 39.4872V94.5128C50 95.3342 50.6542 96 51.4614 96H86.5386C87.3458 96 88 95.3342 88 94.5128V39.4872Z" fill="#1D1D1F"/>
</g>
<defs>
<clipPath id="clip0_4017_5029">
<rect width="66" height="54" fill="white" transform="scale(2)"/>
</clipPath>
</defs>
</svg>
