<svg width="54" height="112" viewBox="0 0 54 112" fill="none" xmlns="http://www.w3.org/2000/svg">
<g clip-path="url(#clip0_4017_6757)">
<path d="M37.4268 89.9364H14.5732C12.6148 89.9364 10.7506 89.5346 9.0562 88.8116C10.251 89.9042 10.86 91.2058 11.0644 91.7018C11.5132 92.7916 11.7182 94.0224 11.7182 94.0224C11.7182 94.0224 12.4874 99.843 12.6412 100.805C12.7952 101.766 13.4136 102.269 13.4136 102.269C14.077 102.83 14.7694 103.061 15.8428 103.359C17.7694 103.856 17.795 103.766 17.795 103.766C17.795 103.766 20.4872 104.233 25.975 104.233C31.4628 104.233 34.1548 103.766 34.1548 103.766C34.1548 103.766 34.1804 103.856 36.107 103.359C37.1804 103.061 37.8728 102.83 38.5362 102.269C38.5362 102.269 39.1548 101.766 39.3086 100.805C39.4624 99.843 40.2316 94.0224 40.2316 94.0224C40.2316 94.0224 40.4366 92.7916 40.8854 91.7018C41.0872 91.2118 41.6826 89.9356 42.8472 88.8512C41.1784 89.5486 39.3484 89.9364 37.4268 89.9364ZM19.4966 94.8906C20.8984 94.8906 22.0348 95.6326 22.0348 96.548C22.0348 97.4634 20.8984 98.2054 19.4966 98.2054C18.0948 98.2054 16.9586 97.4634 16.9586 96.548C16.9586 95.6326 18.095 94.8906 19.4966 94.8906ZM19.4966 99.7946C20.8984 99.7946 22.0348 100.272 22.0348 100.862C22.0348 101.451 20.8984 101.929 19.4966 101.929C18.0948 101.929 16.9586 101.451 16.9586 100.862C16.9586 100.272 18.095 99.7946 19.4966 99.7946ZM19.5666 103.755C18.169 103.646 17.0504 103.374 17.0682 103.145C17.086 102.917 18.2332 102.82 19.6308 102.929C21.0284 103.037 22.147 103.31 22.1292 103.538C22.1114 103.767 20.9642 103.863 19.5666 103.755ZM25.976 103.335C24.5742 103.335 23.4378 102.953 23.4378 102.481C23.4378 102.009 24.5742 101.627 25.976 101.627C27.3778 101.627 28.5142 102.009 28.5142 102.481C28.5142 102.953 27.3778 103.335 25.976 103.335ZM25.976 100.487C24.5742 100.487 23.4378 99.8504 23.4378 99.0648C23.4378 98.2792 24.5742 97.6424 25.976 97.6424C27.3778 97.6424 28.5142 98.2792 28.5142 99.0648C28.5142 99.8504 27.3778 100.487 25.976 100.487ZM26.085 95.7986C24.6286 95.7986 23.4478 94.9244 23.4478 93.8462C23.4478 92.768 24.6286 91.8936 26.085 91.8936C27.5414 91.8936 28.7222 92.7678 28.7222 93.8462C28.7222 94.9246 27.5416 95.7986 26.085 95.7986ZM32.6558 103.755C31.2582 103.863 30.1108 103.766 30.0932 103.538C30.0754 103.31 31.194 103.037 32.5916 102.929C33.9892 102.82 35.1366 102.917 35.1542 103.145C35.172 103.373 34.0534 103.646 32.6558 103.755ZM32.619 101.928C31.2172 101.928 30.0808 101.451 30.0808 100.861C30.0808 100.272 31.2172 99.7944 32.619 99.7944C34.0208 99.7944 35.1572 100.272 35.1572 100.861C35.1572 101.451 34.0208 101.928 32.619 101.928ZM32.619 98.2052C31.2172 98.2052 30.0808 97.4632 30.0808 96.5478C30.0808 95.6324 31.2172 94.8904 32.619 94.8904C34.0208 94.8904 35.1572 95.6324 35.1572 96.5478C35.1572 97.4632 34.0208 98.2052 32.619 98.2052ZM37.4268 31.9364C39.2506 31.9364 40.9876 32.2946 42.5868 32.926C41.5828 31.8958 41.0734 30.754 40.8858 30.2988C40.437 29.209 40.232 27.9782 40.232 27.9782C40.232 27.9782 39.4628 22.1576 39.309 21.196C39.155 20.2344 38.5366 19.7316 38.5366 19.7316C37.8732 19.1704 37.1808 18.9396 36.1074 18.6418C34.1808 18.1448 34.1552 18.2344 34.1552 18.2344C34.1552 18.2344 31.463 17.7676 25.9754 17.7676C20.4878 17.7676 17.7954 18.2344 17.7954 18.2344C17.7954 18.2344 17.7698 18.1446 15.8432 18.6418C14.7698 18.9396 14.0774 19.1704 13.414 19.7316C13.414 19.7316 12.7954 20.2346 12.6416 21.196C12.4878 22.1576 11.7186 27.9782 11.7186 27.9782C11.7186 27.9782 11.5136 29.209 11.0648 30.2988C10.8752 30.759 10.3526 31.9192 9.3268 32.9578C10.9494 32.3048 12.7174 31.9364 14.5736 31.9364H37.4268ZM32.6558 18.2458C34.0534 18.3544 35.172 18.6272 35.1542 18.8554C35.1364 19.0836 33.9892 19.1804 32.5916 19.072C31.194 18.9636 30.0754 18.6906 30.0932 18.4624C30.111 18.2342 31.2582 18.1374 32.6558 18.2458ZM32.619 20.0722C34.0208 20.0722 35.1572 20.5498 35.1572 21.1392C35.1572 21.7286 34.0208 22.2062 32.619 22.2062C31.2172 22.2062 30.0808 21.7286 30.0808 21.1392C30.0808 20.5498 31.2172 20.0722 32.619 20.0722ZM32.619 23.7954C34.0208 23.7954 35.1572 24.5374 35.1572 25.4528C35.1572 26.3682 34.0208 27.1102 32.619 27.1102C31.2172 27.1102 30.0808 26.3682 30.0808 25.4528C30.0808 24.5374 31.2172 23.7954 32.619 23.7954ZM26.085 30.107C24.6286 30.107 23.4478 29.2328 23.4478 28.1544C23.4478 27.076 24.6286 26.2018 26.085 26.2018C27.5414 26.2018 28.7222 27.076 28.7222 28.1544C28.7222 29.2328 27.5416 30.107 26.085 30.107ZM25.976 18.6658C27.3778 18.6658 28.5142 19.0482 28.5142 19.52C28.5142 19.9918 27.3778 20.3742 25.976 20.3742C24.5742 20.3742 23.4378 19.9918 23.4378 19.52C23.4378 19.0482 24.5742 18.6658 25.976 18.6658ZM25.976 21.5136C27.3778 21.5136 28.5142 22.1504 28.5142 22.936C28.5142 23.7216 27.3778 24.3584 25.976 24.3584C24.5742 24.3584 23.4378 23.7216 23.4378 22.936C23.4378 22.1504 24.5742 21.5136 25.976 21.5136ZM19.5666 18.2458C20.9642 18.1372 22.1116 18.2342 22.1292 18.4624C22.1468 18.6906 21.0284 18.9634 19.6308 19.072C18.2332 19.1806 17.0858 19.0836 17.0682 18.8554C17.0504 18.6272 18.169 18.3544 19.5666 18.2458ZM19.4966 20.0722C20.8984 20.0722 22.0348 20.5498 22.0348 21.1392C22.0348 21.7286 20.8984 22.2062 19.4966 22.2062C18.0948 22.2062 16.9586 21.7286 16.9586 21.1392C16.9586 20.5498 18.095 20.0722 19.4966 20.0722ZM19.4966 23.7954C20.8984 23.7954 22.0348 24.5374 22.0348 25.4528C22.0348 26.3682 20.8984 27.1102 19.4966 27.1102C18.0948 27.1102 16.9586 26.3682 16.9586 25.4528C16.9586 24.5374 18.095 23.7954 19.4966 23.7954ZM53.8768 46.7792C53.8404 46.5098 53.7818 46.236 53.6594 45.9958C53.4496 45.584 53.0876 45.3344 52.6384 45.255C52.5052 45.2314 52.3546 45.2208 52.209 45.2208C52.132 45.2208 52.0564 45.2238 51.9854 45.2294C51.796 45.2442 51.6238 45.2964 51.4506 45.369C51.1926 39.7026 47.6122 34.9102 42.5868 32.926C40.9876 32.2946 39.2506 31.9364 37.4268 31.9364H14.5736C12.7174 31.9364 10.9494 32.3048 9.3268 32.9578C4.1552 35.039 0.5 40.0936 0.5 46.0096V75.8632C0.5 81.6772 4.0264 86.6658 9.0562 88.8116C10.7506 89.5346 12.6148 89.9364 14.5732 89.9364H37.4268C39.3484 89.9364 41.1784 89.5486 42.8472 88.8512C47.9278 86.728 51.5 81.714 51.5 75.8632V55.0774C51.6576 55.137 51.8134 55.1904 51.9852 55.204C52.0562 55.2096 52.1318 55.2126 52.2088 55.2126C52.3544 55.2126 52.505 55.202 52.6382 55.1784C53.0874 55.099 53.4494 54.8492 53.6592 54.4376C53.7816 54.1974 53.8402 53.9236 53.8766 53.6542C53.9872 52.8378 54 50.2168 54 50.2168C54 50.2168 53.9874 47.5956 53.8768 46.7792ZM49.5002 75.927C49.5002 81.1792 46.1232 85.6464 41.431 87.3034C40.1758 87.7466 38.832 88.0002 37.427 88.0002H14.5732C13.1682 88.0002 11.8244 87.7466 10.5692 87.3034C5.877 85.6464 2.4998 81.1792 2.4998 75.927V46.0096C2.4998 40.8882 5.7108 36.5126 10.2206 34.761C11.573 34.2358 13.0372 33.9362 14.573 33.9362H37.4266C38.9624 33.9362 40.4266 34.2356 41.779 34.761C46.2888 36.5124 49.4998 40.888 49.4998 46.0096L49.5002 75.927Z" fill="#1D1D1F"/>
</g>
<defs>
<clipPath id="clip0_4017_6757">
<rect width="27" height="56" fill="white" transform="scale(2)"/>
</clipPath>
</defs>
</svg>
