<svg width="78" height="108" viewBox="0 0 78 108" fill="none" xmlns="http://www.w3.org/2000/svg">
<g clip-path="url(#clip0_4017_6796)">
<path d="M54.0657 79.6713C55.7677 80.1231 57.5235 80.3406 59.2843 80.3179V97.1735C59.2307 97.8853 58.9314 98.5564 58.4377 99.072C57.9439 99.5875 57.2864 99.9154 56.5775 99.9997H53.4811C52.6847 99.9127 51.9498 99.5308 51.4208 98.9291C50.8919 98.3275 50.6072 97.5496 50.6229 96.7487V78.3687C51.7413 78.8765 52.8913 79.3116 54.0657 79.6713ZM50.6229 76.1771C48.1145 74.8985 45.8681 73.1609 44.0001 71.0543C42.1223 69.0083 40.9904 66.3882 40.7879 63.6185C40.7031 61.2667 41.2576 58.936 42.3925 56.8745C43.3612 55.2919 44.6935 53.9632 46.2788 52.9989C47.8642 52.0347 49.6567 51.4626 51.5075 51.3303C51.5995 51.3303 51.692 51.3318 51.7851 51.3349C54.5689 51.4269 61.2955 52.0525 67.3369 60.0529C67.0102 60.0653 66.6844 60.0943 66.3607 60.1399C64.7399 60.4125 63.1949 61.0246 61.8271 61.9359C60.4593 62.8472 59.2995 64.0373 58.4237 65.4281C56.7466 68.0169 55.8858 71.0498 55.9529 74.1337C55.9688 74.5894 56.0264 75.0426 56.1247 75.4879C56.3495 76.4689 56.756 77.3991 57.3233 78.2305C56.418 78.1638 55.5219 78.0055 54.6485 77.7581C53.2652 77.3434 51.9187 76.8146 50.6229 76.1771ZM52.7541 63.5111C53.1402 63.7763 53.606 63.9003 54.0729 63.862C54.5398 63.8238 54.9792 63.6258 55.3171 63.3013L55.4331 63.1565C55.6456 62.9305 55.8016 62.6576 55.8885 62.3599C55.9753 62.0621 55.9906 61.7481 55.933 61.4434C55.8754 61.1386 55.7465 60.8518 55.557 60.6063C55.3675 60.3609 55.1226 60.1637 54.8423 60.0309L51.8223 58.0873C51.4014 57.7937 50.8941 57.6503 50.3818 57.6799C49.8695 57.7095 49.3821 57.9106 48.9979 58.2507L48.8281 58.4155C48.6521 58.6308 48.5244 58.8814 48.4537 59.1503C48.3831 59.4192 48.371 59.7002 48.4184 59.9742C48.4659 60.2482 48.5716 60.5088 48.7286 60.7384C48.8855 60.9679 49.09 61.1611 49.3281 61.3047L52.7541 63.5111ZM76.2231 71.9021C76.1455 72.3059 76.0405 72.7039 75.9089 73.0935C75.5874 74.0178 75.1603 74.9019 74.6361 75.7283C74.0069 76.8386 73.2048 77.8416 72.2601 78.6997C71.4824 79.4729 70.5553 80.0794 69.5354 80.4823C68.5154 80.8851 67.424 81.0758 66.3279 81.0427C65.0692 81.0454 63.8194 80.8324 62.6327 80.4129C62.4843 80.3435 62.3681 80.2749 62.2285 80.2057C61.6649 79.931 61.1188 79.6216 60.5935 79.2793C60.157 78.995 59.7462 78.673 59.3659 78.3169C59.3371 78.2895 59.3123 78.2619 59.2845 78.2343C58.4225 77.3899 57.83 76.3091 57.5817 75.1283C57.5206 74.8577 57.4799 74.5828 57.4601 74.3061C57.1469 70.6619 59.3355 62.8593 66.6133 61.6179C67.0698 61.5376 67.5324 61.4961 67.9959 61.4937C68.1307 61.4937 68.2739 61.5159 68.4123 61.5243C68.9428 61.5483 69.4676 61.6441 69.9723 61.8091C70.0671 61.8421 70.1501 61.8959 70.2431 61.9315C70.7384 62.1163 71.218 62.3409 71.6771 62.6031C73.1559 63.4556 74.3773 64.6912 75.2127 66.1797C75.7413 67.1569 76.1012 68.2163 76.2773 69.3133C76.3973 70.1736 76.379 71.0475 76.2231 71.9021ZM73.6157 70.3421C73.3183 69.3647 72.1921 69.3861 71.4909 70.3421L68.0061 75.1449C67.4727 76.1435 67.8763 77.3549 68.8113 77.2697H68.8135C70.2816 76.8319 71.557 75.9075 72.4298 74.6485C73.3026 73.3895 73.7208 71.8704 73.6157 70.3421ZM18.7157 80.3175V97.1731C18.7692 97.885 19.0685 98.5562 19.5623 99.0719C20.0561 99.5875 20.7137 99.9155 21.4227 99.9997H24.5189C25.3153 99.9127 26.0503 99.5308 26.5792 98.9292C27.1082 98.3275 27.3928 97.5496 27.3771 96.7487V78.3687C26.2588 78.8762 25.1088 79.311 23.9345 79.6705C22.2325 80.1226 20.4766 80.34 18.7157 80.3175ZM35.6071 56.8741C36.742 58.9356 37.2965 61.2663 37.2117 63.6181C37.0094 66.3878 35.8778 69.0081 34.0001 71.0543C32.1323 73.161 29.8859 74.8986 27.3775 76.1771C26.0817 76.8144 24.7351 77.3428 23.3517 77.7571C22.4767 78.0049 21.5787 78.1632 20.6717 78.2297C21.2421 77.3994 21.6504 76.4688 21.8751 75.4869C21.9734 75.0416 22.031 74.5884 22.0469 74.1327C22.1138 71.0492 21.253 68.0166 19.5761 65.4281C18.7004 64.0373 17.5408 62.8473 16.1731 61.936C14.8055 61.0246 13.2608 60.4125 11.6401 60.1397C11.3164 60.0941 10.9906 60.0651 10.6639 60.0527C16.7053 52.0527 23.4319 51.4267 26.2157 51.3347C26.3091 51.3317 26.4009 51.3301 26.4933 51.3301C28.3439 51.4627 30.1363 52.0349 31.7214 52.9991C33.3065 53.9634 34.6385 55.2916 35.6071 56.8741ZM29.1725 58.4141L29.0027 58.2493C28.6185 57.9092 28.1311 57.7081 27.6188 57.6785C27.1065 57.6489 26.5992 57.7923 26.1783 58.0859L23.1583 60.0295C22.8781 60.1623 22.6332 60.3595 22.4436 60.6049C22.2541 60.8504 22.1253 61.1372 22.0676 61.4419C22.01 61.7467 22.0253 62.0607 22.1121 62.3584C22.1989 62.6561 22.3549 62.9291 22.5673 63.1551L22.6835 63.2999C23.0214 63.6244 23.4608 63.8224 23.9277 63.8606C24.3946 63.8989 24.8604 63.7749 25.2465 63.5097L28.6741 61.3033C28.9119 61.1595 29.116 60.9664 29.2727 60.7369C29.4294 60.5074 29.5349 60.2469 29.5822 59.9731C29.6295 59.6993 29.6174 59.4185 29.5467 59.1498C29.4761 58.8811 29.3483 58.6292 29.1725 58.4141ZM18.7157 78.2341C18.6879 78.2617 18.6631 78.2891 18.6343 78.3165C18.2541 78.6726 17.8433 78.9946 17.4067 79.2789C16.8813 79.6212 16.3352 79.9306 15.7715 80.2053C15.6315 80.2745 15.5159 80.3431 15.3675 80.4125C14.1808 80.832 12.931 81.045 11.6723 81.0423C10.5762 81.0754 9.48489 80.8847 8.46495 80.4819C7.44501 80.0791 6.51786 79.4727 5.7401 78.6997C4.79524 77.8415 3.99312 76.8382 3.3639 75.7277C2.83968 74.9013 2.41259 74.0172 2.0911 73.0929C1.95945 72.7033 1.85448 72.3053 1.7769 71.9015C1.62097 71.0469 1.60267 70.1728 1.7227 69.3125C1.89896 68.2158 2.25895 67.1566 2.7875 66.1797C3.62317 64.6913 4.8449 63.4559 6.3239 62.6037C6.78263 62.3417 7.26179 62.1173 7.7567 61.9327C7.8503 61.8969 7.9337 61.8429 8.0287 61.8097C8.53343 61.6447 9.05822 61.5489 9.5887 61.5249C9.7271 61.5165 9.8703 61.4943 10.0051 61.4943C10.4686 61.4967 10.9312 61.5382 11.3877 61.6185C18.6655 62.8599 20.8541 70.6625 20.5409 74.3067C20.5211 74.5834 20.4804 74.8583 20.4193 75.1289C20.1708 76.3098 19.5779 77.3897 18.7157 78.2341ZM9.9941 75.1449L6.5093 70.3425C5.8081 69.3865 4.6819 69.3651 4.3845 70.3425C4.28368 71.0916 4.33323 71.8532 4.53024 72.5829C4.72725 73.3126 5.06778 73.9957 5.5319 74.5923C5.92525 75.2651 6.45262 75.8499 7.08131 76.3104C7.71001 76.771 8.42662 77.0975 9.1867 77.2697C10.1219 77.3549 10.5275 76.1435 9.9941 75.1449Z" fill="#1D1D1F"/>
</g>
<defs>
<clipPath id="clip0_4017_6796">
<rect width="39" height="54" fill="white" transform="scale(2)"/>
</clipPath>
</defs>
</svg>
