<svg width="30" height="108" viewBox="0 0 30 108" fill="none" xmlns="http://www.w3.org/2000/svg">
<g clip-path="url(#clip0_4017_6789)">
<path d="M1.24 18.48H2.5C2.82568 18.4774 3.14869 18.5389 3.45059 18.6611C3.75249 18.7833 4.02736 18.9638 4.25951 19.1922C4.49165 19.4206 4.67653 19.6926 4.80359 19.9925C4.93064 20.2923 4.99738 20.6143 5 20.94V60.48C5 63.1322 6.05357 65.6757 7.92893 67.5511C9.8043 69.4264 12.3478 70.48 15 70.48C17.6522 70.48 20.1957 69.4264 22.0711 67.5511C23.9464 65.6757 25 63.1322 25 60.48V20.94C25 19.58 25 18.48 27.5 18.48H28.76C29.0889 18.48 29.4043 18.3494 29.6368 18.1168C29.8694 17.8843 30 17.5689 30 17.24C30 16.9111 29.8694 16.5957 29.6368 16.3632C29.4043 16.1306 29.0889 16 28.76 16H1.24C0.911132 16 0.595733 16.1306 0.363188 16.3632C0.130642 16.5957 0 16.9111 0 17.24C0 17.5689 0.130642 17.8843 0.363188 18.1168C0.595733 18.3494 0.911132 18.48 1.24 18.48ZM15 30.48C15.4896 30.4839 15.9671 30.6327 16.3723 30.9076C16.7775 31.1825 17.0923 31.5712 17.2769 32.0247C17.4616 32.4782 17.5078 32.9762 17.4099 33.456C17.3119 33.9357 17.0742 34.3757 16.7266 34.7206C16.379 35.0654 15.937 35.2996 15.4565 35.3937C14.976 35.4878 14.4784 35.4375 14.0264 35.2492C13.5744 35.061 13.1882 34.7431 12.9166 34.3357C12.645 33.9283 12.5 33.4496 12.5 32.96C12.5026 32.6343 12.5694 32.3123 12.6964 32.0125C12.8235 31.7126 13.0083 31.4406 13.2405 31.2122C13.4726 30.9838 13.7475 30.8033 14.0494 30.6811C14.3513 30.5589 14.6743 30.4974 15 30.5V30.48ZM15 40.68C15.4896 40.6839 15.9671 40.8327 16.3723 41.1076C16.7775 41.3825 17.0923 41.7712 17.2769 42.2247C17.4616 42.6782 17.5078 43.1762 17.4099 43.656C17.3119 44.1357 17.0742 44.5757 16.7266 44.9206C16.379 45.2654 15.937 45.4996 15.4565 45.5937C14.976 45.6878 14.4784 45.6375 14.0264 45.4492C13.5744 45.261 13.1882 44.9431 12.9166 44.5357C12.645 44.1283 12.5 43.6496 12.5 43.16C12.5105 42.5039 12.7785 41.8783 13.2462 41.418C13.7139 40.9578 14.3438 40.6999 15 40.7V40.68ZM15 50.56C15.4896 50.5639 15.9671 50.7127 16.3723 50.9876C16.7775 51.2625 17.0923 51.6512 17.2769 52.1047C17.4616 52.5582 17.5078 53.0562 17.4099 53.536C17.3119 54.0157 17.0742 54.4557 16.7266 54.8006C16.379 55.1454 15.937 55.3796 15.4565 55.4737C14.976 55.5678 14.4784 55.5175 14.0264 55.3292C13.5744 55.141 13.1882 54.8231 12.9166 54.4157C12.645 54.0083 12.5 53.5296 12.5 53.04C12.5105 52.3839 12.7785 51.7583 13.2462 51.298C13.7139 50.8378 14.3438 50.5799 15 50.58V50.56ZM28.76 97.5H27.5C25 97.5 25 96.4 25 95.04V67.8C23.8381 69.3561 22.3292 70.6195 20.5932 71.4899C18.8571 72.3602 16.942 72.8134 15 72.8134C13.058 72.8134 11.1429 72.3602 9.40683 71.4899C7.67081 70.6195 6.16185 69.3561 5 67.8V95.06C4.99738 95.3857 4.93064 95.7077 4.80359 96.0075C4.67653 96.3074 4.49165 96.5794 4.25951 96.8078C4.02736 97.0362 3.75249 97.2167 3.45059 97.3389C3.14869 97.4611 2.82568 97.5226 2.5 97.52H1.24C0.911132 97.52 0.595733 97.6506 0.363188 97.8832C0.130642 98.1157 0 98.4311 0 98.76C0 99.0889 0.130642 99.4043 0.363188 99.6368C0.595733 99.8694 0.911132 100 1.24 100H28.76C29.0889 100 29.4043 99.8694 29.6368 99.6368C29.8694 99.4043 30 99.0889 30 98.76C30 98.4311 29.8694 98.1157 29.6368 97.8832C29.4043 97.6506 29.0889 97.52 28.76 97.52V97.5Z" fill="#1D1D1F"/>
</g>
<defs>
<clipPath id="clip0_4017_6789">
<rect width="15" height="54" fill="white" transform="scale(2)"/>
</clipPath>
</defs>
</svg>
