<svg width="44" height="108" viewBox="0 0 44 108" fill="none" xmlns="http://www.w3.org/2000/svg">
<g clip-path="url(#clip0_4017_6803)">
<path d="M42 45.9991C41.9995 42.3028 40.9746 38.6789 39.0391 35.5297C37.1037 32.3806 34.3334 29.8294 31.0357 28.1594C27.7381 26.4895 24.0422 25.766 20.3583 26.0695C16.6744 26.3729 13.1467 27.6913 10.1667 29.8783C7.18676 32.0653 4.87119 35.0353 3.47706 38.4587C2.08293 41.8821 1.66479 45.6249 2.26907 49.2715C2.87334 52.9182 4.47638 56.326 6.90023 59.1167C9.32408 61.9074 12.4739 63.9718 16 65.0807V81.9991H18V99.9991H26V81.9991H28V65.0807C32.0598 63.8029 35.6063 61.2636 38.124 57.832C40.6417 54.4004 41.9995 50.2553 42 45.9991ZM24 97.9991H20V81.9991H24V97.9991ZM26 79.9991H18V65.5973C20.6398 66.1331 23.3602 66.1331 26 65.5973V79.9991ZM22 63.9991C18.4399 63.9991 14.9598 62.9435 11.9997 60.9656C9.03966 58.9877 6.73255 56.1765 5.37018 52.8874C4.0078 49.5984 3.65134 45.9792 4.34587 42.4875C5.04041 38.9959 6.75474 35.7886 9.27209 33.2712C11.7894 30.7539 14.9967 29.0395 18.4884 28.345C21.98 27.6505 25.5992 28.0069 28.8883 29.3693C32.1774 30.7317 34.9886 33.0388 36.9665 35.9989C38.9443 38.959 40 42.4391 40 45.9991C39.9947 50.7714 38.0966 55.3467 34.7221 58.7212C31.3476 62.0957 26.7723 63.9939 22 63.9991ZM22 30.9991C19.0333 30.9991 16.1332 31.8789 13.6665 33.5271C11.1997 35.1753 9.27713 37.518 8.14181 40.2589C7.0065 42.9998 6.70945 46.0158 7.28823 48.9255C7.86701 51.8352 9.29562 54.508 11.3934 56.6057C13.4912 58.7035 16.1639 60.1321 19.0737 60.7109C21.9834 61.2897 24.9994 60.9927 27.7403 59.8573C30.4812 58.722 32.8238 56.7994 34.4721 54.3327C36.1203 51.866 37 48.9659 37 45.9991C37 44.0293 36.612 42.0788 35.8582 40.2589C35.1044 38.439 33.9995 36.7854 32.6066 35.3925C31.2137 33.9997 29.5601 32.8948 27.7403 32.141C25.9204 31.3871 23.9698 30.9991 22 30.9991ZM22 60.4991C19.1322 60.4991 16.3288 59.6487 13.9442 58.0555C11.5597 56.4622 9.70122 54.1976 8.60375 51.5481C7.50628 48.8985 7.21914 45.9831 7.77862 43.1703C8.33811 40.3576 9.7191 37.774 11.747 35.7461C13.7748 33.7182 16.3585 32.3372 19.1712 31.7778C21.9839 31.2183 24.8994 31.5054 27.5489 32.6029C30.1984 33.7004 32.463 35.5589 34.0563 37.9434C35.6496 40.3279 36.5 43.1313 36.5 45.9991C36.4957 49.8435 34.9666 53.5291 32.2483 56.2474C29.5299 58.9657 25.8443 60.4948 22 60.4991Z" fill="#1D1D1F"/>
</g>
<defs>
<clipPath id="clip0_4017_6803">
<rect width="22" height="54" fill="white" transform="scale(2)"/>
</clipPath>
</defs>
</svg>
