<svg width="50" height="108" viewBox="0 0 50 108" fill="none" xmlns="http://www.w3.org/2000/svg">
<g clip-path="url(#clip0_4017_6749)">
<path d="M50 40.1999H47.9936C47.945 35.4047 45.153 31.2769 41.1134 29.2881C39.123 27.9363 37.9414 26.0495 37.7532 24.0069L36.879 16.4353C36.6066 14.3581 36.266 14.0515 33.065 13.3705C33.065 13.3705 28.2634 12.7461 23.9668 12.7461C19.6702 12.7461 14.8686 13.3707 14.8686 13.3707C11.6674 14.0517 11.3268 14.3583 11.0544 16.4355L10.1804 24.0071C9.9918 26.0527 8.8548 27.9425 6.8734 29.2945C2.8052 31.3033 0 35.4817 0 40.3259V72.1677C0 76.9429 2.7246 81.0741 6.6992 83.1151C8.8036 84.5097 9.9292 86.6161 10.125 88.7399L10.999 96.3115C11.2714 98.3887 11.612 98.6953 14.8132 99.3765C14.8132 99.3765 19.6148 100.001 23.9114 100.001C28.208 100.001 33.0096 99.3765 33.0096 99.3765C36.2108 98.6953 36.5512 98.3889 36.8236 96.3115L37.6978 88.7399C37.8896 86.6595 39.1068 84.5797 41.165 83.1805C45.2126 81.1643 48 76.9965 48 72.1677V50.6599H50V40.1999ZM46 72.1677C46 77.8521 41.3754 82.4767 35.691 82.4767H12.3092C6.6246 82.4767 2 77.8521 2 72.1677V40.3259C2 34.6413 6.6246 30.0167 12.3092 30.0167H35.691C41.3754 30.0167 46 34.6413 46 40.3259V50.6599V72.1677Z" fill="#1D1D1F"/>
</g>
<defs>
<clipPath id="clip0_4017_6749">
<rect width="25" height="54" fill="white" transform="scale(2)"/>
</clipPath>
</defs>
</svg>
