<svg width="56" height="108" viewBox="0 0 56 108" fill="none" xmlns="http://www.w3.org/2000/svg">
<g clip-path="url(#clip0_4017_6740)">
<path d="M15.4192 90.5478H37.4136C37.3336 92.1032 37.2488 93.6252 37.1646 95.0214H15.6676C15.5836 93.6256 15.4992 92.1038 15.4192 90.5478ZM15.8112 97.2696C15.8846 98.3448 15.9558 99.2672 16.0224 99.9712H36.8092C36.876 99.267 36.9474 98.3444 37.0206 97.2696C37.0374 97.024 37.0542 96.7816 37.071 96.5214H15.761C15.7778 96.7818 15.7946 97.024 15.8112 97.2696ZM54.6206 54.2748V56.163C55.0183 56.2893 55.3659 56.5381 55.6135 56.8739C55.8611 57.2098 55.9962 57.6154 55.9992 58.0326V67.046C55.9962 67.4633 55.8612 67.8688 55.6135 68.2047C55.3659 68.5405 55.0183 68.7894 54.6206 68.9156V70.3506L53.6122 70.406C53.3719 70.4044 53.1355 70.4662 52.9268 70.5853C52.718 70.7044 52.5445 70.8765 52.4236 71.0842C52.2825 71.3638 52.1579 71.6515 52.0504 71.9458V71.9244C51.4508 74.1295 50.404 76.1877 48.975 77.971C48.3938 79.0387 47.6614 80.0168 46.8006 80.8752C46.4639 81.2315 46.242 81.6808 46.1638 82.1648C46.1262 82.4096 46.0878 82.6848 46.0512 82.9538C45.9532 83.6786 45.8712 84.3712 45.8712 84.3712C45.8559 85.1808 45.5406 85.9558 44.9863 86.5461C44.432 87.1363 43.6782 87.4997 42.8712 87.5658H42.4572L42.2034 96.0032C41.9758 96.422 41.9116 97 40.41 97H39.0668C39.256 94.3856 39.4394 91.02 39.6046 87.5658C39.6262 87.1085 39.6476 86.6507 39.6688 86.1926C39.7014 85.4873 39.733 84.7849 39.7638 84.0854C39.7732 83.8676 39.7838 83.651 39.7924 83.4344C39.1492 83.5772 38.476 83.7004 37.7642 83.8006C37.7602 83.8948 37.7558 83.9904 37.7514 84.0854C37.7426 84.2896 37.7338 84.489 37.7242 84.6972C37.7021 85.1865 37.6791 85.685 37.6552 86.1926C37.6338 86.6456 37.6118 87.1046 37.5892 87.5658C37.5774 87.8089 37.5652 88.0523 37.5528 88.2962H15.267C15.2549 88.0522 15.2428 87.8087 15.2308 87.5658C15.2084 87.1058 15.1864 86.6458 15.165 86.1926C15.141 85.686 15.118 85.1864 15.096 84.6972C15.0864 84.4884 15.0778 84.29 15.0684 84.0854L15.058 83.8454C14.3563 83.7454 13.6801 83.6194 13.0294 83.4674C13.0384 83.6731 13.0474 83.8793 13.0566 84.086C13.087 84.7848 13.1186 85.4872 13.1512 86.1932C13.1723 86.6519 13.1937 87.1096 13.2154 87.5664C13.38 91.0232 13.563 94.3864 13.7516 97.0006H12.8316C11.3296 97.0006 11.2656 96.4226 11.0382 96.0038L10.7842 87.5664H10.2616C9.45479 87.5001 8.7013 87.1366 8.14721 86.5464C7.59312 85.9561 7.2779 85.1812 7.26263 84.3718C7.26263 84.3718 6.96623 81.8796 6.82943 81.4038C6.31073 80.6616 5.70195 79.9867 5.01703 79.3944C4.74843 79.1378 4.55043 78.9544 4.55043 78.9544L4.63043 78.9928C3.10754 77.4222 1.91348 75.5635 1.11823 73.5255C0.322986 71.4875 -0.0574491 69.3113 -0.00077314 67.1244V39.2712C-0.0697917 36.9105 0.369392 34.5625 1.28702 32.3864C2.20466 30.2102 3.5793 28.2567 5.31783 26.6582C5.81943 26.1645 6.26236 25.6145 6.63783 25.0192C6.77463 24.5434 7.07103 22.0512 7.07103 22.0512C7.09152 21.2658 7.39368 20.5139 7.92237 19.9328C8.45107 19.3516 9.17107 18.9799 9.95103 18.8854C9.98223 14.1672 10.1376 8.1172 10.7752 8H41.992C42.629 8.117 42.7564 14.16 42.7672 18.8776C43.5545 18.9647 44.2834 19.3343 44.8189 19.9179C45.3543 20.5014 45.66 21.2594 45.6792 22.0512C45.6792 22.0512 45.7614 22.7438 45.8592 23.4684C45.896 23.7384 45.9344 24.0128 45.9718 24.2574C46.0502 24.7414 46.2721 25.1908 46.6088 25.5472C47.3918 26.3379 48.1164 27.1844 48.7768 28.08L48.7368 28.0556C50.2868 29.8303 51.4203 31.9292 52.0542 34.1986C52.1597 34.4887 52.2828 34.7722 52.4226 35.0474C52.5435 35.2551 52.717 35.4272 52.9258 35.5463C53.1345 35.6654 53.3709 35.7272 53.6112 35.7256L54.6196 35.781V39.12C55.0174 39.246 55.3651 39.4947 55.6129 39.8305C55.8607 40.1662 55.996 40.5717 55.9992 40.989V49.1018C55.9962 49.519 55.8611 49.9246 55.6135 50.2605C55.3659 50.5963 55.0183 50.8451 54.6206 50.9714V54.2748ZM10.6792 84.06H10.6028C10.4642 84.06 10.3269 84.0873 10.1988 84.1404C10.0707 84.1934 9.9543 84.2712 9.85626 84.3692C9.75822 84.4673 9.68045 84.5837 9.62739 84.7118C9.57434 84.8399 9.54703 84.9771 9.54703 85.1158C9.54703 85.2544 9.57434 85.3917 9.62739 85.5198C9.68045 85.6479 9.75822 85.7643 9.85626 85.8624C9.9543 85.9604 10.0707 86.0382 10.1988 86.0912C10.3269 86.1443 10.4642 86.1716 10.6028 86.1716H10.7428L10.6792 84.06ZM49.7252 39.1542C49.7252 30.5908 43.6112 25.0576 34.149 25.0576H18.581C8.97723 25.0576 3.01123 30.459 3.01123 39.1542V67.0634C3.01123 75.8578 9.01843 81.1082 19.0806 81.1082C19.3906 81.1082 19.7062 81.1032 20.025 81.0934L20.0812 81.0916H20.137L31.537 81.1598C35.4516 81.4373 39.3735 80.7345 42.948 79.1148C45.0303 77.871 46.7512 76.1045 47.9403 73.9905C49.1293 71.8765 49.7451 69.4884 49.7266 67.063L49.7252 39.1542ZM42.7652 20.2872C42.7632 21.0584 42.759 21.7146 42.7544 22.2242C42.9453 22.1449 43.1086 22.0111 43.2239 21.8394C43.3391 21.6678 43.4012 21.466 43.4024 21.2593C43.4035 21.0526 43.3437 20.8501 43.2304 20.6772C43.117 20.5043 42.9552 20.3686 42.7652 20.2872ZM9.37563 21.252C9.37789 21.4427 9.43219 21.6292 9.53268 21.7914C9.63317 21.9535 9.77602 22.0851 9.94583 22.172C9.94363 21.68 9.94263 21.0592 9.94363 20.334C9.77492 20.4211 9.63308 20.5525 9.53328 20.714C9.43348 20.8755 9.37807 21.0621 9.37563 21.252ZM43.5696 85.1148C43.5673 84.8446 43.4615 84.5856 43.2739 84.3912C43.0864 84.1967 42.8313 84.0816 42.5614 84.0696L42.4984 86.1696H42.5098C42.7899 86.1693 43.0586 86.0582 43.2571 85.8606C43.4556 85.663 43.568 85.3949 43.5696 85.1148Z" fill="#1D1D1F"/>
</g>
<defs>
<clipPath id="clip0_4017_6740">
<rect width="28" height="54" fill="white" transform="scale(2)"/>
</clipPath>
</defs>
</svg>
