<svg width="70" height="108" viewBox="0 0 70 108" fill="none" xmlns="http://www.w3.org/2000/svg">
<g clip-path="url(#clip0_4017_6817)">
<path d="M35 32C25.9826 32 17.3346 35.5821 10.9584 41.9584C4.58213 48.3346 1 56.9826 1 66C1 75.0174 4.58213 83.6654 10.9584 90.0416C17.3346 96.4179 25.9826 100 35 100C44.0174 100 52.6654 96.4179 59.0416 90.0416C65.4179 83.6654 69 75.0174 69 66C69 56.9826 65.4179 48.3346 59.0416 41.9584C52.6654 35.5821 44.0174 32 35 32ZM44 48.3C44.8627 48.2251 45.7213 48.4841 46.3986 49.0237C47.0759 49.5633 47.5203 50.3423 47.64 51.2H46C45.879 50.7674 45.6159 50.3881 45.2531 50.1233C44.8903 49.8584 44.4489 49.7234 44 49.74C42.6 49.74 41.74 50.84 41.74 52.68C41.74 54.52 42.6 55.7 44 55.7C44.4489 55.7462 44.8993 55.6276 45.2672 55.3664C45.6352 55.1051 45.8956 54.719 46 54.28H47.64C47.5156 55.131 47.0677 55.9011 46.3897 56.4302C45.7116 56.9592 44.8557 57.2063 44 57.12C43.4355 57.1234 42.8768 57.0074 42.3604 56.7794C41.844 56.5514 41.3817 56.2168 41.0039 55.7974C40.6261 55.378 40.3413 54.8834 40.1683 54.3462C39.9952 53.8089 39.9379 53.241 40 52.68C39.9268 52.1199 39.9767 51.5505 40.1464 51.0117C40.316 50.4729 40.6013 49.9776 40.9822 49.5605C41.3631 49.1434 41.8306 48.8145 42.3518 48.5968C42.8731 48.379 43.4356 48.2778 44 48.3ZM28.94 49.7C28 49.7 27.36 50.06 27.16 50.66H25.54C25.72 49.24 27.08 48.3 29.02 48.3C30.96 48.3 32.36 49.36 32.36 51.16V56.96H30.74V55.76H30.6C30.3292 56.1891 29.9498 56.539 29.5002 56.7743C29.0507 57.0096 28.5469 57.122 28.04 57.1C27.6843 57.1363 27.3249 57.0977 26.9851 56.9867C26.6452 56.8757 26.3324 56.6947 26.0667 56.4554C25.801 56.2161 25.5884 55.9238 25.4426 55.5974C25.2968 55.2709 25.2209 54.9175 25.22 54.56C25.22 53.04 26.36 52.16 28.38 52.04L30.62 52V51.24C30.62 50.22 30 49.7 28.88 49.7H28.94ZM14.24 48.48L15.76 55.02H15.88L17.64 48.48H19.24L21 55.02H21.12L22.64 48.48H24.32L22 56.96H20.24L18.5 50.62H18.3L16.54 56.96H14.82L12.48 48.48H14.24ZM24.94 85.28C18.34 85.28 14.22 80.66 14.22 73.28C14.22 65.9 18.34 61.28 24.94 61.28C31.54 61.28 35.64 65.92 35.64 73.28C35.64 80.64 31.46 85.28 24.88 85.28H24.94ZM35.1 54.72V49.84H33.74V48.5H35.1V46.34H36.78V48.5H38.62V49.84H36.78V54.32C36.78 55.22 37.14 55.62 37.98 55.62C38.1928 55.6405 38.4072 55.6405 38.62 55.62V56.96C38.3163 57.0164 38.0087 57.0498 37.7 57.06C35.78 57.02 35.04 56.36 35.04 54.72H35.1ZM46.44 85.28C41.36 85.28 37.98 82.66 37.7 78.66H40.6C40.94 81.14 43.26 82.66 46.6 82.66C49.94 82.66 52.04 81 52.04 78.66C52.04 76.66 50.76 75.42 47.52 74.66L44.96 74.1C40.3 73.08 38.28 70.98 38.28 67.68C38.28 63.84 41.66 61.14 46.48 61.14C51.3 61.14 54.48 63.92 54.6 67.86H51.64C51.4614 66.6296 50.8047 65.5194 49.8123 64.7705C48.8199 64.0215 47.5722 63.6943 46.34 63.86C43.44 63.86 41.2 65.28 41.2 67.64C41.2 69.48 42.44 70.74 45.62 71.44L48.2 72C53.04 73.06 54.96 74.98 54.96 78.28C54.96 82.58 51.58 85.28 46.38 85.28H46.44ZM56.96 56.96H55.2V51.86C55.2 50.48 54.58 49.86 53.4 49.86C53.112 49.8361 52.8223 49.8749 52.5507 49.9737C52.2792 50.0725 52.0323 50.229 51.827 50.4324C51.6217 50.6358 51.4629 50.8812 51.3616 51.1518C51.2603 51.4224 51.2188 51.7118 51.24 52V56.98H49.56V45.14H51.24V49.82H51.36C51.5898 49.3355 51.9616 48.9325 52.4261 48.6645C52.8905 48.3966 53.4256 48.2764 53.96 48.32C54.3697 48.2964 54.7796 48.3631 55.1607 48.5154C55.5418 48.6678 55.8847 48.902 56.1652 49.2016C56.4457 49.5012 56.6569 49.8588 56.7839 50.249C56.9109 50.6393 56.9505 51.0527 56.9 51.46L56.96 56.96Z" fill="#1D1D1F"/>
<path d="M24.8806 64C20.1206 64 17.1406 67.62 17.1406 73.36C17.1406 79.1 20.1206 82.68 24.8806 82.68C29.6406 82.68 32.6006 79.06 32.6006 73.36C32.6006 67.66 29.6206 64 24.8806 64Z" fill="#1D1D1F"/>
<path d="M26.8398 54.5C26.8398 55.28 27.4998 55.74 28.4198 55.74C28.6988 55.768 28.9805 55.7371 29.2468 55.6492C29.513 55.5614 29.7578 55.4185 29.9652 55.2299C30.1727 55.0413 30.3381 54.8112 30.4509 54.5545C30.5637 54.2979 30.6213 54.0204 30.6198 53.74V53L28.6198 53.14C27.3598 53.3 26.8398 53.72 26.8398 54.5Z" fill="#1D1D1F"/>
</g>
<defs>
<clipPath id="clip0_4017_6817">
<rect width="35" height="54" fill="white" transform="scale(2)"/>
</clipPath>
</defs>
</svg>
