<svg width="78" height="112" viewBox="0 0 78 112" fill="none" xmlns="http://www.w3.org/2000/svg">
<g clip-path="url(#clip0_4017_6765)">
<path d="M33.2307 97.2338C33.2895 97.9062 33.3677 98.5868 33.4677 99.2618L32.3115 99.0586C26.0677 97.889 19.2631 96.348 18.8281 96.2608C9.13709 94.3208 1.30469 79.4878 1.30469 61.3878C1.30469 43.86 8.66789 29.2554 17.9153 26.592C18.4699 26.4322 26.2949 24.7334 32.3105 23.5886L33.4257 23.3788C33.3259 24.0438 33.2253 24.8254 33.1499 25.6572C32.6005 25.9542 32.2421 26.2176 32.1627 26.2892C25.0331 32.6528 19.1145 45.925 19.1145 61.3152C19.1145 76.7054 25.0337 89.9782 32.1633 96.3414L33.2307 97.2338ZM66.9115 88.9734C66.9115 89.4374 66.5341 89.8148 66.0701 89.8148H65.7639C65.7621 89.6228 65.7599 89.4356 65.7573 89.2636C64.3923 89.7048 62.9391 89.9496 61.4271 89.9496H38.5735C37.3995 89.9496 36.2655 89.7902 35.1755 89.5194C35.1671 89.6114 35.1597 89.7144 35.1521 89.815H34.7529C34.3537 89.815 34.0341 89.5296 33.9485 89.156C33.2441 88.9106 32.5599 88.6226 31.9115 88.2734V88.9736C31.9115 90.543 33.1837 91.815 34.7529 91.815H35.0613C35.0135 94.0712 35.1079 97.0212 35.5183 99.4588C36.2901 104.045 36.6535 103.591 36.8805 103.682C37.1075 103.772 37.5615 103.636 37.5615 103.636C37.5615 103.636 47.7717 103.999 50.4539 103.999C53.1361 103.999 63.3463 103.636 63.3463 103.636C63.3463 103.636 63.8005 103.772 64.0275 103.682C64.2545 103.591 64.4651 103.727 65.2369 99.141C65.6129 96.9066 65.7351 94.1048 65.7621 91.815H66.0703C67.6395 91.815 68.9117 90.543 68.9117 88.9736V87.7798C68.2749 88.181 67.6119 88.544 66.9117 88.8408L66.9115 88.9734ZM33.9115 31.8028C33.9115 30.583 34.5367 29.9436 34.7529 29.9436H35.1545C35.2267 30.5556 35.3273 30.943 35.4273 30.9858C35.7451 31.122 36.0629 30.8042 36.3353 30.7588C36.6077 30.7134 38.1515 30.668 38.1515 30.668L38.2545 31.9658C38.3615 31.9634 38.4657 31.9496 38.5733 31.9496H61.4269C61.8395 31.9496 62.2455 31.9764 62.6491 32.0112L62.7557 30.668C62.7557 30.668 64.2995 30.7134 64.5719 30.7588C64.8443 30.8042 65.1621 31.122 65.4799 30.9858C65.5799 30.943 65.6805 30.5556 65.7527 29.9436H66.0697C66.2859 29.9436 66.9111 30.5828 66.9111 31.8028V33.0588C67.6113 33.3554 68.2743 33.7186 68.9111 34.1198V31.8028C68.9111 29.6714 67.6389 27.9436 66.0697 27.9436H65.8417C65.8335 26.5992 65.7175 24.9012 65.3889 22.9488C64.6171 18.3628 64.2537 18.8168 64.0267 18.726C63.7997 18.6352 63.3455 18.7714 63.3455 18.7714C63.3455 18.7714 53.1353 18.4082 50.4531 18.4082C47.7709 18.4082 37.5607 18.7714 37.5607 18.7714C37.5607 18.7714 37.1067 18.6352 36.8797 18.726C36.6527 18.8168 36.2893 18.3628 35.5175 22.9488C35.1889 24.901 35.0729 26.5992 35.0647 27.9436H34.7523C33.1831 27.9436 31.9109 29.6714 31.9109 31.8028V33.626C32.5477 33.283 33.2199 33 33.9109 32.757L33.9115 31.8028ZM78.0003 50.23C78.0003 50.23 77.9873 52.851 77.8769 53.6674C77.8405 53.9368 77.7819 54.2106 77.6595 54.4508C77.4497 54.8626 77.0877 55.1122 76.6385 55.1916C76.5053 55.2152 76.3547 55.2258 76.2091 55.2258C76.1321 55.2258 76.0565 55.2228 75.9855 55.2172C75.8137 55.2036 75.6579 55.15 75.5003 55.0906V75.8764C75.5003 80.895 72.8653 85.2884 68.9117 87.7798C68.2749 88.181 67.6119 88.544 66.9117 88.8408C66.5359 88.9998 66.1489 89.137 65.7573 89.2636C64.3923 89.7048 62.9391 89.9496 61.4271 89.9496H38.5735C37.3995 89.9496 36.2655 89.7902 35.1755 89.5194C34.7587 89.4158 34.3497 89.2958 33.9485 89.156C33.2441 88.9106 32.5599 88.6226 31.9115 88.2734C27.5001 85.8976 24.5003 81.2382 24.5003 75.8766V46.0232C24.5003 40.6616 27.4993 36.0018 31.9109 33.626C32.5477 33.283 33.2199 33 33.9109 32.757C35.2759 32.2772 36.7339 31.9998 38.2545 31.9658C38.3615 31.9634 38.4657 31.9496 38.5733 31.9496H61.4269C61.8395 31.9496 62.2455 31.9764 62.6491 32.0112C64.1487 32.1404 65.5831 32.4962 66.9111 33.0588C67.6113 33.3554 68.2743 33.7186 68.9111 34.1198C72.6933 36.5032 75.2521 40.6302 75.4677 45.3778C75.6357 45.31 75.8021 45.257 75.9855 45.2426C76.0565 45.2372 76.1321 45.234 76.2091 45.234C76.3547 45.234 76.5053 45.2446 76.6385 45.2682C77.0877 45.3476 77.4497 45.5974 77.6595 46.009C77.7819 46.2492 77.8405 46.523 77.8769 46.7924C77.9873 47.6088 78.0003 50.23 78.0003 50.23ZM73.5003 46.023C73.5003 42.1928 71.7019 38.7806 68.9115 36.5672C68.2911 36.0752 67.6219 35.645 66.9115 35.2808C65.2637 34.436 63.4027 33.9496 61.4271 33.9496H38.5735C36.9215 33.9496 35.3467 34.2846 33.9113 34.8878C33.2079 35.1834 32.5399 35.5458 31.9113 35.9634C28.6539 38.128 26.5001 41.827 26.5001 46.0228V75.9258C26.5001 80.1214 28.6537 83.7708 31.9113 85.9354C32.5399 86.353 33.2079 86.7652 33.9113 87.0608C35.3467 87.664 36.9215 87.999 38.5735 87.999H61.4271C62.4163 87.999 63.3727 87.8664 64.2933 87.6408C64.9673 87.4758 65.6217 87.2618 66.2463 86.9888C67.2069 86.5686 68.0999 86.025 68.9115 85.3816C71.7019 83.1682 73.5003 79.756 73.5003 75.926V46.023Z" fill="#1D1D1F"/>
</g>
<defs>
<clipPath id="clip0_4017_6765">
<rect width="39" height="56" fill="white" transform="scale(2)"/>
</clipPath>
</defs>
</svg>
