<svg width="110" height="112" viewBox="0 0 110 112" fill="none" xmlns="http://www.w3.org/2000/svg">
<g clip-path="url(#clip0_4017_6774)">
<path d="M36.579 90.228C35.931 92.818 36.173 95.656 35.999 96.384C35.759 97.44 34.907 98.114 33.685 98.456C31.633 99.028 25.989 99.232 21.989 99.232C17.989 99.232 12.415 99.028 10.363 98.456C9.13897 98.114 8.07697 97.51 7.83697 96.452C7.37297 94.412 7.63497 92.286 7.27097 90.186C6.54097 85.996 5.12697 84.682 2.75897 82.716C2.08834 82.1672 1.51264 81.5118 1.05497 80.776H7.57497V41.676L1.04297 41.686C1.46326 40.9735 1.99231 40.3311 2.61097 39.782C2.71297 39.69 3.53297 38.866 3.53297 38.866C3.53297 38.866 6.50897 36.402 7.29897 30.828C7.49497 29.448 7.66697 27.048 7.89697 26.076C8.13497 25.02 8.98697 24.346 10.213 24.004C12.265 23.43 17.989 23.23 21.989 23.23C25.989 23.23 31.025 23.656 32.889 23.898C34.581 24.118 35.899 24.834 36.255 26.438C36.655 28.244 36.609 30.1 36.935 31.914C36.301 32.234 35.697 32.604 35.115 33.002C34.825 31.82 34.721 30.66 34.633 29.538C34.559 28.574 34.487 27.662 34.293 26.794C34.219 26.454 34.093 25.882 32.605 25.69C29.08 25.2885 25.5365 25.0715 21.989 25.04C16.949 25.04 12.243 25.33 10.803 25.734C9.96097 25.97 9.88897 26.288 9.85497 26.44C9.73497 26.948 9.61497 28.084 9.51097 29.084C9.43497 29.804 9.36097 30.51 9.28297 31.058C8.56697 36.116 6.15697 38.952 5.23697 39.87L29.453 39.838C29.1966 40.4268 28.9762 41.0306 28.793 41.646L9.57697 41.674V80.774H28.819C29.009 81.392 29.227 81.998 29.487 82.582H5.49497C7.35897 84.314 8.58897 86.126 9.24497 89.902C9.43497 90.986 9.47097 92.034 9.50497 93.046C9.54497 94.124 9.58097 95.14 9.79697 96.086C9.84297 96.286 10.307 96.542 10.953 96.726C12.417 97.132 16.953 97.42 21.989 97.42C26.981 97.42 31.649 97.13 33.093 96.726C33.933 96.49 34.007 96.17 34.041 96.018C34.061 95.884 34.075 95.378 34.081 94.97C34.117 93.464 34.173 91.224 34.829 89.13C35.387 89.53 35.969 89.898 36.577 90.226L36.579 90.228ZM79.887 86.338H83.887C84.1522 86.338 84.4065 86.2326 84.5941 86.0451C84.7816 85.8576 84.887 85.6032 84.887 85.338C84.887 85.0728 84.7816 84.8184 84.5941 84.6309C84.4065 84.4434 84.1522 84.338 83.887 84.338H80.813C80.413 85.006 79.971 85.646 79.479 86.246C79.605 86.304 79.739 86.338 79.887 86.338ZM83.887 38.514H81.105C80.7217 37.8217 80.2878 37.1585 79.807 36.53C79.835 36.528 79.859 36.514 79.887 36.514H83.887C84.1522 36.514 84.4065 36.6194 84.5941 36.8069C84.7816 36.9944 84.887 37.2488 84.887 37.514C84.887 37.7792 84.7816 38.0336 84.5941 38.2211C84.4065 38.4086 84.1522 38.514 83.887 38.514ZM96.139 38.514C95.8738 38.514 95.6194 38.4086 95.4319 38.2211C95.2443 38.0336 95.139 37.7792 95.139 37.514C95.139 37.2488 95.2443 36.9944 95.4319 36.8069C95.6194 36.6194 95.8738 36.514 96.139 36.514H100.139C100.404 36.514 100.659 36.6194 100.846 36.8069C101.034 36.9944 101.139 37.2488 101.139 37.514C101.139 37.7792 101.034 38.0336 100.846 38.2211C100.659 38.4086 100.404 38.514 100.139 38.514H96.139ZM88.013 38.514C87.7478 38.514 87.4934 38.4086 87.3059 38.2211C87.1183 38.0336 87.013 37.7792 87.013 37.514C87.013 37.2488 87.1183 36.9944 87.3059 36.8069C87.4934 36.6194 87.7478 36.514 88.013 36.514H92.013C92.2782 36.514 92.5325 36.6194 92.7201 36.8069C92.9076 36.9944 93.013 37.2488 93.013 37.514C93.013 37.7792 92.9076 38.0336 92.7201 38.2211C92.5325 38.4086 92.2782 38.514 92.013 38.514H88.013ZM88.013 86.338C87.7478 86.338 87.4934 86.2326 87.3059 86.0451C87.1183 85.8576 87.013 85.6032 87.013 85.338C87.013 85.0728 87.1183 84.8184 87.3059 84.6309C87.4934 84.4434 87.7478 84.338 88.013 84.338H92.013C92.2782 84.338 92.5325 84.4434 92.7201 84.6309C92.9076 84.8184 93.013 85.0728 93.013 85.338C93.013 85.6032 92.9076 85.8576 92.7201 86.0451C92.5325 86.2326 92.2782 86.338 92.013 86.338H88.013ZM96.139 86.338C95.8738 86.338 95.6194 86.2326 95.4319 86.0451C95.2443 85.8576 95.139 85.6032 95.139 85.338C95.139 85.0728 95.2443 84.8184 95.4319 84.6309C95.6194 84.4434 95.8738 84.338 96.139 84.338H100.139C100.404 84.338 100.659 84.4434 100.846 84.6309C101.034 84.8184 101.139 85.0728 101.139 85.338C101.139 85.6032 101.034 85.8576 100.846 86.0451C100.659 86.2326 100.404 86.338 100.139 86.338H96.139ZM103.433 80.878L108.955 80.894C108.955 86.434 102.673 89.048 102.673 89.048C102.563 92.404 102.439 94.968 102.347 95.604C102.139 97.082 101.351 98.184 100.287 98.664C99.431 99.048 95.113 99.232 90.643 99.232C85.777 99.232 80.733 99.012 79.803 98.594C78.739 98.114 77.951 97.398 77.743 95.918C77.651 95.282 77.437 89.77 77.415 89.048C77.415 89.048 77.203 88.96 76.861 88.786C77.381 88.382 77.875 87.946 78.341 87.484L79.179 87.828H100.909L100.849 89.608H79.235C79.297 91.294 79.459 95.146 79.525 95.668C79.621 96.354 79.849 96.642 80.543 96.954C81.107 97.134 84.765 97.434 90.643 97.434C96.187 97.434 99.083 97.166 99.607 96.998C100.069 96.786 100.451 96.162 100.565 95.352C100.631 94.894 100.751 92.756 100.873 88.992L100.911 87.832L101.981 87.386C102.021 87.37 105.717 85.768 106.837 82.686L81.717 82.61C81.977 82.03 82.197 81.426 82.387 80.81L101.431 80.87V41.666L82.407 41.606C82.2207 40.9931 81.9976 40.392 81.739 39.806L99.535 39.86H103.147V39.87L106.849 39.882C105.737 36.688 101.969 35.098 101.925 35.082L100.845 34.636L100.811 33.47C100.781 32.452 100.577 27.4 100.501 26.798C100.405 26.112 100.177 25.824 99.483 25.512C98.919 25.332 95.261 25.032 89.383 25.032C83.839 25.032 81.063 25.244 80.419 25.468C79.775 25.692 79.577 26.302 79.461 27.112C79.399 27.552 79.285 29.548 79.169 33.022H100.791L100.845 34.636H79.109L78.417 34.924C77.9501 34.4575 77.4552 34.02 76.935 33.614C77.191 33.488 77.355 33.416 77.355 33.416C77.463 30.06 77.587 27.496 77.679 26.862C77.887 25.382 78.675 24.282 79.739 23.802C80.595 23.418 84.915 23.232 89.383 23.232C94.249 23.232 99.293 23.452 100.223 23.872C101.289 24.35 102.075 25.066 102.283 26.546C102.375 27.182 102.589 32.694 102.611 33.416C102.611 33.416 108.955 36.03 108.955 41.688L103.433 41.672V80.878ZM83.609 50.448C83.609 50.448 83.595 53.068 83.485 53.886C83.4566 54.1577 83.3829 54.4227 83.267 54.67C83.227 54.748 83.159 54.79 83.107 54.856C82.9029 55.1451 82.5946 55.3437 82.247 55.41C82.031 55.447 81.8112 55.4557 81.593 55.436C81.4265 55.4173 81.2635 55.3748 81.109 55.31V76.094C81.1039 76.8927 81.031 77.6896 80.891 78.476C80.785 79.098 80.651 79.71 80.467 80.302C80.465 80.314 80.459 80.324 80.455 80.336C80.2265 81.0485 79.9409 81.7414 79.601 82.408C79.321 82.96 79.019 83.5 78.671 84.008L78.667 84.016C78.317 84.526 77.927 85.004 77.517 85.462L77.285 85.718C76.4249 86.6322 75.447 87.4279 74.377 88.084L74.123 88.24C73.5695 88.5672 72.9941 88.8559 72.401 89.104C71.6079 89.8605 70.9735 90.7675 70.535 91.772C70.515 91.822 70.479 91.894 70.463 91.932C70.013 93.024 69.809 94.254 69.809 94.254C69.809 94.254 69.039 100.074 68.885 101.036C68.731 101.998 68.113 102.5 68.113 102.5C67.449 103.062 66.757 103.292 65.683 103.59C63.757 104.088 63.731 103.998 63.731 103.998C63.731 103.998 61.039 104.464 55.551 104.464C50.063 104.464 47.371 103.998 47.371 103.998C47.371 103.998 47.347 104.088 45.419 103.59C44.347 103.292 43.653 103.062 42.991 102.5C42.991 102.5 42.371 101.998 42.217 101.036C42.063 100.074 41.295 94.256 41.295 94.256C41.295 94.256 41.089 93.024 40.641 91.934L40.553 91.74C40.0957 90.7035 39.4283 89.7732 38.593 89.008C38.0231 88.7577 37.4706 88.4697 36.939 88.146L36.687 87.992C35.5427 87.2696 34.5082 86.3866 33.615 85.37C33.2056 84.9092 32.8268 84.4222 32.481 83.912L32.473 83.898C32.0669 83.283 31.7098 82.637 31.405 81.966C31.1442 81.4114 30.9203 80.8401 30.735 80.256L30.725 80.216C30.507 79.4887 30.3485 78.7449 30.251 77.992C30.161 77.3632 30.1136 76.7291 30.109 76.094V46.242C30.1136 45.4413 30.1866 44.6424 30.327 43.854C30.433 43.23 30.567 42.616 30.753 42.024L30.773 41.968C31.0008 41.2645 31.2844 40.5804 31.621 39.922C31.8986 39.3623 32.2133 38.8217 32.563 38.304L32.577 38.288C32.931 37.774 33.325 37.29 33.741 36.828C33.807 36.756 33.873 36.682 33.941 36.612C34.817 35.68 35.819 34.868 36.921 34.202L37.109 34.088C37.677 33.758 38.265 33.46 38.879 33.21C39.6209 32.4519 40.2115 31.5593 40.619 30.58L40.641 30.53C41.089 29.44 41.295 28.21 41.295 28.21C41.295 28.21 42.065 22.39 42.217 21.428C42.369 20.466 42.991 19.964 42.991 19.964C43.653 19.404 44.347 19.172 45.419 18.874C47.347 18.376 47.371 18.466 47.371 18.466C47.371 18.466 50.063 18 55.551 18C61.039 18 63.731 18.466 63.731 18.466C63.731 18.466 63.757 18.376 65.683 18.874C66.757 19.172 67.449 19.402 68.113 19.964C68.113 19.964 68.733 20.466 68.885 21.428C69.039 22.388 69.809 28.21 69.809 28.21C69.809 28.21 70.013 29.44 70.463 30.53L70.469 30.546C70.659 31.006 71.159 32.122 72.139 33.138C73.399 33.628 74.571 34.298 75.623 35.11L75.637 35.12C76.687 35.934 77.619 36.892 78.403 37.968L78.409 37.976C80.0273 40.1989 80.9552 42.8491 81.077 45.596C81.31 45.4941 81.5627 45.445 81.817 45.452C81.963 45.452 82.113 45.462 82.247 45.486C82.607 45.55 82.883 45.752 83.097 46.026C83.153 46.096 83.225 46.144 83.267 46.226C83.391 46.466 83.449 46.742 83.487 47.01C83.595 47.828 83.609 50.448 83.609 50.448ZM79.109 46.242C79.109 41.122 75.899 36.744 71.389 34.994C70.0015 34.4506 68.525 34.1705 67.035 34.168H44.181C42.647 34.168 41.181 34.468 39.829 34.994C35.319 36.744 32.109 41.12 32.109 46.242V76.096C32.109 81.348 35.487 85.816 40.179 87.472C41.433 87.914 42.777 88.168 44.181 88.168H67.035C68.441 88.168 69.783 87.914 71.039 87.472C75.731 85.814 79.109 81.348 79.109 76.096V46.242Z" fill="#1D1D1F"/>
</g>
<defs>
<clipPath id="clip0_4017_6774">
<rect width="55" height="56" fill="white" transform="scale(2)"/>
</clipPath>
</defs>
</svg>
