<svg width="54" height="112" viewBox="0 0 54 112" fill="none" xmlns="http://www.w3.org/2000/svg">
<g clip-path="url(#clip0_4017_6731)">
<path d="M37.4268 89C40.646 89 43.6034 87.9072 45.9746 86.0886C45.9232 86.1534 45.8754 86.2246 45.8224 86.2848C44.9454 87.2806 44.0728 87.7772 43.2314 88.5018C42.4856 89.144 42.0082 89.824 41.6924 90.3486C41.5412 90.5996 41.4154 90.8252 41.337 90.975C40.897 91.818 40.5626 92.4742 39.8882 92.8742C38.9138 93.452 37.5472 93.5002 36.7304 93.5002C36.5674 93.5002 36.426 93.4982 36.3142 93.4982H15.6866C15.5748 93.4982 15.4336 93.5002 15.2704 93.5002C14.4536 93.5002 13.0868 93.4522 12.1118 92.8742C11.4384 92.4742 11.1044 91.818 10.6632 90.975C10.5846 90.8244 10.4576 90.5966 10.305 90.3432C9.9892 89.8192 9.5128 89.142 8.7694 88.5018C7.928 87.7772 7.0556 87.2808 6.1776 86.2848C6.1244 86.2244 6.0766 86.1534 6.0252 86.0884C8.3964 87.9074 11.354 89.0002 14.5736 89.0002L37.4268 89ZM37.4268 31C40.6458 31 43.6028 32.0926 45.974 33.911C45.923 33.8466 45.8754 33.7758 45.8228 33.716C44.9448 32.7204 44.0724 32.224 43.231 31.4996C42.1282 30.5502 41.5784 29.4892 41.3372 29.027C40.896 28.1842 40.5618 27.528 39.8884 27.1282C38.9134 26.5504 37.5466 26.5024 36.7298 26.5024C36.5666 26.5024 36.4254 26.5044 36.3136 26.5044H15.686C15.5744 26.5044 15.433 26.5024 15.2698 26.5024C14.453 26.5024 13.0864 26.5504 12.1122 27.1282C11.4378 27.5282 11.1032 28.1842 10.6634 29.027C10.4212 29.4892 9.8714 30.5502 8.7688 31.4996C7.9272 32.224 7.0548 32.7204 6.1778 33.716C6.125 33.7758 6.0776 33.8464 6.0266 33.9108C8.3976 32.0926 11.3546 31.0002 14.5734 31.0002L37.4268 31ZM40.3612 93.7048C40.0418 93.8926 39.6964 94.0266 39.3432 94.1332C38.4286 94.4086 37.4594 94.458 36.7302 94.458L36.4766 94.457L36.314 94.4562H15.6866L15.5238 94.457L15.2702 94.458C14.541 94.458 13.5718 94.4086 12.6564 94.133C12.3028 94.0266 11.9574 93.8922 11.6374 93.7044C11.6326 93.7016 11.627 93.7004 11.6222 93.6976C11.5192 93.6364 11.441 93.5586 11.3494 93.49C11.4862 94.2396 11.6056 94.888 11.6594 95.16C11.6604 95.1654 11.6628 95.1778 11.6638 95.1828C11.7674 95.7036 11.911 96.448 12.0698 96.951C12.2186 97.4228 12.4276 97.787 12.6604 98.101C13.6024 99.3712 15.0866 99.5002 16.034 99.5002C16.2288 99.5002 16.4004 99.4956 16.5394 99.4956H35.4596C35.5986 99.4956 35.7706 99.5002 35.9654 99.5002C36.9134 99.5002 38.3978 99.3712 39.3394 98.1006C39.572 97.7868 39.7808 97.4226 39.9294 96.951C40.0882 96.448 40.233 95.7036 40.3356 95.1828C40.3364 95.1782 40.3386 95.1672 40.3396 95.1626C40.3932 94.8914 40.5132 94.241 40.6502 93.49C40.5582 93.5588 40.48 93.6366 40.3764 93.698C40.3716 93.7008 40.3662 93.702 40.3612 93.7048ZM16.3926 19.5646L16.5892 19.5666H35.4112L35.6074 19.5646L35.914 19.562C37.3162 19.562 38.4132 19.9204 39.2538 20.5688C39.2498 20.1912 39.2472 19.8766 39.2472 19.6886C39.2472 16.3778 36.9018 16 35.0964 16H16.9042C15.099 16 12.7524 16.3778 12.7524 19.6886C12.7524 19.8768 12.7498 20.1916 12.746 20.5694C13.5864 19.9206 14.6836 19.562 16.0864 19.562L16.3926 19.5646ZM11.7088 26.2662C12.0348 26.0832 12.3828 25.9508 12.7406 25.849C13.6304 25.5956 14.5624 25.5442 15.2696 25.5442L15.5232 25.5454L15.6858 25.5462H36.3134L36.476 25.5454L36.7296 25.5442C37.4368 25.5442 38.3692 25.5956 39.2596 25.8492C39.6176 25.9512 39.966 26.0834 40.2924 26.2664C40.3196 26.2816 40.3508 26.2884 40.3776 26.3044C40.446 26.345 40.4956 26.3982 40.5588 26.4422C40.433 25.7498 40.3248 25.16 40.2716 24.8882C40.269 24.875 40.264 24.8478 40.2618 24.836C40.1588 24.3152 40.0158 23.571 39.8578 23.0682C39.7098 22.5966 39.5018 22.2328 39.2702 21.919C38.333 20.6492 36.8566 20.52 35.914 20.52C35.7202 20.52 35.5494 20.5246 35.4112 20.5246H16.5892C16.4508 20.5246 16.2798 20.52 16.086 20.52C15.1428 20.52 13.666 20.649 12.7294 21.9196C12.498 22.2334 12.2904 22.597 12.1428 23.0684C11.9848 23.5712 11.841 24.3154 11.7388 24.8362C11.7366 24.8476 11.7318 24.874 11.7292 24.8868C11.676 25.1582 11.5674 25.7494 11.4416 26.4426C11.5052 26.3984 11.5548 26.345 11.6238 26.3042C11.6506 26.2882 11.6816 26.2814 11.7088 26.2662ZM35.6578 100.455L35.46 100.453H16.5398L16.3422 100.455L16.0344 100.458C14.6242 100.458 13.5218 100.098 12.6772 99.4474C12.6812 99.8178 12.6836 100.126 12.6836 100.311C12.6836 103.622 15.0414 104 16.8562 104H35.1436C36.9582 104 39.317 103.622 39.317 100.311C39.317 100.126 39.3194 99.8176 39.3234 99.447C38.479 100.098 37.3764 100.458 35.9658 100.458L35.6578 100.455ZM54 49.2802C54 49.2802 53.987 51.9012 53.8766 52.7174C53.8402 52.987 53.7816 53.2608 53.659 53.501C53.4492 53.9126 53.0874 54.1624 52.6382 54.2418C52.4346 54.2778 52.1904 54.2836 51.9852 54.2674C51.8134 54.2538 51.6576 54.2004 51.5 54.1408V74.9266C51.5 79.4798 49.3284 83.5162 45.9746 86.0886C43.6034 87.9072 40.646 89 37.4268 89L14.5736 89.0002C11.354 89.0002 8.3964 87.9074 6.0252 86.0884C2.6716 83.5162 0.5 79.4794 0.5 74.9266V45.073C0.5 40.5194 2.6724 36.4832 6.0266 33.9108C8.3976 32.0926 11.3546 31.0002 14.5734 31.0002L37.4268 31C40.6458 31 43.6028 32.0926 45.974 33.911C49.1678 36.3602 51.2726 40.1402 51.4674 44.428C51.6354 44.3602 51.8018 44.3072 51.9852 44.2928C52.1904 44.2766 52.4346 44.2824 52.6382 44.3184C53.0874 44.3978 53.4494 44.6474 53.659 45.0592C53.7814 45.2994 53.84 45.5732 53.8766 45.8426C53.987 46.659 54 49.2802 54 49.2802ZM49.5 45.0732C49.5 41.7232 48.1268 38.6892 45.9156 36.5C43.7328 34.3386 40.7338 33 37.4268 33H14.5734C11.2662 33 8.2672 34.3386 6.0846 36.5C3.8736 38.6894 2.5002 41.7232 2.5002 45.0732V74.9268C2.5002 78.2768 3.8736 81.3108 6.0846 83.5C8.2674 85.6614 11.2664 87 14.5734 87H37.4268C40.734 87 43.733 85.6614 45.9156 83.5C48.1266 81.3106 49.5 78.2768 49.5 74.9268V45.0732Z" fill="#1D1D1F"/>
</g>
<defs>
<clipPath id="clip0_4017_6731">
<rect width="27" height="56" fill="white" transform="scale(2)"/>
</clipPath>
</defs>
</svg>
