<svg width="70" height="108" viewBox="0 0 70 108" fill="none" xmlns="http://www.w3.org/2000/svg">
<g clip-path="url(#clip0_4017_6810)">
<path d="M69 67C69 73.7246 67.006 80.2981 63.27 85.8894C59.534 91.4807 54.2239 95.8385 48.0113 98.4119C41.7986 100.985 34.9623 101.659 28.3669 100.347C21.7716 99.0348 15.7134 95.7966 10.9584 91.0416C6.2034 86.2866 2.96521 80.2284 1.65332 73.6331C0.341418 67.0377 1.01473 60.2015 3.58811 53.9888C6.16149 47.7761 10.5194 42.466 16.1106 38.73C21.7019 34.9941 28.2755 33 35 33C35.1058 33 35.2076 33.0148 35.313 33.0158C36.3309 33.0953 37.2784 33.5663 37.9564 34.3297C38.6343 35.0932 38.99 36.0897 38.9485 37.1099C38.9071 38.1301 38.4718 39.0945 37.7342 39.8005C36.9966 40.5065 36.014 40.8991 34.993 40.8958V40.9C28.2221 40.8602 21.6974 43.4369 16.7809 48.0925C11.8643 52.7481 8.93583 59.1227 8.6067 65.8857C8.27757 72.6488 10.5732 79.2776 15.0145 84.3886C19.4557 89.4996 25.6994 92.6978 32.4422 93.3156C39.1849 93.9334 45.9058 91.9231 51.2019 87.7043C56.498 83.4855 59.9601 77.3842 60.8654 70.674C61.7708 63.9638 60.0495 57.1631 56.0609 51.6916C52.0722 46.2201 46.1244 42.5005 39.459 41.3092C40.4709 40.2819 41.0951 38.9355 41.2253 37.4994C41.3556 36.0634 40.9837 34.6266 40.1732 33.434C48.195 34.6642 55.5115 38.7251 60.7989 44.8818C66.0864 51.0385 68.9955 58.8844 69 67ZM51.104 67C51.104 70.1851 50.1595 73.2986 48.39 75.9469C46.6205 78.5952 44.1054 80.6593 41.1628 81.8782C38.2201 83.097 34.9822 83.4159 31.8583 82.7946C28.7344 82.1732 25.865 80.6394 23.6128 78.3872C21.3606 76.1351 19.8268 73.2656 19.2054 70.1417C18.5841 67.0179 18.903 63.7799 20.1219 60.8373C21.3407 57.8946 23.4048 55.3795 26.0531 53.61C28.7014 51.8405 31.8149 50.896 35 50.896L35.0546 50.8988C36.0692 50.881 37.0357 50.4629 37.7434 49.7356C38.4512 49.0083 38.8428 48.0308 38.833 47.0161C38.8232 46.0014 38.4128 45.0316 37.6912 44.3181C36.9696 43.6046 35.9952 43.2053 34.9804 43.207V43.201C28.8811 43.1931 23.0105 45.5223 18.5757 49.7096C14.1408 53.897 11.4787 59.6243 11.1367 65.714C10.7947 71.8038 12.7988 77.7931 16.7369 82.4507C20.675 87.1083 26.2479 90.0801 32.3097 90.7552C38.3716 91.4303 44.4618 89.7574 49.3281 86.0803C54.1944 82.4033 57.4671 77.0016 58.4732 70.9858C59.4794 64.9701 58.1426 58.7974 54.7377 53.7369C51.3327 48.6765 46.1184 45.1128 40.1668 43.7786C40.9327 44.9699 41.2588 46.3911 41.0889 47.797C40.919 49.203 40.2638 50.5057 39.2362 51.4802C42.6406 52.4112 45.6453 54.4337 47.7892 57.2373C49.9331 60.0409 51.0976 63.4706 51.104 67ZM34.9726 61.1988V61.1962C36.0238 61.1955 37.0324 60.7809 37.7801 60.0422C38.5279 59.3034 38.9548 58.3 38.9683 57.2489C38.9819 56.1978 38.581 55.1837 37.8525 54.426C37.124 53.6682 36.1264 53.2278 35.0756 53.2C35.0502 53.2 35.0256 53.1962 35 53.1962C31.5884 53.1916 28.2955 54.4488 25.7551 56.7259C23.2146 59.0031 21.606 62.1392 21.2388 65.5311C20.8715 68.9229 21.7716 72.3307 23.7658 75.0988C25.76 77.8669 28.7075 79.7998 32.041 80.5255C35.3746 81.2511 38.8588 80.7184 41.8232 79.0297C44.7876 77.341 47.0228 74.6157 48.0987 71.3782C49.1746 68.1406 49.0152 64.6195 47.6512 61.4924C46.2872 58.3653 43.8149 55.8531 40.71 54.4392L40.5868 54.3838C41.0344 55.2529 41.2709 56.2151 41.2774 57.1926C41.2769 58.222 41.0243 59.2356 40.5417 60.1447C40.059 61.0539 39.361 61.8311 38.5086 62.4082C39.59 63.2456 40.3392 64.4396 40.6228 65.7777C40.9064 67.1157 40.7059 68.511 40.0571 69.715C39.4084 70.9191 38.3534 71.854 37.0799 72.3531C35.8065 72.8522 34.3973 72.8832 33.1031 72.4407C31.8089 71.9981 30.7138 71.1106 30.0126 69.9363C29.3114 68.7619 29.0498 67.3768 29.2741 66.0276C29.4985 64.6784 30.1944 63.4526 31.2379 62.5683C32.2814 61.6841 33.6049 61.1987 34.9726 61.1988Z" fill="#1D1D1F"/>
</g>
<defs>
<clipPath id="clip0_4017_6810">
<rect width="35" height="54" fill="white" transform="scale(2)"/>
</clipPath>
</defs>
</svg>
