<svg width="140" height="112" viewBox="0 0 140 112" fill="none" xmlns="http://www.w3.org/2000/svg">
<g clip-path="url(#clip0_4017_6828)">
<path d="M122.28 88.0298C124.13 88.0298 125.88 87.6098 127.454 86.8778C125.618 88.2158 124.522 90.0238 124.342 91.9778L123.468 99.5498C123.196 101.628 122.856 101.934 119.654 102.616C119.654 102.616 114.854 103.24 110.554 103.24C106.254 103.24 101.458 102.616 101.458 102.616C98.2579 101.936 97.9158 101.628 97.6438 99.5498L96.7698 91.9798C96.5898 90.0198 95.5319 88.2078 93.7038 86.8678C95.329 87.6314 97.1022 88.0281 98.8979 88.0298H122.28ZM122.28 32.0298C124.228 32.0298 126.064 32.4958 127.702 33.3018C125.712 31.9498 124.53 30.0618 124.342 28.0218L123.468 20.4498C123.196 18.3698 122.856 18.0658 119.654 17.3838C119.654 17.3838 114.854 16.7598 110.554 16.7598C106.254 16.7598 101.458 17.3838 101.458 17.3838C98.2579 18.0638 97.9158 18.3718 97.6438 20.4498L96.7698 28.0198C96.5798 30.0658 95.4438 31.9558 93.4618 33.3078C95.1511 32.4685 97.0116 32.0311 98.8979 32.0298H122.28ZM136.912 49.5258C136.912 49.5258 136.898 52.1458 136.788 52.9638C136.759 53.2354 136.686 53.5004 136.57 53.7478C136.471 53.9436 136.327 54.113 136.15 54.2418C135.972 54.3705 135.767 54.4549 135.55 54.4878C135.334 54.5248 135.114 54.5335 134.896 54.5138C134.788 54.5038 134.69 54.4578 134.59 54.4338V75.7198C134.588 78.0663 133.916 80.3634 132.651 82.3401C131.387 84.3168 129.584 85.8926 127.454 86.8778C125.834 87.6351 124.068 88.0283 122.28 88.0298H98.8979C97.1022 88.0281 95.329 87.6314 93.7038 86.8678C91.5795 85.88 89.7814 84.3061 88.5212 82.3312C87.2609 80.3563 86.5909 78.0625 86.5898 75.7198V44.3398C86.5906 42.0426 87.2348 39.7916 88.4494 37.8418C89.664 35.892 91.4004 34.3213 93.4618 33.3078C95.1511 32.4685 97.0116 32.0311 98.8979 32.0298H122.28C124.23 32.0298 126.064 32.4958 127.702 33.3018C129.767 34.3138 131.507 35.8845 132.724 37.8357C133.941 39.7868 134.587 42.0401 134.588 44.3398V44.6198C134.69 44.5938 134.788 44.5478 134.896 44.5398C135.114 44.5228 135.333 44.5308 135.55 44.5638C135.998 44.6438 136.36 44.8938 136.57 45.3038C136.692 45.5438 136.75 45.8198 136.788 46.0878C136.898 46.9058 136.91 49.5278 136.91 49.5278L136.912 49.5258ZM132.59 44.3398C132.59 40.6118 130.58 37.3678 127.606 35.5598C126.006 34.5681 124.162 34.0385 122.28 34.0298H98.8998C97.0169 34.0375 95.1728 34.5664 93.5718 35.5578C90.5978 37.3678 88.5898 40.6118 88.5898 44.3378V75.7218C88.5898 79.4038 90.5458 82.6178 93.4598 84.4418C95.0871 85.4736 96.973 86.0241 98.8998 86.0298H122.28C124.28 86.0298 126.136 85.4318 127.72 84.4418C130.632 82.6178 132.59 79.4038 132.59 75.7218V44.3398ZM56.8378 22.4698H58.0878C59.4678 22.4698 60.5878 23.5758 60.5878 24.9418V64.4698C60.5878 69.9058 65.0878 74.3538 70.5878 74.3538C76.0878 74.3538 80.5878 69.9058 80.5878 64.4698V24.9418C80.5878 23.5758 80.5878 22.4698 83.0878 22.4698H84.3378C85.0258 22.4698 85.5878 21.9138 85.5878 21.2358C85.5878 20.5578 85.0278 19.9998 84.3398 19.9998H56.8398C56.1538 19.9998 55.5898 20.5558 55.5898 21.2358C55.5898 21.9158 56.1518 22.4698 56.8378 22.4698ZM70.5878 34.8238C71.9678 34.8238 73.0878 35.9298 73.0878 37.2938C73.0878 38.6578 71.9678 39.7638 70.5878 39.7638C69.2078 39.7638 68.0878 38.6578 68.0878 37.2938C68.0878 35.9298 69.2078 34.8238 70.5878 34.8238ZM70.5878 44.7058C71.9678 44.7058 73.0878 45.8118 73.0878 47.1758C73.0878 48.5398 71.9678 49.6478 70.5878 49.6478C69.2078 49.6478 68.0878 48.5398 68.0878 47.1758C68.0878 45.8118 69.2078 44.7058 70.5878 44.7058ZM70.5878 54.5878C71.9678 54.5878 73.0878 55.6938 73.0878 57.0598C73.0878 58.4258 71.9678 59.5298 70.5878 59.5298C69.2078 59.5298 68.0878 58.4238 68.0878 57.0598C68.0878 55.6958 69.2078 54.5878 70.5878 54.5878ZM83.0878 104H84.3378C85.0258 104 85.5878 103.444 85.5878 102.766C85.5878 102.088 85.0278 101.53 84.3378 101.53H83.0878C80.5878 101.53 80.5878 100.424 80.5878 99.0598V71.8058C78.3078 74.8338 74.6918 76.8238 70.5878 76.8238C66.4838 76.8238 62.8678 74.8338 60.5878 71.8058V99.0598C60.5878 100.424 59.4678 101.53 58.0878 101.53H56.8378C56.1518 101.53 55.5878 102.086 55.5878 102.764C55.5878 103.442 56.1518 104 56.8378 104H83.0878ZM23.3718 99.9958L23.3458 99.1418C23.3198 98.3498 23.7858 97.2738 24.3798 96.7498L26.9278 94.5038C27.5218 93.9818 28.0278 94.1998 28.0538 94.9918L28.0818 95.8458C28.1058 96.6378 27.6418 97.7138 27.0458 98.2378L24.4978 100.484C23.9038 101.008 23.3978 100.788 23.3718 99.9958ZM11.1818 32.9498C10.9838 33.0918 10.7958 33.2478 10.6018 33.3978C10.7818 33.3038 10.9638 33.2218 11.1458 33.1358C11.1558 33.0758 11.1778 33.0098 11.1818 32.9498ZM12.0618 88.0698L12.0738 88.4618C12.4438 88.7458 12.7738 89.0238 12.9998 89.3098C13.0398 89.3618 13.0678 89.4218 13.1058 89.4758C13.1438 89.4478 13.1758 89.4438 13.2138 89.4098L14.0678 88.6578C13.3854 88.5036 12.7155 88.2983 12.0638 88.0438L12.0598 88.0678L12.0618 88.0698ZM16.8458 30.8758V30.0218C16.8478 29.2298 16.3518 28.1638 15.7458 27.6558L14.2218 26.3758L14.0538 27.7658C13.9938 28.3798 13.8538 29.0078 13.6118 29.6018L15.4278 31.1278C15.8858 31.0718 16.3478 31.0398 16.8178 31.0278C16.8238 30.9718 16.8458 30.9378 16.8458 30.8758ZM11.1818 87.8078C11.1778 87.7558 11.1598 87.6998 11.1518 87.6478C10.9938 87.5738 10.8358 87.5018 10.6818 87.4218C10.8498 87.5498 11.0118 87.6858 11.1818 87.8078ZM13.2138 30.5878C13.1758 30.5538 13.1438 30.5498 13.1078 30.5218C13.0678 30.5758 13.0418 30.6358 12.9998 30.6898C12.7258 31.0075 12.4149 31.2914 12.0738 31.5358L12.0618 31.9298L12.0658 31.9758C12.7232 31.7182 13.3991 31.5109 14.0878 31.3558L13.2138 30.5878ZM21.4038 29.2098C21.9978 28.6858 22.4638 27.6098 22.4398 26.8178L22.4118 25.9638C22.3878 25.1718 21.8818 24.9538 21.2858 25.4758L18.7398 27.7218C18.1458 28.2458 17.6798 29.3218 17.7058 30.1138L17.7318 30.9678C17.7318 30.9858 17.7398 30.9938 17.7418 31.0098H19.3618L21.4058 29.2098H21.4038ZM24.4978 30.5878C23.9238 30.0818 23.4398 30.2818 23.3858 31.0098H24.9778L24.4978 30.5878ZM28.1298 30.8758V30.0218C28.1318 29.2298 27.6378 28.1638 27.0298 27.6558L24.4038 25.4498C23.7978 24.9418 23.2998 25.1718 23.2978 25.9638V26.8198C23.2978 27.6118 23.7918 28.6758 24.3978 29.1838L26.5738 31.0098H28.1058C28.1118 30.9598 28.1298 30.9298 28.1298 30.8758ZM21.3838 30.6518L20.9558 31.0118H22.4598C22.3878 30.3658 21.9398 30.1838 21.3838 30.6518ZM35.6838 90.8118C35.0758 91.3218 34.5798 92.3858 34.5818 93.1778V94.0338C34.5818 94.8258 35.0818 95.0558 35.6878 94.5478L38.3138 92.3418C38.9218 91.8338 39.4158 90.7678 39.4138 89.9758V89.1218C39.4138 89.0758 39.3978 89.0518 39.3938 89.0098H37.8298L35.6838 90.8118ZM35.7838 89.4118L36.2358 89.0118H34.6758C34.7398 89.7158 35.2178 89.9118 35.7838 89.4118ZM40.2998 89.0298L40.2718 89.8838C40.2478 90.6758 40.7118 91.7518 41.3078 92.2758L42.9338 93.7098L43.1118 92.2318C43.1718 91.6238 43.3098 91.0018 43.5478 90.4118L41.8118 88.8838C41.3122 88.9479 40.8095 88.9853 40.3058 88.9958C40.3058 89.0098 40.2998 89.0158 40.2998 89.0298ZM32.6878 29.2098C33.2838 28.6858 33.7478 27.6098 33.7238 26.8178L33.6978 25.9638C33.6718 25.1718 33.1658 24.9538 32.5718 25.4758L30.0218 27.7218C29.4278 28.2458 28.9618 29.3218 28.9878 30.1138L29.0138 30.9678C29.0138 30.9858 29.0218 30.9938 29.0238 31.0098H30.6438L32.6878 29.2098ZM29.0138 89.0298L28.9878 89.8838C28.9618 90.6758 29.4278 91.7518 30.0238 92.2758L32.5718 94.5218C33.1658 95.0438 33.6718 94.8258 33.6978 94.0338L33.7238 93.1798C33.7498 92.3878 33.2838 91.3118 32.6898 90.7878L30.6698 89.0098H29.0178L29.0138 89.0298ZM13.6118 90.3958C13.8558 90.9898 13.9958 91.6158 14.0558 92.2318L14.2218 93.6218L15.7458 92.3418C16.3538 91.8318 16.8478 90.7678 16.8458 89.9758V89.1218C16.8458 89.0698 16.8258 89.0418 16.8238 88.9938C16.3497 88.9829 15.8765 88.9482 15.4058 88.8898L13.6118 90.3958ZM24.3978 90.8118C23.7918 91.3218 23.2978 92.3858 23.2978 93.1778V94.0338C23.2978 94.8258 23.7978 95.0558 24.4038 94.5478L27.0298 92.3418C27.6378 91.8338 28.1318 90.7678 28.1298 89.9758V89.1218C28.1298 89.0758 28.1138 89.0518 28.1098 89.0098H26.5458L24.3978 90.8118ZM21.3838 89.3458C21.9338 89.8058 22.3758 89.6338 22.4558 89.0098H20.9838L21.3838 89.3458ZM17.7298 89.0298L17.7038 89.8838C17.6778 90.6758 18.1438 91.7518 18.7378 92.2758L21.2878 94.5218C21.8818 95.0458 22.3878 94.8258 22.4118 94.0338L22.4398 93.1798C22.4638 92.3878 21.9998 91.3118 21.4038 90.7878L19.3878 89.0098H17.7338L17.7298 89.0298ZM24.4978 89.4098L24.9518 89.0098H23.3918C23.4558 89.7178 23.9318 89.9098 24.4978 89.4098ZM32.6678 89.3458C33.2178 89.8078 33.6598 89.6338 33.7398 89.0098H32.2678L32.6678 89.3458ZM32.6678 30.6518L32.2418 31.0118H33.7438C33.6718 30.3658 33.2238 30.1838 32.6678 30.6518ZM39.4138 30.8758L39.4158 30.0218C39.4158 29.2298 38.9218 28.1658 38.3158 27.6558L35.6878 25.4498C35.0818 24.9418 34.5838 25.1718 34.5838 25.9638L34.5818 26.8198C34.5818 27.6118 35.0758 28.6758 35.6818 29.1858L37.8578 31.0098H39.3898C39.3958 30.9618 39.4138 30.9298 39.4138 30.8758ZM43.5478 29.5838C43.316 29.0018 43.1691 28.3896 43.1118 27.7658L42.9338 26.2878L41.3078 27.7218C40.7138 28.2458 40.2478 29.3218 40.2718 30.1138L40.2998 30.9678C40.2998 30.9918 40.3098 31.0038 40.3118 31.0258C40.8118 31.0358 41.3038 31.0718 41.7898 31.1338L43.5478 29.5838ZM45.0578 31.5078C44.7301 31.2702 44.4314 30.995 44.1678 30.6878C44.1378 30.6518 44.1198 30.6098 44.0918 30.5718C44.0438 30.6038 44.0018 30.6118 43.9518 30.6518L43.1078 31.3618C43.7778 31.5118 44.4278 31.7138 45.0578 31.9578V31.5078ZM35.7818 30.5878C35.2078 30.0818 34.7258 30.2818 34.6698 31.0098H36.2618L35.7818 30.5878ZM45.9378 32.1558C45.9418 32.2158 45.9638 32.2838 45.9718 32.3478C46.1638 32.4378 46.3578 32.5258 46.5458 32.6238C46.3438 32.4678 46.1458 32.3038 45.9378 32.1558ZM43.9518 89.3458C44.0018 89.3858 44.0438 89.3938 44.0918 89.4258C44.1198 89.3878 44.1378 89.3458 44.1678 89.3098C44.3858 89.0338 44.7018 88.7638 45.0578 88.4898V88.0638C44.4338 88.3038 43.7898 88.5038 43.1278 88.6538L43.9518 89.3458ZM16.7978 95.0858L16.7698 94.2318C16.7458 93.4398 16.2398 93.2218 15.6438 93.7438L14.3718 94.8638L14.7898 98.3358L15.7618 97.4778C16.3558 96.9538 16.8218 95.8778 16.7978 95.0858ZM18.8578 21.1418L21.4038 18.8978C21.9158 18.4478 22.3098 17.5978 22.4018 16.8638C21.2418 16.9198 20.2938 17.0038 19.0698 17.1178L18.7378 17.4098C18.1438 17.9338 17.6778 19.0098 17.7038 19.7998L17.7298 20.6558C17.7558 21.4478 18.2638 21.6658 18.8578 21.1418ZM16.8458 20.5618V19.7078C16.8478 19.1338 16.5838 18.4218 16.2098 17.8758C15.4878 18.3518 15.1198 19.0718 14.9658 20.1958L14.9398 20.4058L15.7398 21.0778C16.3478 21.5858 16.8458 21.3538 16.8458 20.5618ZM27.0258 98.9198L24.3978 101.126C23.8678 101.57 23.4438 102.432 23.3418 103.172C24.1618 103.2 25.1218 103.218 26.3518 103.224L27.0318 102.654C27.6378 102.146 28.1318 101.08 28.1318 100.288V99.4338C28.1298 98.6418 27.6318 98.4098 27.0258 98.9198ZM15.7418 98.9198L14.9418 99.5918L14.9658 99.8038C15.1198 100.924 15.4858 101.646 16.2098 102.122C16.5838 101.576 16.8478 100.862 16.8478 100.288V99.4338C16.8458 98.6418 16.3478 98.4098 15.7418 98.9198ZM18.7618 93.7178C18.1538 93.2078 17.6578 93.4398 17.6558 94.2318V95.0858C17.6558 95.8778 18.1498 96.9438 18.7558 97.4518L21.3838 99.6578C21.9898 100.168 22.4878 99.9358 22.4878 99.1438V98.2898C22.4898 97.4978 21.9958 96.4318 21.3878 95.9238L18.7618 93.7178ZM18.8558 98.8538C18.2618 98.3318 17.7558 98.5498 17.7298 99.3418L17.7038 100.198C17.6778 100.988 18.1438 102.064 18.7378 102.588L19.0698 102.88C20.2958 102.994 21.2438 103.078 22.4018 103.134C22.3098 102.4 21.9158 101.55 21.4038 101.1L18.8558 98.8538ZM16.7698 25.7658L16.7978 24.9118C16.8218 24.1198 16.3578 23.0438 15.7618 22.5198L14.7898 21.6618L14.3718 25.1318L15.6458 26.2518C16.2398 26.7778 16.7458 26.5578 16.7698 25.7658ZM38.3098 21.0778C38.9158 21.5858 39.4138 21.3558 39.4138 20.5638L39.4158 19.7078C39.4158 18.9158 38.9218 17.8518 38.3158 17.3438L38.0198 17.0958C37.0778 16.9258 35.9698 16.8418 34.6218 16.8018C34.7198 17.5478 35.1478 18.4218 35.6818 18.8718L38.3098 21.0778ZM35.7818 20.2738C35.1878 19.7518 34.6818 19.9698 34.6558 20.7618L34.6298 21.6158C34.6038 22.4078 35.0698 23.4838 35.6658 24.0078L38.2138 26.2538C38.8078 26.7778 39.3138 26.5578 39.3398 25.7658L39.3658 24.9118C39.3918 24.1198 38.9258 23.0438 38.3318 22.5198L35.7818 20.2738ZM41.3298 26.2798L42.7858 25.0578L42.3778 21.6618L41.3258 22.5438C40.7178 23.0538 40.2238 24.1178 40.2238 24.9098V25.7658C40.2258 26.5578 40.7238 26.7878 41.3298 26.2798ZM30.0458 26.2798L32.6718 24.0738C33.2798 23.5658 33.7738 22.4998 33.7718 21.7078V20.8538C33.7718 20.0618 33.2738 19.8298 32.6678 20.3398L30.0398 22.5438C29.4338 23.0538 28.9398 24.1178 28.9398 24.9098V25.7658C28.9398 26.5578 29.4398 26.7878 30.0458 26.2798ZM27.0258 21.0778C27.6318 21.5858 28.1298 21.3558 28.1298 20.5638V19.7078C28.1318 18.9158 27.6378 17.8518 27.0298 17.3418L26.3498 16.7718C25.1218 16.7798 24.1618 16.7978 23.3418 16.8258C23.4438 17.5658 23.8678 18.4258 24.3978 18.8718L27.0258 21.0778ZM24.4978 20.2738C23.9038 19.7498 23.3978 19.9698 23.3718 20.7618L23.3458 21.6158C23.3198 22.4078 23.7858 23.4838 24.3798 24.0078L26.9278 26.2538C27.5238 26.7758 28.0278 26.5578 28.0538 25.7658L28.0818 24.9118C28.1058 24.1198 27.6418 23.0438 27.0458 22.5198L24.4978 20.2738ZM30.1398 21.1418L32.6878 18.8978C33.2178 18.4298 33.6258 17.5318 33.6938 16.7798C32.7139 16.7664 31.7339 16.7611 30.7538 16.7638L30.0218 17.4098C29.4278 17.9318 28.9618 19.0098 28.9878 19.7998L29.0138 20.6558C29.0398 21.4458 29.5458 21.6658 30.1398 21.1418ZM18.7598 26.2798L21.3878 24.0738C21.9938 23.5658 22.4898 22.4998 22.4878 21.7078V20.8538C22.4878 20.0618 21.9898 19.8298 21.3838 20.3398L18.7558 22.5438C18.1498 23.0538 17.6538 24.1178 17.6558 24.9098V25.7658C17.6558 26.5578 18.1538 26.7878 18.7598 26.2798ZM38.3098 98.9198L35.6818 101.126C35.1478 101.574 34.7198 102.45 34.6218 103.196C35.9698 103.156 37.0758 103.07 38.0198 102.902L38.3138 102.654C38.9218 102.146 39.4158 101.08 39.4138 100.288V99.4338C39.4138 98.6418 38.9158 98.4098 38.3098 98.9198ZM41.5418 21.2198L42.2498 20.5958L42.2018 20.1958C42.0618 19.1718 41.6218 18.5198 40.9538 18.0678C40.6078 18.6178 40.3698 19.3158 40.3878 19.8778L40.4158 20.7338C40.4398 21.5258 40.9458 21.7438 41.5418 21.2218V21.2198ZM40.2258 94.2318L40.2238 95.0858C40.2238 95.8778 40.7178 96.9438 41.3238 97.4518L42.3778 98.3358L42.7858 94.9398L41.3298 93.7198C40.7238 93.2098 40.2258 93.4398 40.2258 94.2318ZM30.0458 93.7178C29.4398 93.2078 28.9418 93.4398 28.9398 94.2318V95.0858C28.9398 95.8778 29.4338 96.9438 30.0398 97.4518L32.6678 99.6578C33.2738 100.168 33.7718 99.9358 33.7718 99.1438V98.2898C33.7738 97.4978 33.2798 96.4318 32.6718 95.9238L30.0458 93.7178ZM35.7818 99.7218L38.3298 97.4778C38.9258 96.9538 39.3898 95.8778 39.3658 95.0858L39.3398 94.2318C39.3138 93.4398 38.8078 93.2198 38.2138 93.7438L35.6638 95.9898C35.0698 96.5138 34.6038 97.5898 34.6298 98.3798L34.6558 99.2358C34.6818 100.028 35.1878 100.246 35.7818 99.7218ZM40.4158 99.2618L40.3878 100.118C40.3698 100.682 40.6078 101.38 40.9558 101.93C41.6218 101.478 42.0618 100.826 42.2018 99.8038L42.2498 99.3998L41.5418 98.7758C40.9478 98.2538 40.4418 98.4698 40.4158 99.2618ZM45.9378 87.8418C46.1178 87.7118 46.2878 87.5698 46.4658 87.4358C46.3018 87.5198 46.1358 87.5958 45.9658 87.6758C45.9598 87.7298 45.9418 87.7878 45.9378 87.8418ZM30.1398 98.8538C29.5458 98.3318 29.0398 98.5498 29.0138 99.3418L28.9878 100.196C28.9618 100.988 29.4278 102.064 30.0238 102.588L30.7538 103.232C31.8418 103.232 32.8178 103.232 33.6938 103.216C33.6258 102.464 33.2178 101.566 32.6878 101.1L30.1398 98.8538ZM56.5898 49.2898C56.5898 49.2898 56.5758 51.9098 56.4658 52.7278C56.4375 52.9995 56.3638 53.2645 56.2478 53.5118C56.1493 53.7076 56.0053 53.877 55.8278 54.0058C55.6504 54.1345 55.4446 54.2189 55.2278 54.2518C55.0238 54.2878 54.7798 54.2918 54.5738 54.2778C54.4072 54.2584 54.2443 54.2153 54.0898 54.1498V74.9358C54.0898 80.3818 50.9898 85.0958 46.4658 87.4358C46.3038 87.5198 46.1358 87.5958 45.9658 87.6758C44.6525 88.2919 43.2509 88.7008 41.8118 88.8838C41.3122 88.9479 40.8095 88.9853 40.3058 88.9958C40.2078 88.9958 40.1138 89.0098 40.0158 89.0098H17.1618C17.0478 89.0098 16.9378 88.9958 16.8218 88.9918C15.8951 88.9709 14.9727 88.8591 14.0678 88.6578C13.0615 88.4298 12.0836 88.0911 11.1518 87.6478C10.9938 87.5738 10.8358 87.5018 10.6818 87.4218C8.3942 86.236 6.47627 84.4426 5.13742 82.241C3.79858 80.0395 3.09028 77.5124 3.08984 74.9358V45.0818C3.08978 42.5196 3.78966 40.006 5.11391 37.8125C6.43817 35.6191 8.33647 33.8291 10.6038 32.6358C10.7798 32.5418 10.9638 32.4598 11.1478 32.3758C12.9215 31.5292 14.853 31.0697 16.8178 31.0278C16.9318 31.0238 17.0458 31.0098 17.1618 31.0098H40.0158C40.1158 31.0098 40.2118 31.0238 40.3118 31.0258C41.9357 31.0611 43.5412 31.3744 45.0578 31.9558C45.3678 32.0758 45.6738 32.2078 45.9718 32.3478C46.1658 32.4378 46.3598 32.5278 46.5458 32.6238C48.721 33.7653 50.559 35.455 51.8767 37.5282C53.1944 39.6014 53.9457 41.9837 54.0558 44.4378C54.221 44.3656 54.3965 44.3197 54.5758 44.3018C54.7798 44.2858 55.0238 44.2918 55.2278 44.3278C55.6758 44.4078 56.0378 44.6578 56.2478 45.0678C56.3698 45.3078 56.4278 45.5838 56.4658 45.8518C56.5758 46.6698 56.5898 49.2898 56.5898 49.2898ZM52.0898 45.0838C52.0898 39.9818 48.9038 35.6178 44.4198 33.8538C43.0182 33.2971 41.5239 33.0108 40.0158 33.0098H17.1598C15.6346 33.0099 14.1234 33.3018 12.7078 33.8698C10.4619 34.7626 8.53533 36.3084 7.17697 38.3074C5.81861 40.3065 5.09089 42.6669 5.08784 45.0838V74.9378C5.09121 77.3514 5.81732 79.7088 7.17259 81.706C8.52785 83.7033 10.4502 85.2489 12.6918 86.1438C14.112 86.7159 15.6288 87.0099 17.1598 87.0098H40.0138C41.5252 87.0049 43.0223 86.7173 44.4278 86.1618C48.9078 84.3938 52.0878 80.0338 52.0878 74.9358L52.0898 45.0838Z" fill="#1D1D1F"/>
</g>
<defs>
<clipPath id="clip0_4017_6828">
<rect width="70" height="56" fill="white" transform="scale(2)"/>
</clipPath>
</defs>
</svg>
